<?xml version="1.0" encoding="UTF-8" standalone="no"?>
<!-- Created with Inkscape (http://www.inkscape.org/) -->

<svg
   width="133.85001mm"
   height="101.037mm"
   viewBox="0 0 133.85 101.037"
   version="1.1"
   id="svg5"
   xml:space="preserve"
   inkscape:version="1.2.2 (b0a84865, 2022-12-01)"
   sodipodi:docname="burger.svg"
   xmlns:inkscape="http://www.inkscape.org/namespaces/inkscape"
   xmlns:sodipodi="http://sodipodi.sourceforge.net/DTD/sodipodi-0.dtd"
   xmlns="http://www.w3.org/2000/svg"
   xmlns:svg="http://www.w3.org/2000/svg"><sodipodi:namedview
     id="namedview7"
     pagecolor="#ffffff"
     bordercolor="#000000"
     borderopacity="0.25"
     inkscape:showpageshadow="2"
     inkscape:pageopacity="0.0"
     inkscape:pagecheckerboard="0"
     inkscape:deskcolor="#d1d1d1"
     inkscape:document-units="mm"
     showgrid="false"
     inkscape:zoom="0.46871521"
     inkscape:cx="397.8962"
     inkscape:cy="259.21924"
     inkscape:window-width="1470"
     inkscape:window-height="815"
     inkscape:window-x="0"
     inkscape:window-y="37"
     inkscape:window-maximized="1"
     inkscape:current-layer="layer1" /><defs
     id="defs2" /><g
     inkscape:label="Слой 1"
     inkscape:groupmode="layer"
     id="layer1"><path
       style="fill:#407bff;stroke-width:1;fill-opacity:1"
       d="m 3.0759462,97.936769 c -4.1012616,-4.101261 -4.1012616,-9.906098 0,-14.007365 l 3.0999951,-3.09999 H 66.912816 127.64968 l 3.1,3.09999 c 1.95409,1.9541 3.09999,4.54297 3.09999,7.003686 0,2.460716 -1.1459,5.049586 -3.09999,7.003679 l -3.1,3.100001 H 66.912816 6.1759413 Z m 0,-40.4147 c -4.1012616,-4.101267 -4.1012616,-9.906104 0,-14.007372 l 3.0999951,-3.09999 H 66.912816 127.64968 l 3.1,3.09999 c 1.95409,1.9541 3.09999,4.54297 3.09999,7.003686 0,2.460717 -1.1459,5.049587 -3.09999,7.003686 l -3.1,3.099991 H 66.912816 6.1759413 Z m 0,-40.414707 c -4.1012616,-4.101267 -4.1012616,-9.9061041 0,-14.0073717 L 6.1759413,0 H 66.912816 127.64968 l 3.1,3.0999903 c 1.95409,1.9540997 3.09999,4.5429697 3.09999,7.0036857 0,2.460717 -1.1459,5.049587 -3.09999,7.003686 l -3.1,3.099991 H 66.912816 6.1759413 Z"
       id="path8977" /></g></svg>
