<svg width="20" height="20" viewBox="0 0 20 20" fill="none" xmlns="http://www.w3.org/2000/svg">
<path d="M1.89591 19.7597C1.40556 19.7882 0.923328 19.6252 0.55089 19.305C-0.18363 18.5661 -0.18363 17.3728 0.55089 16.6339L16.6345 0.550255C17.3984 -0.164614 18.5972 -0.124874 19.3121 0.639091C19.9585 1.32994 19.9962 2.39179 19.4003 3.12669L3.22196 19.305C2.85433 19.6206 2.37983 19.7833 1.89591 19.7597V19.7597Z" fill="white"/>
<path d="M17.9605 19.7597C17.4635 19.7576 16.9872 19.5603 16.6344 19.2104L0.550737 3.12667C-0.129758 2.33201 -0.0372409 1.13609 0.757418 0.455534C1.46667 -0.151845 2.51268 -0.151845 3.22187 0.455534L19.4002 16.5392C20.164 17.2542 20.2035 18.4531 19.4884 19.2169C19.46 19.2472 19.4306 19.2766 19.4002 19.3051C19.0041 19.6496 18.4827 19.8142 17.9605 19.7597V19.7597Z" fill="white"/>
</svg>
