<?xml version="1.0" encoding="UTF-8" standalone="no"?>
<!-- Created with Inkscape (http://www.inkscape.org/) -->

<svg
   width="135.05701mm"
   height="123.76mm"
   viewBox="0 0 135.05701 123.76"
   version="1.1"
   id="svg5"
   xml:space="preserve"
   inkscape:version="1.2.2 (b0a84865, 2022-12-01)"
   sodipodi:docname="history.svg"
   xmlns:inkscape="http://www.inkscape.org/namespaces/inkscape"
   xmlns:sodipodi="http://sodipodi.sourceforge.net/DTD/sodipodi-0.dtd"
   xmlns="http://www.w3.org/2000/svg"
   xmlns:svg="http://www.w3.org/2000/svg"><sodipodi:namedview
     id="namedview7"
     pagecolor="#ffffff"
     bordercolor="#000000"
     borderopacity="0.25"
     inkscape:showpageshadow="2"
     inkscape:pageopacity="0.0"
     inkscape:pagecheckerboard="0"
     inkscape:deskcolor="#d1d1d1"
     inkscape:document-units="mm"
     showgrid="false"
     inkscape:zoom="0.29827398"
     inkscape:cx="-353.70165"
     inkscape:cy="487.80655"
     inkscape:window-width="1470"
     inkscape:window-height="815"
     inkscape:window-x="0"
     inkscape:window-y="37"
     inkscape:window-maximized="1"
     inkscape:current-layer="layer1" /><defs
     id="defs2" /><g
     inkscape:label="Слой 1"
     inkscape:groupmode="layer"
     id="layer1"><path
       style="fill:#ff725e;fill-opacity:1;stroke-width:1"
       d="m 65.519879,123.51511 c -7.36472,-1.13565 -16.610213,-4.32869 -22.439213,-7.74967 -8.789615,-5.15854 -20.814844,-17.568957 -20.814844,-21.481587 0,-1.95565 3.85907,-5.66204 5.895282,-5.66204 0.914073,0 4.730365,3.27074 8.480648,7.26833 25.355807,27.027797 66.937298,20.880427 82.748918,-12.23352 3.87742,-8.1204 3.94598,-8.48464 3.94598,-20.96398 0,-12.47934 -0.0686,-12.84359 -3.94598,-20.96398 C 106.95162,15.677836 77.188931,5.2147463 51.247343,17.772856 c -7.918963,3.8335 -17.807341,13.86892 -22.078856,22.40718 -5.006935,10.008267 -4.846508,11.213247 0.960936,7.217617 5.235986,-3.60245 8.11652,-4.02787 10.581636,-1.56275 2.003275,2.00328 2.136577,4.74654 0.340179,7.00072 -2.622207,3.29043 -20.852492,14.61952 -23.525099,14.61952 -2.264896,0 -3.904856,-1.8217 -10.0947643,-11.21348 -7.70580996,-11.69182 -8.492064,-13.99215 -5.727457,-16.756757 2.95828,-2.95828 6.51952,-2.03689 9.8390923,2.545647 l 3.048798,4.20874 2.242683,-6.150767 c 3.199956,-8.77618 9.388264,-17.84111 16.516916,-24.19478 C 49.49023,1.5094463 72.570931,-3.3679637 92.604631,3.3723663 129.19033,15.681616 145.66415,55.778683 128.4787,90.689443 117.33878,113.31923 90.419291,127.3546 65.519879,123.51511 Z m 11.974242,-49.038237 -9.719972,-9.91161 v -16.47113 c 0,-17.836877 0.57796,-19.797317 5.836422,-19.797317 4.74497,0 5.80525,3.38254 5.80525,18.520117 v 13.81581 l 7.48318,7.37995 c 9.41686,9.28696 10.09557,10.47061 7.91347,13.80092 -3.27811,5.00303 -6.59528,3.59774 -17.31835,-7.33674 z"
       id="path302" /></g></svg>
