<?xml version="1.0" encoding="UTF-8" standalone="no"?>
<!-- Created with Inkscape (http://www.inkscape.org/) -->

<svg
   width="134.713mm"
   height="101.148mm"
   viewBox="0 0 134.713 101.148"
   version="1.1"
   id="svg5"
   xml:space="preserve"
   inkscape:version="1.2.2 (b0a84865, 2022-12-01)"
   sodipodi:docname="list.svg"
   xmlns:inkscape="http://www.inkscape.org/namespaces/inkscape"
   xmlns:sodipodi="http://sodipodi.sourceforge.net/DTD/sodipodi-0.dtd"
   xmlns="http://www.w3.org/2000/svg"
   xmlns:svg="http://www.w3.org/2000/svg"><sodipodi:namedview
     id="namedview7"
     pagecolor="#ffffff"
     bordercolor="#000000"
     borderopacity="0.25"
     inkscape:showpageshadow="2"
     inkscape:pageopacity="0.0"
     inkscape:pagecheckerboard="0"
     inkscape:deskcolor="#d1d1d1"
     inkscape:document-units="mm"
     showgrid="false"
     inkscape:zoom="0.73528051"
     inkscape:cx="139.40258"
     inkscape:cy="263.16487"
     inkscape:window-width="1470"
     inkscape:window-height="815"
     inkscape:window-x="0"
     inkscape:window-y="37"
     inkscape:window-maximized="1"
     inkscape:current-layer="layer1" /><defs
     id="defs2" /><g
     inkscape:label="Слой 1"
     inkscape:groupmode="layer"
     id="layer1"><path
       style="fill:#407bff;fill-opacity:1;stroke-width:1"
       d="m 3.267795,98.983416 c -4.819504,-4.490044 -3.8906182,-11.28615 1.9939942,-14.589109 5.4265978,-3.045865 12.5401558,1.502796 12.5401558,8.018624 0,7.375791 -9.2037324,11.536539 -14.53415,6.570485 z m 29.891983,-1.615485 c -2.248327,-2.248328 -2.105329,-7.110154 0.272412,-9.26198 1.758386,-1.591309 6.415506,-1.728458 50.252527,-1.479793 l 48.314533,0.274049 1.62005,2.896432 c 1.4579,2.606525 1.4579,3.186335 0,5.792877 l -1.62005,2.896438 -48.586963,0.273768 C 40.279781,99.002768 34.638363,98.846481 33.159778,97.367931 Z M 4.8921056,58.056678 C -1.0440675,55.081149 -1.7247513,47.097913 3.6570618,43.571614 c 8.6541652,-5.67043 18.4070692,4.44865 12.0620962,12.51498 -2.679569,3.406515 -6.5546701,4.111625 -10.8270524,1.970084 z m 28.3546324,-3.08982 c -2.314679,-2.557682 -2.227009,-6.80766 0.185452,-8.990908 1.758386,-1.591317 6.415506,-1.728457 50.252527,-1.479803 l 48.314533,0.27405 1.62005,2.896438 c 1.4579,2.606535 1.4579,3.186341 0,5.792877 l -1.62005,2.896437 -48.500003,0.273718 C 37.56098,56.888928 34.906694,56.801099 33.246738,54.966858 Z M 2.9754194,14.833587 C -1.2428406,10.615314 -0.81343253,5.0669067 4.0184163,1.3571245 8.7684289,-2.2898115 17.801945,1.9386614 17.801945,7.809007 c 0,8.992261 -8.7250442,13.126056 -14.8265256,7.02458 z M 33.246738,12.836851 c -2.214119,-2.446566 -2.256855,-6.9087501 -0.08693,-9.0786407 1.478586,-1.4785906 7.120003,-1.634836 50.25251,-1.3917951 l 48.586972,0.2737757 1.62004,2.8964371 c 1.45792,2.6065369 1.45792,3.1863386 0,5.792876 l -1.62004,2.896438 -48.499997,0.273718 C 37.560963,14.758921 34.906694,14.671093 33.24672,12.836851 Z"
       id="path6699" /></g></svg>
