<?xml version="1.0" encoding="UTF-8"?>
<svg width="133.96mm" height="133.96mm" version="1.1" viewBox="0 0 133.96 133.96" xml:space="preserve" xmlns="http://www.w3.org/2000/svg"><path d="m24.126 131.93c-0.57929-0.71949-2.2423-4.6047-3.6956-8.6338-1.4533-4.0291-3.1807-8.7385-3.8386-10.465-0.92855-2.4369 1.0465-0.91459 8.8254 6.8024l10.022 9.942-3.9498 1.7538c-4.8814 2.1675-6.0264 2.2609-7.363 0.60087zm3e-3 -21.986c-12.802-12.812-23.276-23.763-23.276-24.336 0-1.3679 84.983-86.325 86.351-86.325 1.3672 0 47.603 46.262 47.603 47.63 0 1.3679-84.983 86.325-86.351 86.325-0.57778 0-11.525-10.482-24.327-23.294zm4.1645-27.692c6.203-6.1382 7.3936-8.9727 4.2723-10.171-2.4281-0.93175-15.557 12.067-14.629 14.484 1.1623 3.0289 4.2264 1.7527 10.357-4.3138zm53.222-2.3069c5.2486-5.2486 3.5845-14.456-4.0561-22.444-6.7761-7.0837-14.956-9.6146-20.989-6.4945-7.6561 3.9591-6.8579 15.033 1.7307 24.012 7.882 8.2398 17.887 10.354 23.315 4.9267zm30.183-25.633c4.505-4.5454 6.4504-7.2509 6.0201-8.3722-1.1568-3.0145-4.2298-1.7296-10.351 4.3281-6.8858 6.814-7.7318 9.9525-2.8781 10.677 0.30442 0.04544 3.5486-2.9394 7.2093-6.6329zm-24.13 49.37c7.8662-7.9824 11.372-10.864 12.772-10.498 2.5555 0.66828 16.674-4.7699 17.418-6.7091 1.2072-3.146-1.5384-4.0147-6.6735-2.1115-2.6736 0.99092-5.0079 1.6549-5.1873 1.4756-0.17936-0.17936 4.1178-4.7515 9.5492-10.16 5.4314-5.4088 10.043-9.623 10.249-9.3648 0.20543 0.25816 2.384 6.0594 4.8414 12.892 3.7309 10.373 4.2358 12.648 3.0611 13.792-1.0832 1.0549-29.156 11.785-54.779 20.938-1.1512 0.41122 2.7859-4.2034 8.7491-10.255zm-86.136-32.864c-0.86011-3.427-0.49489-3.7579 7.2701-6.5881l6.2791-2.2886-5.7201 5.8221c-3.1461 3.2022-6.0384 5.8221-6.4273 5.8221-0.38896 0-1.0198-1.2455-1.4018-2.7677z" style="fill:#ff725e"/></svg>
