<?xml version="1.0" encoding="UTF-8" standalone="no"?>
<!-- Created with Inkscape (http://www.inkscape.org/) -->

<svg
   width="133.955mm"
   height="133.955mm"
   viewBox="0 0 133.955 133.955"
   version="1.1"
   id="svg5"
   xml:space="preserve"
   inkscape:version="1.2.2 (b0a84865, 2022-12-01)"
   sodipodi:docname="money.svg"
   xmlns:inkscape="http://www.inkscape.org/namespaces/inkscape"
   xmlns:sodipodi="http://sodipodi.sourceforge.net/DTD/sodipodi-0.dtd"
   xmlns="http://www.w3.org/2000/svg"
   xmlns:svg="http://www.w3.org/2000/svg"><sodipodi:namedview
     id="namedview7"
     pagecolor="#ffffff"
     bordercolor="#000000"
     borderopacity="0.25"
     inkscape:showpageshadow="2"
     inkscape:pageopacity="0.0"
     inkscape:pagecheckerboard="0"
     inkscape:deskcolor="#d1d1d1"
     inkscape:document-units="mm"
     showgrid="false"
     inkscape:zoom="0.35000901"
     inkscape:cx="389.98996"
     inkscape:cy="189.99511"
     inkscape:window-width="1470"
     inkscape:window-height="815"
     inkscape:window-x="0"
     inkscape:window-y="37"
     inkscape:window-maximized="1"
     inkscape:current-layer="layer1" /><defs
     id="defs2" /><g
     inkscape:label="Слой 1"
     inkscape:groupmode="layer"
     id="layer1"><path
       style="fill:#407bff;fill-opacity:1;stroke-width:1"
       d="m 24.125504,131.92682 c -0.579292,-0.71949 -2.242312,-4.6047 -3.6956,-8.63381 -1.453287,-4.02911 -3.180671,-8.73846 -3.838625,-10.46522 -0.92855,-2.43694 1.046538,-0.91459 8.825373,6.80239 l 10.021652,9.94196 -3.949752,1.75381 c -4.881406,2.16747 -6.026443,2.26091 -7.363048,0.60087 z m 0.003,-21.9855 C 11.326479,97.129815 0.85210717,86.178426 0.85210717,85.6049 c 0,-1.367892 84.98318383,-86.3247285 86.35149983,-86.3247285 1.367229,0 47.603283,46.2620655 47.603283,47.6300635 0,1.367894 -84.983173,86.324725 -86.351492,86.324725 -0.577779,0 -11.524886,-10.48213 -24.326897,-23.29364 z m 4.164468,-27.691534 c 6.202951,-6.138229 7.393623,-8.972733 4.272252,-10.170513 -2.428106,-0.931753 -15.556761,12.066939 -14.62913,14.484313 1.162312,3.028923 4.226439,1.752662 10.356878,-4.3138 z M 81.514764,79.942853 C 86.763326,74.694296 85.099277,65.486465 77.458708,57.49901 70.682633,50.415302 62.503152,47.884401 56.469511,51.004517 c -7.656084,3.959115 -6.857879,15.033066 1.73074,24.011608 7.881997,8.239839 17.887154,10.354089 23.314513,4.926728 z M 111.6977,54.309437 c 4.50503,-4.545426 6.45041,-7.250865 6.02012,-8.372175 -1.15677,-3.014489 -4.22984,-1.729588 -10.35138,4.328089 -6.88585,6.813985 -7.731838,9.952461 -2.87806,10.676988 0.30442,0.04544 3.54862,-2.939365 7.20932,-6.632902 z M 87.567431,103.67915 c 7.866209,-7.982446 11.371918,-10.863757 12.772389,-10.497523 2.55552,0.668283 16.67429,-4.769914 17.41844,-6.709148 1.20724,-3.145992 -1.53838,-4.014686 -6.67352,-2.111466 -2.67364,0.990923 -5.00793,1.654931 -5.18728,1.475573 -0.17936,-0.179357 4.11776,-4.751502 9.54917,-10.160321 5.43141,-5.40882 10.04335,-9.622991 10.24875,-9.364826 0.20543,0.258164 2.38403,6.059382 4.84137,12.891595 3.7309,10.373133 4.23583,12.648209 3.06106,13.792316 -1.08315,1.054881 -29.15596,11.7852 -54.779442,20.93843 -1.151173,0.41122 2.785905,-4.20336 8.749063,-10.25463 z M 1.4312705,70.815542 C 0.57115807,67.388567 0.93637608,67.057613 8.7014069,64.227491 l 6.2791311,-2.288555 -5.7201203,5.822142 c -3.1460623,3.202179 -6.0383587,5.822143 -6.4273089,5.822143 -0.38896,0 -1.0197803,-1.245456 -1.4018383,-2.767679 z"
       id="path6734" /></g></svg>
