<svg width="35" height="30" viewBox="0 0 35 30" fill="none" xmlns="http://www.w3.org/2000/svg">
<path d="M34.7147 3.59901V21.7219C34.7147 23.7063 32.8691 25.3209 30.602 25.3209H22.4468L17.3561 30L12.2666 25.3209H4.11263C1.84435 25.3196 0 23.7063 0 21.7206V3.59901C0 1.61458 1.84435 0 4.11263 0H30.6008C32.8691 0 34.7122 1.61335 34.7147 3.59901Z" fill="#407BFF" fill-opacity="0.6"/>
<path d="M21.1518 7.04616C21.1518 8.83232 19.453 10.2803 17.3573 10.2803C15.2616 10.2803 13.5627 8.83232 13.5627 7.04616C13.5627 5.25999 15.2616 3.81201 17.3573 3.81201C19.453 3.81201 21.1518 5.25999 21.1518 7.04616Z" fill="white"/>
<path d="M23.2622 19.6777C23.4863 19.6777 23.6686 19.5228 23.6628 19.3318C23.6325 18.337 23.4719 17.3562 23.1876 16.4347C22.8705 15.4065 22.4056 14.4723 21.8196 13.6853C21.2336 12.8984 20.5379 12.2742 19.7723 11.8483C19.0066 11.4224 18.186 11.2032 17.3573 11.2032C16.5286 11.2032 15.7079 11.4224 14.9423 11.8483C14.1766 12.2742 13.4809 12.8984 12.8949 13.6853C12.3089 14.4723 11.8441 15.4065 11.5269 16.4347C11.2427 17.3562 11.0821 18.337 11.0518 19.3318C11.046 19.5228 11.2283 19.6777 11.4524 19.6777L23.2622 19.6777Z" fill="white"/>
</svg>
