<svg width="58" height="58" viewBox="0 0 58 58" fill="none" xmlns="http://www.w3.org/2000/svg">
<circle cx="29.0002" cy="28.2165" r="22.7297" fill="#FF0D9E"/>
<mask id="mask0_574_26298" style="mask-type:alpha" maskUnits="userSpaceOnUse" x="0" y="0" width="58" height="58">
<path d="M34.5508 29C34.5508 32.0657 32.0657 34.5508 29 34.5508C25.9343 34.5508 23.4492 32.0657 23.4492 29C23.4492 25.9343 25.9343 23.4492 29 23.4492C32.0657 23.4492 34.5508 25.9343 34.5508 29Z" fill="url(#paint0_linear_574_26298)"/>
<path d="M41.9813 19.1791C41.7145 18.456 41.2888 17.8015 40.7357 17.2643C40.1985 16.7112 39.5444 16.2855 38.8209 16.0187C38.2342 15.7908 37.3527 15.5195 35.7292 15.4456C33.9729 15.3655 33.4463 15.3483 29 15.3483C24.5533 15.3483 24.0267 15.3651 22.2708 15.4452C20.6473 15.5195 19.7654 15.7908 19.179 16.0187C18.4555 16.2855 17.8011 16.7112 17.2643 17.2643C16.7112 17.8015 16.2855 18.4556 16.0182 19.1791C15.7903 19.7658 15.5191 20.6477 15.4452 22.2713C15.3651 24.0271 15.3478 24.5537 15.3478 29.0004C15.3478 33.4467 15.3651 33.9733 15.4452 35.7296C15.5191 37.3532 15.7903 38.2346 16.0182 38.8214C16.2855 39.5449 16.7107 40.1989 17.2639 40.7361C17.8011 41.2893 18.4551 41.7149 19.1786 41.9818C19.7654 42.2101 20.6473 42.4814 22.2708 42.5553C24.0267 42.6354 24.5528 42.6522 28.9995 42.6522C33.4467 42.6522 33.9733 42.6354 35.7287 42.5553C37.3523 42.4814 38.2342 42.2101 38.8209 41.9818C40.2732 41.4216 41.4211 40.2737 41.9813 38.8214C42.2092 38.2346 42.4805 37.3532 42.5548 35.7296C42.6349 33.9733 42.6517 33.4467 42.6517 29.0004C42.6517 24.5537 42.6349 24.0271 42.5548 22.2713C42.4809 20.6477 42.2096 19.7658 41.9813 19.1791ZM29 37.551C24.2771 37.551 20.4486 33.7229 20.4486 29C20.4486 24.2772 24.2771 20.449 29 20.449C33.7224 20.449 37.5509 24.2772 37.5509 29C37.5509 33.7229 33.7224 37.551 29 37.551ZM37.889 22.1093C36.7854 22.1093 35.8907 21.2146 35.8907 20.111C35.8907 19.0074 36.7854 18.1126 37.889 18.1126C38.9926 18.1126 39.8874 19.0074 39.8874 20.111C39.8869 21.2146 38.9926 22.1093 37.889 22.1093Z" fill="url(#paint1_linear_574_26298)"/>
<path d="M29 0C12.9862 0 0 12.9862 0 29C0 45.0138 12.9862 58 29 58C45.0138 58 58 45.0138 58 29C58 12.9862 45.0138 0 29 0ZM45.5519 35.8655C45.4714 37.6381 45.1895 38.8484 44.778 39.9077C43.9129 42.1446 42.1446 43.9129 39.9077 44.778C38.8488 45.1895 37.6381 45.4709 35.8659 45.5519C34.0901 45.6329 33.5228 45.6523 29.0004 45.6523C24.4776 45.6523 23.9108 45.6329 22.1345 45.5519C20.3623 45.4709 19.1516 45.1895 18.0927 44.778C16.9811 44.3598 15.9749 43.7044 15.143 42.857C14.296 42.0256 13.6407 41.0189 13.2225 39.9077C12.811 38.8488 12.5291 37.6381 12.4485 35.8659C12.3667 34.0897 12.3477 33.5224 12.3477 29C12.3477 24.4776 12.3667 23.9103 12.4481 22.1345C12.5286 20.3619 12.8101 19.1516 13.2216 18.0923C13.6398 16.9811 14.2956 15.9744 15.143 15.143C15.9744 14.2956 16.9811 13.6402 18.0923 13.222C19.1516 12.8105 20.3619 12.5291 22.1345 12.4481C23.9103 12.3671 24.4776 12.3477 29 12.3477C33.5224 12.3477 34.0897 12.3671 35.8655 12.4485C37.6381 12.5291 38.8484 12.8105 39.9077 13.2216C41.0189 13.6398 42.0256 14.2956 42.8575 15.143C43.7044 15.9749 44.3602 16.9811 44.778 18.0923C45.1899 19.1516 45.4714 20.3619 45.5523 22.1345C45.6333 23.9103 45.6523 24.4776 45.6523 29C45.6523 33.5224 45.6333 34.0897 45.5519 35.8655Z" fill="url(#paint2_linear_574_26298)"/>
</mask>
<g mask="url(#mask0_574_26298)">
<rect x="-2.35107" y="-9.40527" width="68.1892" height="75.2432" fill="white"/>
</g>
<defs>
<linearGradient id="paint0_linear_574_26298" x1="29" y1="0" x2="29" y2="58" gradientUnits="userSpaceOnUse">
<stop/>
<stop offset="1"/>
</linearGradient>
<linearGradient id="paint1_linear_574_26298" x1="29" y1="0" x2="29" y2="58" gradientUnits="userSpaceOnUse">
<stop/>
<stop offset="1"/>
</linearGradient>
<linearGradient id="paint2_linear_574_26298" x1="29" y1="0" x2="29" y2="58" gradientUnits="userSpaceOnUse">
<stop/>
<stop offset="1"/>
</linearGradient>
</defs>
</svg>
