<?xml version="1.0" encoding="UTF-8"?>
<svg width="48" height="48" fill="none" version="1.1" viewBox="0 0 48 48" xmlns="http://www.w3.org/2000/svg">
 <g clip-path="url(#clip0_17_27)" fill="#000100">
  <path d="m24 4.3219c6.4125 0 7.1719 0.02813 9.6938 0.14063 2.3437 0.10312 3.6093 0.49688 4.4531 0.825 1.1156 0.43125 1.9219 0.95625 2.7562 1.7906 0.8438 0.84376 1.3594 1.6406 1.7907 2.7563 0.3281 0.84372 0.7218 2.1187 0.825 4.4531 0.1125 2.5312 0.1406 3.2906 0.1406 9.6938 0 6.4125-0.0281 7.1718-0.1406 9.6937-0.1032 2.3438-0.4969 3.6094-0.825 4.4531-0.4313 1.1157-0.9563 1.9219-1.7907 2.7563-0.8437 0.8437-1.6406 1.3594-2.7562 1.7906-0.8438 0.3281-2.1188 0.7219-4.4531 0.825-2.5313 0.1125-3.2907 0.1406-9.6938 0.1406-6.4125 0-7.1719-0.0281-9.6937-0.1406-2.3438-0.1031-3.6094-0.4969-4.4532-0.825-1.1156-0.4312-1.9219-0.9562-2.7562-1.7906-0.84375-0.8438-1.3594-1.6406-1.7906-2.7563-0.32812-0.8437-0.72187-2.1187-0.825-4.4531-0.1125-2.5312-0.14062-3.2906-0.14062-9.6937 0-6.4125 0.02812-7.1719 0.14062-9.6938 0.10313-2.3438 0.49688-3.6094 0.825-4.4531 0.43125-1.1156 0.95625-1.9219 1.7906-2.7563 0.84375-0.84374 1.6406-1.3594 2.7562-1.7906 0.84377-0.32812 2.1188-0.72188 4.4532-0.825 2.5218-0.1125 3.2812-0.14063 9.6937-0.14063zm0-4.3219c-6.5156 0-7.3312 0.028125-9.8906 0.14062-2.55 0.1125-4.3032 0.525-5.8219 1.1156-1.5844 0.61875-2.925 1.4344-4.2562 2.775-1.3406 1.3312-2.1562 2.6719-2.775 4.2469-0.59062 1.5281-1.0031 3.2719-1.1156 5.8219-0.1125 2.5687-0.14062 3.3844-0.14062 9.9s0.028125 7.3312 0.14062 9.8906c0.1125 2.55 0.525 4.3032 1.1156 5.8219 0.61875 1.5844 1.4344 2.925 2.775 4.2563 1.3312 1.3312 2.6719 2.1562 4.2469 2.7656 1.5281 0.5906 3.2719 1.0031 5.8219 1.1156 2.5594 0.1125 3.375 0.1406 9.8906 0.1406 6.5157 0 7.3313-0.0281 9.8907-0.1406 2.55-0.1125 4.3031-0.525 5.8218-1.1156 1.575-0.6094 2.9157-1.4344 4.2469-2.7656 1.3312-1.3313 2.1563-2.6719 2.7656-4.2469 0.5907-1.5281 1.0032-3.2719 1.1157-5.8219 0.1125-2.5594 0.1406-3.375 0.1406-9.8906s-0.0281-7.3313-0.1406-9.8906c-0.1125-2.55-0.525-4.3032-1.1157-5.8219-0.5906-1.5938-1.4062-2.9344-2.7468-4.2656-1.3313-1.3312-2.6719-2.1562-4.2469-2.7656-1.5281-0.59062-3.2719-1.0031-5.8219-1.1156-2.5687-0.12188-3.3844-0.15-9.9-0.15z" style="fill:#ff0d9e"/>
  <path d="m24 11.672c-6.8062 0-12.328 5.5219-12.328 12.328s5.5219 12.328 12.328 12.328 12.328-5.5219 12.328-12.328-5.5219-12.328-12.328-12.328zm0 20.325c-4.4156 0-7.9969-3.5813-7.9969-7.9969s3.5813-7.9969 7.9969-7.9969 7.9969 3.5813 7.9969 7.9969-3.5813 7.9969-7.9969 7.9969z" style="fill:#ff0d9e"/>
  <path d="m39.694 11.184c0 1.5938-1.2937 2.8781-2.8781 2.8781-1.5937 0-2.8781-1.2937-2.8781-2.8781 0-1.5938 1.2938-2.8781 2.8781-2.8781 1.5844 0 2.8781 1.2938 2.8781 2.8781z" style="fill:#ff0d9e"/>
 </g>
 <defs>
  <clipPath id="clip0_17_27">
   <rect width="48" height="48" fill="#fff"/>
  </clipPath>
 </defs>
</svg>
