<svg width="58" height="58" viewBox="0 0 58 58" fill="none" xmlns="http://www.w3.org/2000/svg">
<circle cx="29.0001" cy="29.0001" r="28.5714" fill="white"/>
<path d="M29.0002 8.04785C24.8562 8.04785 20.8053 9.27669 17.3597 11.579C13.9141 13.8812 11.2286 17.1536 9.64277 20.9821C8.05693 24.8106 7.642 29.0235 8.45046 33.0878C9.25891 37.1522 11.2544 40.8856 14.1847 43.8158C17.1149 46.746 20.8483 48.7416 24.9126 49.55C28.977 50.3585 33.1898 49.9435 37.0184 48.3577C40.8469 46.7719 44.1192 44.0863 46.4215 40.6407C48.7238 37.1951 49.9526 33.1442 49.9526 29.0002C49.9446 23.4458 47.7345 18.1212 43.8069 14.1936C39.8793 10.266 34.5547 8.05591 29.0002 8.04785ZM37.7469 27.8574C37.7044 25.3384 37.4649 22.8266 37.0307 20.345C39.565 19.9704 42.0665 19.3998 44.5126 18.6383C46.3292 21.3861 47.3812 24.5682 47.5602 27.8574H37.7469ZM47.6212 30.1431C47.4421 33.4322 46.3902 36.6143 44.5736 39.3621C42.1282 38.6014 39.6264 38.0358 37.0917 37.6707C37.5276 35.1791 37.7671 32.657 37.8079 30.1278L47.6212 30.1431ZM43.0498 16.7031C40.9306 17.3098 38.7717 17.7681 36.5888 18.0745C36.0281 15.5182 34.9945 13.0891 33.5412 10.9126C37.2094 11.8392 40.5095 13.8585 43.004 16.7031H43.0498ZM29.0002 47.6669C27.0802 47.6669 25.0231 44.6193 23.7431 39.6669C27.2346 39.3279 30.7507 39.3279 34.2421 39.6669C32.9774 44.6345 30.9202 47.6669 29.0002 47.6669ZM23.2707 37.4269C22.8369 35.0221 22.5973 32.5863 22.5545 30.1431H35.4612C35.4184 32.5863 35.1789 35.0221 34.745 37.4269C30.9301 37.0385 27.0856 37.0385 23.2707 37.4269ZM22.5545 27.8574C22.6 25.4294 22.8395 23.009 23.2707 20.6193C25.1784 20.8323 27.096 20.9442 29.0155 20.9545C30.935 20.9442 32.8526 20.8323 34.7602 20.6193C35.1915 23.009 35.431 25.4294 35.4764 27.8574H22.5545ZM29.0002 10.3336C30.9202 10.3336 32.9774 13.3812 34.2574 18.3336C30.7659 18.6725 27.2498 18.6725 23.7583 18.3336C25.0231 13.3659 27.0802 10.3336 29.0002 10.3336ZM24.4288 10.9126C22.9774 13.0902 21.9439 15.5188 21.3812 18.0745C19.2075 17.7586 17.0587 17.2901 14.9507 16.6726C17.4535 13.8367 20.7588 11.828 24.4288 10.9126ZM13.4879 18.6383C15.934 19.3998 18.4354 19.9704 20.9698 20.345C20.5356 22.8266 20.2961 25.3384 20.2536 27.8574H10.3945C10.5873 24.5639 11.6551 21.3815 13.4879 18.6383ZM20.2688 30.1431C20.3096 32.6723 20.549 35.1943 20.985 37.6859C18.4455 38.0453 15.9386 38.6058 13.4879 39.3621C11.6712 36.6143 10.6193 33.4322 10.4402 30.1431H20.2688ZM15.0269 41.3278C17.11 40.714 19.2332 40.2455 21.3812 39.9259C21.9436 42.4818 22.9771 44.9105 24.4288 47.0878C20.7863 46.1583 17.5094 44.1507 15.0269 41.3278ZM33.5717 47.0878C35.0259 44.9118 36.0596 42.4826 36.6193 39.9259C38.793 40.242 40.9417 40.7105 43.0498 41.3278C40.5469 44.1638 37.2416 46.1725 33.5717 47.0878Z" fill="url(#paint0_linear_574_26310)"/>
<defs>
<linearGradient id="paint0_linear_574_26310" x1="29.0002" y1="-1.85691" x2="29.0002" y2="74.3488" gradientUnits="userSpaceOnUse">
<stop stop-color="#68ECFB"/>
<stop offset="0.51" stop-color="#00C7F8"/>
<stop offset="1" stop-color="#0051D8"/>
</linearGradient>
</defs>
</svg>
