<svg width="58" height="58" viewBox="0 0 58 58" fill="none" xmlns="http://www.w3.org/2000/svg">
<path d="M0.428711 29.0001C0.428711 13.2206 13.2206 0.428711 29.0001 0.428711C44.7797 0.428711 57.5716 13.2206 57.5716 29.0001C57.5716 44.7797 44.7797 57.5716 29.0001 57.5716C13.2206 57.5716 0.428711 44.7797 0.428711 29.0001Z" fill="#F68634"/>
<path d="M32.0906 35.4767L36.3604 39.5988C37.2351 40.4413 37.2351 41.8098 36.3604 42.6532C35.4866 43.4967 34.0703 43.4967 33.1974 42.6532L28.9994 38.6026L24.8049 42.6532C24.3676 43.0745 23.7945 43.2854 23.2214 43.2854C22.6492 43.2854 22.077 43.0745 21.6397 42.6532C20.7659 41.8098 20.7659 40.4422 21.6388 39.5988L25.9091 35.4767C24.3543 35.1348 22.8549 34.5401 21.4738 33.7037C20.4286 33.0676 20.1146 31.7349 20.7732 30.7251C21.4299 29.714 22.811 29.4096 23.858 30.0457C26.9849 31.9444 31.0129 31.9449 34.1416 30.0457C35.1886 29.4096 36.5693 29.714 37.2274 30.7251C37.8859 31.734 37.571 33.0676 36.5259 33.7037C35.1448 34.541 33.6453 35.1348 32.0906 35.4767Z" fill="white"/>
<path fill-rule="evenodd" clip-rule="evenodd" d="M21.3428 22.0877C21.3428 26.1524 24.7685 29.4588 28.9808 29.4588C33.1939 29.4588 36.6188 26.1524 36.6188 22.0877C36.6188 18.0216 33.1939 14.7144 28.9808 14.7144C24.7685 14.7144 21.3428 18.0216 21.3428 22.0877ZM32.1433 22.0877C32.1433 20.4043 30.7247 19.0354 28.9808 19.0354C27.2382 19.0354 25.8183 20.4043 25.8183 22.0877C25.8183 23.7698 27.2382 25.1395 28.9808 25.1395C30.7247 25.1395 32.1433 23.7698 32.1433 22.0877Z" fill="white"/>
</svg>
