<svg width="58" height="58" viewBox="0 0 58 58" fill="none" xmlns="http://www.w3.org/2000/svg">
<path d="M28.9999 57.5716C44.7795 57.5716 57.5713 44.7797 57.5713 29.0001C57.5713 13.2206 44.7795 0.428711 28.9999 0.428711C13.2203 0.428711 0.428467 13.2206 0.428467 29.0001C0.428467 44.7797 13.2203 57.5716 28.9999 57.5716Z" fill="#FF6A22"/>
<path d="M8.93754 35.4862C8.92379 35.5788 8.85758 35.6451 8.7715 35.6451C8.68543 35.6451 8.61922 35.5788 8.60598 35.4841L8.30396 33.2238L8.60598 30.9258C8.61871 30.83 8.68492 30.7638 8.7715 30.7638C8.85707 30.7638 8.92328 30.83 8.93754 30.9258L9.29711 33.2263L8.93754 35.4862ZM10.4762 36.8593C10.4619 36.9576 10.3906 37.0263 10.3025 37.0263C10.2169 37.0263 10.1421 36.9576 10.1304 36.8593L9.72392 33.2233L10.1304 29.5058C10.1426 29.41 10.2169 29.3387 10.3025 29.3387C10.3906 29.3387 10.4619 29.4085 10.4762 29.5058L10.9386 33.2233L10.4762 36.8593ZM12.1365 37.475C12.1248 37.5932 12.0362 37.6772 11.9298 37.6772C11.8197 37.6772 11.7326 37.5932 11.722 37.475L11.3364 33.2263L11.722 28.8162C11.7316 28.6965 11.8197 28.6109 11.9298 28.6109C12.0362 28.6109 12.1243 28.6965 12.1365 28.8162L12.574 33.2263L12.1365 37.475ZM13.8132 37.61C13.8095 37.6729 13.7825 37.7322 13.7373 37.7762C13.6922 37.8202 13.6322 37.8458 13.5692 37.8478C13.5059 37.8466 13.4453 37.8214 13.3998 37.7772C13.3544 37.7331 13.3273 37.6733 13.3243 37.61L12.9601 33.2263L13.3243 28.695C13.3271 28.6315 13.354 28.5715 13.3995 28.5271C13.445 28.4827 13.5057 28.4573 13.5692 28.4561C13.695 28.4561 13.801 28.5585 13.8132 28.695L14.2262 33.2263L13.8132 37.61ZM15.499 37.6451C15.4971 37.7176 15.4672 37.7866 15.4157 37.8376C15.3642 37.8886 15.295 37.9179 15.2225 37.9191C15.0727 37.9191 14.9541 37.8025 14.9439 37.6451L14.5996 33.2258L14.9439 29.022C14.9546 28.8656 15.0727 28.749 15.2225 28.749C15.3702 28.749 15.4904 28.8656 15.499 29.0199L15.8892 33.2258L15.499 37.6451ZM17.2011 37.6477V37.6451C17.191 37.8193 17.0529 37.9568 16.8869 37.9568C16.8051 37.9547 16.7271 37.9216 16.6688 37.8642C16.6105 37.8068 16.5761 37.7294 16.5726 37.6477L16.2513 33.2284L16.5726 26.3888C16.5823 26.2146 16.7203 26.0771 16.8869 26.0771C17.0534 26.0771 17.1915 26.2151 17.2011 26.3863L17.5653 33.2284L17.2011 37.6477ZM18.8905 37.6451V37.6426C18.8875 37.7342 18.8495 37.8212 18.7841 37.8856C18.7188 37.9499 18.6313 37.9868 18.5396 37.9884C18.3547 37.9884 18.2019 37.8351 18.1928 37.6426L17.8892 33.2518L18.1928 24.8476C18.2019 24.6551 18.3547 24.5028 18.5396 24.5028C18.6312 24.5042 18.7187 24.5408 18.7841 24.605C18.8494 24.6692 18.8875 24.7561 18.8905 24.8476L19.2323 33.2518L18.8905 37.6451ZM20.6431 37.5774V37.5748C20.6415 37.6758 20.6005 37.7722 20.5288 37.8434C20.4572 37.9145 20.3606 37.9549 20.2596 37.9558C20.159 37.9549 20.0627 37.9149 19.9912 37.8443C19.9196 37.7736 19.8783 37.6779 19.876 37.5774L19.5944 33.2314L19.876 24.1244C19.8783 24.0236 19.9195 23.9275 19.991 23.8564C20.0625 23.7853 20.1587 23.7446 20.2596 23.7429C20.4669 23.7429 20.6359 23.9125 20.6431 24.1244L20.9614 33.2314L20.6431 37.5774ZM22.3854 37.5484C22.3837 37.6586 22.339 37.7638 22.2608 37.8416C22.1825 37.9193 22.0771 37.9634 21.9668 37.9645C21.8568 37.9636 21.7514 37.9198 21.6732 37.8425C21.5949 37.7652 21.5499 37.6604 21.5476 37.5504L21.2848 33.2304L21.5476 23.8193C21.5492 23.7089 21.594 23.6035 21.6723 23.5256C21.7506 23.4477 21.8563 23.4036 21.9668 23.4027C22.1944 23.4027 22.3778 23.585 22.3854 23.8193L22.6773 33.2304L22.3854 37.5484ZM24.139 37.5102V37.5076C24.1374 37.6276 24.0888 37.7422 24.0037 37.8267C23.9186 37.9113 23.8037 37.9591 23.6837 37.9599C23.5644 37.9591 23.4502 37.9115 23.3656 37.8274C23.2811 37.7433 23.2329 37.6294 23.2314 37.5102L22.99 33.2314L23.2289 24.0607C23.2301 23.9406 23.2784 23.8258 23.3635 23.741C23.4486 23.6562 23.5636 23.6082 23.6837 23.6074C23.9337 23.6074 24.1309 23.8051 24.139 24.0607L24.41 33.2314L24.139 37.5102ZM25.9068 37.4847V37.4811C25.9073 37.6112 25.8561 37.7361 25.7644 37.8285C25.6728 37.9208 25.5482 37.9729 25.4181 37.9734C25.2881 37.9739 25.1631 37.9226 25.0708 37.831C24.9785 37.7393 24.9264 37.6148 24.9259 37.4847L24.7079 33.2309L24.9264 24.3959C24.9279 24.2662 24.9803 24.1422 25.0723 24.0509C25.1644 23.9595 25.2887 23.908 25.4184 23.9074C25.6863 23.9074 25.9033 24.1219 25.9073 24.3959L26.1544 33.2335L25.9068 37.4847ZM27.7103 37.036L27.6884 37.4526C27.6855 37.5919 27.6294 37.7248 27.5315 37.8239C27.4358 37.9171 27.3044 37.9767 27.1653 37.9767C27.0034 37.9767 26.8608 37.9023 26.763 37.7852C26.689 37.698 26.646 37.5887 26.6407 37.4745C26.6392 37.4694 26.6392 37.4628 26.6392 37.4557L26.438 33.2284L26.6367 22.8165L26.6392 22.7167C26.6407 22.5343 26.7375 22.3719 26.8822 22.2786C26.9667 22.2218 27.0664 22.1917 27.1683 22.1926C27.2702 22.1934 27.3695 22.225 27.4531 22.2832C27.5942 22.3775 27.6864 22.5359 27.6889 22.7172L27.91 33.2335L27.7103 37.036ZM29.4628 37.3981V37.393C29.461 37.5408 29.4013 37.682 29.2966 37.7864C29.1919 37.8907 29.0504 37.9499 28.9026 37.9512C28.597 37.9512 28.3454 37.7006 28.3424 37.3956L28.2267 35.343L28.1132 33.2355L28.3424 21.8238V21.7663C28.3437 21.6182 28.4032 21.4766 28.508 21.372C28.6128 21.2673 28.7545 21.2081 28.9026 21.2071C29.008 21.2071 29.1058 21.2361 29.1893 21.285C29.3488 21.3848 29.4603 21.5615 29.4654 21.7637L29.7134 33.235L29.4628 37.3981ZM44.6062 37.9624H30.4922C30.1876 37.9314 29.9467 37.6889 29.9416 37.3767V21.2193C29.9467 20.9218 30.0491 20.7685 30.4321 20.6213C31.4717 20.2203 32.5763 20.0138 33.6907 20.0122C38.384 20.0122 42.2298 23.6125 42.6378 28.1989C43.2613 27.9381 43.9304 27.8036 44.6062 27.8032C47.4166 27.8032 49.6953 30.0828 49.6953 32.8953C49.6953 35.7072 47.4166 37.9624 44.6062 37.9624Z" fill="#F1F2F2"/>
</svg>
