<svg width="58" height="58" viewBox="0 0 58 58" fill="none" xmlns="http://www.w3.org/2000/svg">
<path d="M29 0.428711C13.2208 0.428711 0.428711 13.2205 0.428711 28.9996C0.428711 44.7805 13.2208 57.5716 29 57.5716C44.7798 57.5716 57.5716 44.7805 57.5716 28.9996C57.5716 13.2205 44.7798 0.428711 29 0.428711Z" fill="#1ED760"/>
<path d="M41.4752 41.0172C40.9695 41.8466 39.8898 42.1063 39.0635 41.6009C32.4554 37.5621 24.1378 36.6501 14.3424 38.8875C13.3985 39.1039 12.4576 38.5124 12.2425 37.5689C12.0261 36.6249 12.6155 35.684 13.5614 35.4686C24.281 33.0183 33.4759 34.0727 40.8932 38.6052C41.7202 39.1102 41.9806 40.1906 41.4752 41.0172Z" fill="white"/>
<path d="M44.9185 33.355C44.2821 34.3876 42.9319 34.7115 41.9006 34.0775C34.3385 29.4291 22.8064 28.0822 13.8594 30.7981C12.6995 31.1486 11.4739 30.4946 11.1214 29.3363C10.772 28.1763 11.4262 26.9532 12.5845 26.6003C22.805 23.4987 35.5109 25.0008 44.1967 30.3387C45.228 30.9738 45.5526 32.3247 44.9185 33.355Z" fill="white"/>
<path d="M45.2153 25.3758C36.1444 19.9889 21.1821 19.4935 12.5228 22.1217C11.1319 22.5437 9.66142 21.7588 9.24037 20.3682C8.81898 18.9767 9.60295 17.5072 10.9945 17.0845C20.9351 14.0672 37.4593 14.6499 47.9019 20.8488C49.153 21.5914 49.563 23.2067 48.8217 24.4554C48.0797 25.7062 46.463 26.1185 45.2153 25.3758Z" fill="white"/>
</svg>
