<svg width="37" height="37" viewBox="0 0 37 37" fill="none" xmlns="http://www.w3.org/2000/svg">
<path d="M18.009 36.0181C27.9551 36.0181 36.0181 27.9551 36.0181 18.009C36.0181 8.06292 27.9551 0 18.009 0C8.06292 0 0 8.06292 0 18.009C0 27.9551 8.06292 36.0181 18.009 36.0181Z" fill="url(#paint0_linear_574_29761)"/>
<path d="M14.7074 26.2633C14.1239 26.2633 14.2231 26.043 14.0218 25.4874L12.3062 19.8409L25.5128 12.0061" fill="#C8DAEA"/>
<path d="M14.7075 26.2631C15.1577 26.2631 15.3567 26.0572 15.608 25.8129L18.0092 23.478L15.014 21.6719" fill="#A9C9DD"/>
<path d="M15.0133 21.6722L22.271 27.0342C23.0992 27.4912 23.6969 27.2546 23.9032 26.2653L26.8574 12.3439C27.1599 11.1312 26.3952 10.5812 25.6029 10.9409L8.25569 17.6299C7.07158 18.1049 7.07849 18.7655 8.03985 19.0599L12.4915 20.4493L22.7977 13.9473C23.2842 13.6523 23.7307 13.8109 23.3642 14.1361" fill="url(#paint1_linear_574_29761)"/>
<defs>
<linearGradient id="paint0_linear_574_29761" x1="13.5086" y1="1.50195" x2="4.50406" y2="22.5113" gradientUnits="userSpaceOnUse">
<stop stop-color="#37AEE2"/>
<stop offset="1" stop-color="#1E96C8"/>
</linearGradient>
<linearGradient id="paint1_linear_574_29761" x1="15.7544" y1="19.1151" x2="17.6786" y2="25.3394" gradientUnits="userSpaceOnUse">
<stop stop-color="#EFF7FC"/>
<stop offset="1" stop-color="white"/>
</linearGradient>
</defs>
</svg>
