<svg width="58" height="58" viewBox="0 0 58 58" fill="none" xmlns="http://www.w3.org/2000/svg">
<path d="M57.5716 28.9994C57.5716 44.778 44.7794 57.5701 28.9994 57.5701H28.9459C13.1913 57.5406 0.428711 44.7569 0.428711 28.9994C0.428711 13.242 13.1913 0.456872 28.9459 0.428711H28.9994C44.7794 0.428711 57.5716 13.2166 57.5716 28.9994Z" fill="#0C0C0C"/>
<path d="M28.9459 0.428711L28.9459 57.5702C13.1913 57.5406 0.428711 44.7569 0.428711 28.9994C0.428711 13.242 13.1913 0.456872 28.9459 0.428711Z" fill="#0C0C0C"/>
<path d="M44.5456 21.0902L44.5104 26.9435C43.3698 26.9295 42.235 26.7773 41.1311 26.4901C39.4279 26.0452 37.8216 25.2895 36.393 24.2611C36.393 24.8596 36.4014 25.7523 36.4014 26.8379C36.4014 28.2825 36.4014 29.1034 36.393 29.975C36.3676 35.3594 36.5014 36.4013 36.0283 38.5303C35.9299 39.0437 35.7953 39.5495 35.6256 40.044C34.716 42.5784 32.7335 44.6089 30.7129 45.6888C30.1491 45.9886 29.5572 46.2324 28.9458 46.4168C25.1272 47.5742 20.5384 46.5576 18.17 43.7415L18.1545 43.7246L18.1362 43.7007C16.1241 41.2732 15.6848 37.4884 15.6426 36.5196C15.6426 36.3957 15.6341 36.2746 15.6341 36.2746C15.6031 34.9513 15.7935 33.6321 16.1973 32.3715C16.6057 31.0676 17.9504 28.3459 20.9706 26.6928C22.8543 25.6781 25.0042 25.2667 27.1294 25.5143L27.0604 31.438C26.9408 31.407 24.0472 30.7213 22.1478 32.6925C20.4271 34.4779 20.5384 37.3546 21.7591 38.9837C21.8239 39.071 21.8929 39.1555 21.9647 39.2343C22.6476 39.9961 23.5136 40.2819 24.0979 40.4819C24.8727 40.7372 25.6859 40.8563 26.5014 40.8339C27.375 40.8202 28.2249 40.5473 28.943 40.0496C30.9283 38.7007 31.1959 36.2986 31.2057 36.162C31.1813 28.429 31.1583 20.696 31.1367 12.963V12.9559L34.8582 12.8897H34.9188L35.458 12.8799C35.8557 14.311 36.5297 15.6503 37.442 16.8224C37.7294 17.189 38.0398 17.537 38.3713 17.8644C39.6237 19.0833 41.1281 20.0128 42.7785 20.5875H42.7898C43.3623 20.7968 43.9491 20.9648 44.5456 21.0902Z" fill="#FD2854"/>
<path d="M42.8631 23.7392H42.8518C40.8477 24.0603 38.7961 23.9045 36.8634 23.2844C35.5139 22.8456 34.2471 22.1846 33.1152 21.3286C33.7939 25.431 33.7939 29.617 33.1152 33.7194C32.3112 38.5406 31.8071 41.5623 29.1163 43.4955C29.06 43.5364 29.0023 43.5772 28.9445 43.6152C25.2287 46.1314 20.0372 44.8825 18.135 43.6983L18.1068 43.6814L18.0533 43.6476C17.4263 43.2322 16.8381 42.7609 16.296 42.2395C15.3243 41.2969 14.5489 40.1712 14.0146 38.9273C13.4802 37.6834 13.1976 36.346 13.1828 34.9923C13.1467 33.5901 13.3795 32.194 13.8686 30.8794C14.1854 30.0346 15.3625 27.0298 18.6419 25.2007C20.7417 24.0493 23.1682 23.6387 25.53 24.0349C25.5206 24.5042 25.5117 24.9736 25.5033 25.4429V25.4528L25.4484 28.4238C24.4206 28.1816 23.3581 28.1225 22.3098 28.2492C21.465 28.3534 20.6371 28.4505 19.757 29.0039C18.63 29.7294 17.8323 30.8678 17.5351 32.1748C17.3471 32.8078 17.3085 33.4759 17.4225 34.1264C17.4563 34.3122 17.7041 35.6034 18.7461 36.5299C19.0967 36.8411 19.2459 36.8538 19.757 37.3311C20.2076 37.7535 20.3202 37.9563 20.7328 38.3069C20.7328 38.3069 20.8342 38.3928 21.0003 38.5138C21.011 38.5231 21.0223 38.5315 21.0341 38.5392C21.2613 38.7054 21.4999 38.8555 21.748 38.9884C22.7801 39.529 24.6275 39.5868 25.982 38.9292C27.8561 38.0182 28.8784 35.923 28.8741 34.6783C28.8516 26.9425 28.8286 19.2071 28.8052 11.4723H28.9347L34.6823 11.4385C34.6782 11.8868 34.7404 12.3333 34.8668 12.7634C34.8809 12.8099 34.895 12.8536 34.9105 12.9043C34.9259 12.9549 34.9358 12.9789 34.9485 13.0141C35.0376 13.2481 35.1406 13.4766 35.2568 13.6984L35.3371 13.8603V13.873C35.3358 13.8766 35.3358 13.8806 35.3371 13.8843L35.3498 13.911L35.3624 13.9364C35.3701 13.9527 35.3785 13.9687 35.3878 13.9842C35.3962 14.0025 35.4061 14.0208 35.4159 14.0391C35.4694 14.1419 35.5427 14.2771 35.6257 14.4292C35.6778 14.5235 35.7328 14.6178 35.7891 14.7108L35.8496 14.8108C35.8792 14.8614 35.9102 14.9121 35.9411 14.9614L36.0538 15.1402C36.4917 15.8316 37.2605 16.996 38.3503 17.8761C39.8823 19.1123 41.6423 19.4615 42.7462 19.5657C42.7533 19.9121 42.7617 20.2585 42.7688 20.6049C42.8101 21.6506 42.8415 22.6954 42.8631 23.7392Z" fill="#24F6FA"/>
<path d="M42.8812 25.3935C39.9799 25.4999 37.1313 24.5978 34.8201 22.8407V35.2315C34.7919 35.706 34.3766 40.9397 29.6483 43.8206C29.4146 43.9614 29.1795 44.0924 28.9443 44.2134C24.4963 46.4832 20.1496 44.7049 19.7202 44.5204C19.2932 44.3808 18.8839 44.1918 18.5008 43.9572C18.3811 43.8826 18.2643 43.8051 18.153 43.7249L18.0531 43.6502C15.1525 41.448 15.0328 36.962 15.0145 36.3002C14.9835 34.9769 15.1739 33.6577 15.5777 32.3971C16.0564 30.8694 17.4856 28.294 20.351 26.7184C21.9321 25.858 23.7089 25.4214 25.5087 25.4512V25.4611C25.4852 26.9489 25.4617 28.4372 25.4383 29.926C25.1355 29.8443 23.2797 29.3768 21.4662 30.5188C20.3391 31.2442 19.5414 32.3827 19.2443 33.6897C19.0665 34.324 19.0281 34.9893 19.1316 35.6398C19.2924 36.4431 19.6714 37.1866 20.2271 37.7885C20.4607 38.0575 20.7216 38.3015 21.0057 38.5165C21.0164 38.5257 21.0277 38.5342 21.0395 38.5418C21.2626 38.714 21.5017 38.8644 21.7534 38.991L21.7619 38.998C22.265 39.7578 22.9908 40.3435 23.8398 40.6747C24.6888 41.0059 25.6194 41.0665 26.5042 40.8482C26.9164 40.7622 27.3168 40.627 27.6968 40.4455C28.157 40.2266 28.5788 39.9347 28.9457 39.581C30.3707 38.2109 30.5791 36.3157 30.5889 36.2016L30.527 12.9843L31.1465 12.9717L34.868 12.8984H34.9215C34.9356 12.935 34.9511 12.9717 34.9665 13.0083C35.0524 13.2152 35.1552 13.4448 35.2749 13.6926L35.3552 13.8545V13.8672C35.3539 13.8708 35.3539 13.8748 35.3552 13.8784L35.3678 13.9052L35.3805 13.9305C35.3881 13.9469 35.3966 13.9629 35.4058 13.9784C35.4143 13.9967 35.4242 14.015 35.434 14.0333C35.4988 14.1601 35.5748 14.291 35.6438 14.4234C35.6959 14.5177 35.7508 14.612 35.8071 14.705L35.8677 14.8049L35.9592 14.9556L36.0719 15.1344C36.7159 16.1418 37.4879 17.0614 38.3684 17.8703C39.6534 19.0467 41.1485 19.9706 42.7756 20.5934H42.7868C42.8051 21.6368 42.8235 22.683 42.8404 23.7263L42.8812 25.3935Z" fill="white"/>
</svg>
