<svg width="58" height="58" viewBox="0 0 58 58" fill="none" xmlns="http://www.w3.org/2000/svg">
<path d="M0.428711 29.0001C0.428711 13.2206 13.2206 0.428711 29.0001 0.428711C44.7797 0.428711 57.5716 13.2206 57.5716 29.0001C57.5716 44.7797 44.7797 57.5716 29.0001 57.5716C13.2206 57.5716 0.428711 44.7797 0.428711 29.0001Z" fill="#55ACEE"/>
<path d="M28.1444 23.6521L28.2043 24.6408L27.2051 24.5197C23.5678 24.0557 20.3901 22.4819 17.6921 19.8388L16.3731 18.5274L16.0334 19.4958C15.3139 21.6547 15.7736 23.9346 17.2725 25.468C18.0719 26.3154 17.892 26.4365 16.513 25.9321C16.0334 25.7706 15.6137 25.6496 15.5737 25.7101C15.4338 25.8513 15.9135 27.6874 16.2932 28.4137C16.8128 29.4225 17.872 30.4112 19.0311 30.9963L20.0104 31.4603L18.8513 31.4805C17.7321 31.4805 17.6921 31.5007 17.8121 31.9244C18.2118 33.2359 19.7906 34.628 21.5493 35.2333L22.7883 35.657L21.7091 36.3026C20.1103 37.2307 18.2317 37.7553 16.3531 37.7957C15.4538 37.8159 14.7144 37.8966 14.7144 37.9571C14.7144 38.1589 17.1525 39.2887 18.5715 39.7326C22.8283 41.0441 27.8846 40.4791 31.6817 38.2396C34.3797 36.6456 37.0777 33.478 38.3368 30.4112C39.0163 28.7769 39.6958 25.7908 39.6958 24.3583C39.6958 23.4302 39.7557 23.3091 40.8749 22.1994C41.5344 21.5538 42.1539 20.8476 42.2738 20.6459C42.4737 20.2625 42.4537 20.2625 41.4345 20.6055C39.7357 21.2108 39.4959 21.1301 40.3353 20.2222C40.9548 19.5765 41.6943 18.4063 41.6943 18.0633C41.6943 18.0028 41.3945 18.1037 41.0548 18.2853C40.695 18.487 39.8956 18.7897 39.2961 18.9712L38.2169 19.3142L37.2376 18.6484C36.698 18.2853 35.9386 17.8817 35.5389 17.7607C34.5196 17.4782 32.9608 17.5186 32.0415 17.8414C29.5433 18.7493 27.9645 21.0898 28.1444 23.6521Z" fill="white"/>
</svg>
