<svg width="58" height="58" viewBox="0 0 58 58" fill="none" xmlns="http://www.w3.org/2000/svg">
<path d="M0.428711 29.0001C0.428711 13.2206 13.2206 0.428711 29.0001 0.428711C44.7797 0.428711 57.5716 13.2206 57.5716 29.0001C57.5716 44.7797 44.7797 57.5716 29.0001 57.5716C13.2206 57.5716 0.428711 44.7797 0.428711 29.0001Z" fill="#3276C5"/>
<path d="M30.4949 38.3762C30.4949 38.3762 31.0449 38.3162 31.3267 38.0192C31.5845 37.747 31.5756 37.2335 31.5756 37.2335C31.5756 37.2335 31.5413 34.8353 32.6756 34.4813C33.7936 34.133 35.229 36.8004 36.7524 37.826C37.9031 38.6015 38.7766 38.4318 38.7766 38.4318L42.8474 38.3762C42.8474 38.3762 44.976 38.2474 43.9669 36.6043C43.8834 36.4697 43.3781 35.3884 40.941 33.1673C38.3876 30.8424 38.7304 31.2184 41.804 27.1962C43.6762 24.7469 44.4245 23.2515 44.1905 22.6121C43.9684 22.0005 42.5911 22.1629 42.5911 22.1629L38.009 22.1907C38.009 22.1907 37.6691 22.1454 37.4172 22.2931C37.1713 22.438 37.0118 22.776 37.0118 22.776C37.0118 22.776 36.2873 24.6708 35.3199 26.2832C33.2793 29.6836 32.464 29.8635 32.1301 29.6528C31.3535 29.1598 31.5473 27.6746 31.5473 26.6197C31.5473 23.3232 32.057 21.9493 30.556 21.5938C30.0582 21.4752 29.6915 21.3977 28.417 21.3845C26.7818 21.3684 25.3986 21.3904 24.6145 21.7664C24.0928 22.0166 23.6904 22.5755 23.9363 22.6077C24.2389 22.6472 24.9246 22.7892 25.2883 23.2749C25.7578 23.9026 25.7414 25.3102 25.7414 25.3102C25.7414 25.3102 26.0112 29.1905 25.1109 29.6719C24.4938 30.0025 23.6471 29.328 21.8271 26.2422C20.8955 24.662 20.1919 22.915 20.1919 22.915C20.1919 22.915 20.0563 22.5887 19.8133 22.4131C19.5197 22.201 19.1098 22.1351 19.1098 22.1351L14.7557 22.1629C14.7557 22.1629 14.1014 22.1805 13.8614 22.4599C13.6482 22.7072 13.845 23.2208 13.845 23.2208C13.845 23.2208 17.254 31.0502 21.1146 34.9963C24.6548 38.6132 28.6734 38.3762 28.6734 38.3762H30.4949Z" fill="white"/>
</svg>
