<svg width="36" height="36" viewBox="0 0 36 36" fill="none" xmlns="http://www.w3.org/2000/svg">
<path d="M18 36C27.9411 36 36 27.9411 36 18C36 8.05887 27.9411 0 18 0C8.05887 0 0 8.05887 0 18C0 27.9411 8.05887 36 18 36Z" fill="#25D366"/>
<path fill-rule="evenodd" clip-rule="evenodd" d="M18.5931 28.0145H18.5887C16.7973 28.0139 15.0372 27.5644 13.4738 26.7117L7.7998 28.2001L9.31827 22.6537C8.3816 21.0305 7.88874 19.1892 7.88954 17.3028C7.89189 11.4014 12.6934 6.6001 18.593 6.6001C21.4563 6.60133 24.1437 7.716 26.1645 9.73916C28.1852 11.7622 29.2975 14.4513 29.2964 17.3112C29.294 23.2113 24.4944 28.0121 18.5931 28.0145ZM13.7367 24.774L14.0616 24.9668C15.4274 25.7774 16.9932 26.2062 18.5895 26.2069H18.5931C23.4964 26.2069 27.4872 22.2159 27.4892 17.3106C27.4901 14.9335 26.5657 12.6984 24.8861 11.0168C23.2064 9.33527 20.9728 8.40875 18.5966 8.40792C13.6895 8.40792 9.69864 12.3984 9.69669 17.3034C9.696 18.9844 10.1663 20.6214 11.0569 22.0378L11.2684 22.3744L10.3697 25.6573L13.7367 24.774ZM23.6191 19.6156C23.8056 19.7058 23.9316 19.7667 23.9854 19.8564C24.0522 19.968 24.0522 20.5034 23.8295 21.1282C23.6065 21.7529 22.5381 22.3231 22.0242 22.3998C21.5635 22.4687 20.9804 22.4975 20.3398 22.2939C19.9513 22.1706 19.4532 22.0061 18.8151 21.7305C16.3079 20.6479 14.6136 18.2179 14.2933 17.7586C14.2709 17.7264 14.2552 17.7039 14.2465 17.6923L14.2443 17.6894C14.1028 17.5005 13.1544 16.2352 13.1544 14.9257C13.1544 13.6938 13.7596 13.0481 14.0381 12.7509C14.0572 12.7305 14.0747 12.7118 14.0905 12.6946C14.3356 12.4268 14.6254 12.3599 14.8036 12.3599C14.9819 12.3599 15.1604 12.3616 15.3162 12.3694C15.3354 12.3704 15.3554 12.3702 15.3761 12.3701C15.532 12.3692 15.7263 12.3681 15.9179 12.8285C15.9917 13.0057 16.0996 13.2683 16.2134 13.5454C16.4435 14.1057 16.6978 14.7247 16.7425 14.8143C16.8094 14.9481 16.8539 15.1042 16.7648 15.2828C16.7514 15.3096 16.739 15.3349 16.7272 15.359C16.6603 15.4957 16.611 15.5962 16.4974 15.7289C16.4527 15.7811 16.4065 15.8374 16.3603 15.8936C16.2683 16.0056 16.1763 16.1177 16.0962 16.1975C15.9623 16.3308 15.8229 16.4755 15.9789 16.7433C16.135 17.011 16.6717 17.8868 17.4667 18.596C18.3214 19.3583 19.0642 19.6805 19.4407 19.8438C19.5142 19.8757 19.5738 19.9015 19.6175 19.9234C19.8848 20.0573 20.0408 20.0349 20.1968 19.8564C20.3528 19.678 20.8654 19.0755 21.0436 18.8078C21.2219 18.5401 21.4003 18.5847 21.6454 18.6739C21.8906 18.7633 23.2054 19.4102 23.4729 19.544C23.5251 19.5702 23.5739 19.5938 23.6191 19.6156Z" fill="#FDFDFD"/>
</svg>
