<svg width="58" height="58" viewBox="0 0 58 58" fill="none" xmlns="http://www.w3.org/2000/svg">
<path d="M0.428711 29.0001C0.428711 13.2206 13.2206 0.428711 29.0001 0.428711C44.7797 0.428711 57.5716 13.2206 57.5716 29.0001C57.5716 44.7797 44.7797 57.5716 29.0001 57.5716C13.2206 57.5716 0.428711 44.7797 0.428711 29.0001Z" fill="#FF0000"/>
<path d="M43.6015 21.9444C43.251 20.598 42.2183 19.5377 40.907 19.1779C38.5305 18.5239 29.0003 18.5239 29.0003 18.5239C29.0003 18.5239 19.4701 18.5239 17.0935 19.1779C15.7821 19.5377 14.7494 20.598 14.3989 21.9444C13.7622 24.3847 13.7622 29.4763 13.7622 29.4763C13.7622 29.4763 13.7622 34.5678 14.3989 37.0082C14.7494 38.3546 15.7821 39.4149 17.0935 39.7749C19.4701 40.4287 29.0003 40.4287 29.0003 40.4287C29.0003 40.4287 38.5305 40.4287 40.907 39.7749C42.2183 39.4149 43.251 38.3546 43.6015 37.0082C44.2384 34.5678 44.2384 29.4763 44.2384 29.4763C44.2384 29.4763 44.2384 24.3847 43.6015 21.9444Z" fill="white"/>
<path d="M26.1431 34.7142V25.1904L33.7621 29.9525L26.1431 34.7142Z" fill="#FF0000"/>
</svg>
