<?xml version="1.0" standalone="no"?>
<!DOCTYPE svg PUBLIC "-//W3C//DTD SVG 20010904//EN"
 "http://www.w3.org/TR/2001/REC-SVG-20010904/DTD/svg10.dtd">
<svg version="1.0" xmlns="http://www.w3.org/2000/svg"
 width="528.000000pt" height="528.000000pt" viewBox="0 0 528.000000 528.000000"
 preserveAspectRatio="xMidYMid meet">
<metadata>
Created by potrace 1.14, written by Peter Selinger 2001-2017
</metadata>
<g transform="translate(0.000000,528.000000) scale(0.100000,-0.100000)"
fill="#000000" stroke="none">
<path d="M2240 4038 c-82 -42 -91 -65 -167 -433 l-69 -330 -219 -5 c-204 -5
-223 -7 -262 -28 -116 -61 -138 -231 -41 -318 53 -49 76 -54 263 -54 l175 0
-5 -22 c-6 -29 -115 -552 -115 -555 0 -1 -103 -3 -228 -5 l-229 -3 -39 -27
c-105 -73 -119 -211 -30 -303 54 -57 89 -65 279 -65 119 0 157 -3 157 -12 0
-7 -21 -114 -46 -238 -43 -204 -46 -229 -35 -270 48 -179 287 -205 371 -40 9
19 42 153 71 297 l54 263 368 0 c287 0 367 -3 367 -12 0 -7 -21 -112 -46 -232
-52 -246 -52 -278 -3 -346 89 -123 285 -100 342 40 8 19 39 151 68 292 l53
257 221 3 c200 3 224 5 260 24 117 61 141 232 43 320 -53 49 -76 54 -263 54
-96 0 -175 2 -175 5 0 8 111 539 116 557 4 15 29 17 233 20 l228 3 39 27 c126
88 113 276 -23 344 -31 16 -69 20 -214 24 l-176 5 58 275 c32 151 58 292 58
313 2 106 -88 197 -194 197 -81 0 -159 -47 -186 -112 -6 -16 -42 -174 -79
-351 l-67 -322 -370 -3 -371 -2 8 37 c53 237 110 532 110 564 0 140 -160 232
-290 167z m823 -1175 c2 -5 -20 -120 -49 -258 -29 -137 -55 -265 -59 -282 l-6
-33 -369 0 c-204 0 -370 2 -370 4 0 4 107 518 115 554 l5 22 365 0 c200 0 366
-3 368 -7z"/>
</g>
</svg>
