<svg width="94" height="93" viewBox="0 0 94 93" fill="none" xmlns="http://www.w3.org/2000/svg">
<path fill-rule="evenodd" clip-rule="evenodd" d="M50.4923 7.73648C59.1816 8.98321 65.6421 16.4137 65.669 25.192V54.8447H47.7407V62.9743C47.7407 72.2831 46.0316 79.6208 37.583 84.9304C33.9711 87.2092 31.0884 82.6516 34.7003 80.3728C41.4113 76.14 42.3399 70.3633 42.3399 62.9857V54.8447H41.7702V60.7525C41.7702 67.0191 38.9217 72.4655 33.3957 75.5019C25.4598 79.8601 14.402 77.7238 9.77605 69.5885C7.66817 65.8741 12.3625 63.2079 14.476 66.9223C15.4185 68.5599 16.7997 69.9017 18.4639 70.7962C20.5682 71.9248 22.9457 72.4437 25.3288 72.2945C31.8575 71.9413 36.3809 67.4293 36.3809 60.7525V54.8447H35.8625V56.1664C35.9327 59.3987 34.2476 62.4157 31.4587 64.051C29.0635 65.3761 26.1786 65.4735 23.6994 64.3131C20.5826 62.9563 18.173 60.3608 17.0511 57.152L11.1376 38.6995C10.6477 37.1727 8.85884 34.9224 6.94466 35.7656C5.99399 36.2145 5.39123 37.1754 5.40078 38.2267V61.6697C5.40078 65.2531 4.9377e-05 65.5436 4.9377e-05 61.6697V38.2267C-0.0110872 35.0301 1.86242 32.1272 4.77981 30.8206C6.75416 29.9467 9.01158 29.9779 10.961 30.9061C13.3232 31.9602 15.1498 33.9371 16.0142 36.3751L21.8821 54.8333C22.555 56.8209 23.9893 58.4601 25.87 59.3909C26.7865 59.8459 27.8661 59.8311 28.7697 59.351C29.8572 58.6697 30.4913 57.4538 30.4276 56.1721V25.192C30.4287 24.3206 30.4934 23.4505 30.6213 22.5885C30.5642 22.3789 30.5487 22.1602 30.5757 21.9447C31.4359 11.5022 40.5397 -1.13939 53.8877 0.0854537C52.0248 1.09382 50.2359 2.40412 49.5067 4.37527C51.5462 4.17028 53.6022 4.19321 55.6367 4.44364C53.6814 5.11028 51.9164 6.24003 50.4923 7.73648Z" fill="#96CFC3"/>
<path fill-rule="evenodd" clip-rule="evenodd" d="M50.4927 7.73648C59.182 8.98321 65.6425 16.4137 65.6694 25.192V28.7241H67.5779V30.4332H65.6694V55.5568C65.6694 57.1634 65.8061 58.2116 67.3785 59.2314C67.9007 59.5189 68.492 59.6569 69.0876 59.6302C72.3291 59.6302 78.4477 59.6302 81.6836 59.6302C82.6976 59.6302 83.7801 59.6302 84.7884 59.6302C86.0361 59.4878 87.409 58.9921 87.9958 57.8014C88.3867 56.8922 88.3867 55.8622 87.9958 54.953C87.3003 53.3406 86.1626 51.9581 84.7144 50.9651C83.2901 49.9168 81.8032 48.9256 80.3562 47.9058C78.4831 46.6753 76.7166 45.2899 75.0751 43.7641C73.3127 42.1124 72.1857 39.8947 71.8905 37.4974C71.6572 35.3606 72.3558 33.2269 73.8078 31.6419C75.2597 30.0569 77.3241 29.1743 79.4732 29.2198H90.5822C93.9662 29.2198 93.482 34.6205 90.5822 34.6205H79.4732C78.8285 34.5934 78.2042 34.8494 77.7641 35.3212C76.4879 36.7454 77.8153 38.8419 78.9035 39.9244C80.3263 41.2227 81.8503 42.4058 83.461 43.4622C84.9479 44.5047 86.469 45.5188 87.9275 46.5955C90.2239 48.2094 92.0045 50.453 93.0547 53.0559C93.96 55.3436 93.8817 57.9034 92.8382 60.1315C91.3969 63.0655 88.4687 64.615 85.3125 64.9511C84.3099 65.0594 82.9996 65.0024 81.9855 65.0081C78.6471 65.0081 72.426 65.0081 69.0876 65.0081C63.3906 65.0081 60.2345 61.1171 60.2345 55.5341V54.8447H59.7388V60.7525C59.6142 63.6839 60.7604 66.5265 62.8836 68.5516C64.0467 69.647 65.3157 70.6241 66.6721 71.4685C69.8908 73.5593 73.3831 75.4165 75.7872 78.5099C78.1913 81.6034 78.8522 85.3064 78.2996 89.2202C77.7014 93.4531 72.3519 92.6954 72.9501 88.4625C73.2976 86.0242 73.0584 83.8081 71.5145 81.8199C69.6858 79.4613 66.2277 77.6212 63.7324 75.9976C57.9614 72.2376 54.3438 68.1016 54.3438 60.7525V54.8447H53.7741V64.9454C53.7741 72.3173 54.697 78.0998 61.4081 82.3269C65.0199 84.6057 62.143 89.1633 58.5254 86.8845C50.1338 81.6034 48.3677 74.2657 48.3677 64.9454V54.8447H48.043V13.0688C48.3058 11.0858 49.1593 9.22773 50.4927 7.73648Z" fill="#63AD9F"/>
<path fill-rule="evenodd" clip-rule="evenodd" d="M28.4854 26.5194H48.043V35.2016C48.043 38.2096 43.4855 41.0011 39.6457 39.611L28.4854 35.6061V26.5194Z" fill="#4B8496"/>
<path fill-rule="evenodd" clip-rule="evenodd" d="M67.5779 26.5194H48.043V28.7241H67.5779V26.5194ZM48.043 30.4275V35.2016C48.043 38.2096 52.6005 41.0011 56.4403 39.611L67.5779 35.6232V30.4275H48.043Z" fill="#266171"/>
<rect x="28.5078" y="28.7241" width="19.5349" height="1.70339" fill="white"/>
</svg>
