<svg width="50" height="43" viewBox="0 0 50 43" fill="none" xmlns="http://www.w3.org/2000/svg">
<rect x="7.96875" y="7.50439" width="34.4028" height="24.7817" fill="white"/>
<path d="M24.8789 19.5142L24.9247 19.5917L24.8296 19.5935C24.8454 19.5671 24.8613 19.5389 24.8789 19.5142ZM49.7578 5.15859V31.1347C49.7578 33.9791 47.1124 36.2933 43.863 36.2933H32.1738L24.8771 43L17.5822 36.2933H5.89478C2.64358 36.2915 0 33.9791 0 31.133V5.15859C0 2.31423 2.64358 0 5.89478 0H43.8612C47.1124 0 49.7543 2.31247 49.7578 5.15859ZM36.8481 16.0323C36.8481 14.3101 36.1639 12.6584 34.9462 11.4407C33.7284 10.2229 32.0767 9.53873 30.3545 9.53873C29.2618 9.53871 28.1868 9.81496 27.2295 10.3418C26.2721 10.8687 25.4636 11.629 24.8789 12.5522C24.2942 11.629 23.4856 10.8687 22.5283 10.3418C21.571 9.81496 20.496 9.53871 19.4033 9.53873C18.1397 9.54 16.904 9.90987 15.8476 10.603C14.7912 11.2962 13.9599 12.2824 13.4557 13.441C12.9515 14.5996 12.7962 15.8801 13.0089 17.1256C13.2216 18.3711 13.7931 19.5274 14.6533 20.453L24.4122 29.5056L34.5321 20.9972C35.2573 20.389 35.8405 19.6293 36.2406 18.7716C36.6407 17.9138 36.8481 16.9788 36.8481 16.0323Z" fill="#FF725E"/>
</svg>
