<svg width="50" height="44" viewBox="0 0 50 44" fill="none" xmlns="http://www.w3.org/2000/svg">
<path d="M50 5.1837V31.2863C50 34.1445 47.3418 36.47 44.0765 36.47H32.3305L24.9982 43.2093L17.6678 36.47H5.92347C2.65645 36.4682 0 34.1445 0 31.2845V5.1837C0 2.3255 2.65645 0 5.92347 0H44.0748C47.3418 0 49.9965 2.32373 50 5.1837Z" fill="#407BFF"/>
<path d="M30.4653 10.1484C30.4653 12.7211 28.0184 14.8066 25 14.8066C21.9816 14.8066 19.5347 12.7211 19.5347 10.1484C19.5347 7.57577 21.9816 5.49023 25 5.49023C28.0184 5.49023 30.4653 7.57577 30.4653 10.1484Z" fill="white"/>
<path d="M33.5049 28.3418C33.8277 28.3418 34.0902 28.1187 34.0818 27.8436C34.0383 26.4108 33.8069 24.9981 33.3975 23.6708C32.9407 22.1899 32.2712 20.8443 31.4272 19.7109C30.5832 18.5775 29.5811 17.6784 28.4784 17.065C27.3756 16.4516 26.1936 16.1359 25 16.1359C23.8064 16.1359 22.6244 16.4516 21.5216 17.065C20.4189 17.6784 19.4168 18.5775 18.5728 19.7109C17.7288 20.8443 17.0593 22.1899 16.6025 23.6708C16.1931 24.9981 15.9617 26.4108 15.9182 27.8436C15.9098 28.1187 16.1723 28.3418 16.4951 28.3418L33.5049 28.3418Z" fill="white"/>
</svg>
