<svg width="27" height="32" viewBox="0 0 27 32" fill="none" xmlns="http://www.w3.org/2000/svg">
<g clip-path="url(#clip0_1089_8694)">
<path d="M13.4997 17.9086C18.1152 17.9086 21.8569 14.4547 21.8569 10.1943C21.8569 5.93378 18.1152 2.47998 13.4997 2.47998C8.8842 2.47998 5.14258 5.93378 5.14258 10.1943C5.14258 14.4547 8.8842 17.9086 13.4997 17.9086Z" fill="#A4C639" stroke="black" stroke-width="1.32245"/>
<path d="M19.8365 8.26562H7.16299C6.04715 8.26562 5.14258 9.17019 5.14258 10.286V22.9595C5.14258 24.0753 6.04715 24.9799 7.16299 24.9799H19.8365C20.9523 24.9799 21.8569 24.0753 21.8569 22.9595V10.286C21.8569 9.17019 20.9523 8.26562 19.8365 8.26562Z" fill="#A4C639" stroke="black" stroke-width="1.32245"/>
<path d="M7.7916 1.24543C7.63177 0.957084 7.73595 0.593765 8.02429 0.433933C8.31264 0.274101 8.67596 0.378281 8.83579 0.666626L12.086 6.53015C12.2458 6.81849 12.1416 7.18181 11.8533 7.34164C11.565 7.50147 11.2016 7.39729 11.0418 7.10895L7.7916 1.24543Z" fill="#A4C639" stroke="black" stroke-width="0.661224"/>
<path d="M22.2244 12.3979C22.2244 11.1806 23.2112 10.1938 24.4285 10.1938C25.6458 10.1938 26.6326 11.1806 26.6326 12.3979V20.2041C26.6326 21.4213 25.6458 22.4081 24.4285 22.4081C23.2112 22.4081 22.2244 21.4213 22.2244 20.2041V12.3979Z" fill="#A4C639" stroke="black" stroke-width="0.661224"/>
<path d="M14.4183 21.3061C14.4183 20.0889 15.4051 19.1021 16.6223 19.1021C17.8396 19.1021 18.8264 20.0889 18.8264 21.3061V29.1123C18.8264 30.3295 17.8396 31.3163 16.6223 31.3163C15.4051 31.3163 14.4183 30.3295 14.4183 29.1123V21.3061Z" fill="#A4C639" stroke="black" stroke-width="0.661224"/>
<path d="M19.2082 1.24543C19.368 0.957084 19.2638 0.593765 18.9755 0.433933C18.6871 0.274101 18.3238 0.378281 18.164 0.666626L14.9138 6.53015C14.7539 6.81849 14.8581 7.18181 15.1465 7.34164C15.4348 7.50147 15.7981 7.39729 15.958 7.10895L19.2082 1.24543Z" fill="#A4C639" stroke="black" stroke-width="0.661224"/>
<path d="M4.77535 12.3979C4.77535 11.1806 3.78855 10.1938 2.57127 10.1938C1.35399 10.1938 0.367188 11.1806 0.367188 12.3979V20.2041C0.367188 21.4213 1.35399 22.4081 2.57127 22.4081C3.78855 22.4081 4.77535 21.4213 4.77535 20.2041V12.3979Z" fill="#A4C639" stroke="black" stroke-width="0.661224"/>
<path d="M12.5815 21.3061C12.5815 20.0889 11.5947 19.1021 10.3774 19.1021C9.16014 19.1021 8.17334 20.0889 8.17334 21.3061V29.1123C8.17334 30.3295 9.16014 31.3163 10.3774 31.3163C11.5947 31.3163 12.5815 30.3295 12.5815 29.1123V21.3061Z" fill="#A4C639" stroke="black" stroke-width="0.661224"/>
<path d="M13.4997 17.9086C18.1152 17.9086 21.8569 14.4547 21.8569 10.1943C21.8569 5.93378 18.1152 2.47998 13.4997 2.47998C8.8842 2.47998 5.14258 5.93378 5.14258 10.1943C5.14258 14.4547 8.8842 17.9086 13.4997 17.9086Z" fill="#A4C639"/>
<path d="M19.8365 8.26562H7.16299C6.04715 8.26562 5.14258 9.17019 5.14258 10.286V22.9595C5.14258 24.0753 6.04715 24.9799 7.16299 24.9799H19.8365C20.9523 24.9799 21.8569 24.0753 21.8569 22.9595V10.286C21.8569 9.17019 20.9523 8.26562 19.8365 8.26562Z" fill="#A4C639"/>
<path d="M4.77563 10.5151H22.2246H4.77563Z" fill="black"/>
<path d="M4.77563 10.5151H22.2246" stroke="black" stroke-width="0.661224"/>
<path d="M9.64298 6.79573C9.84586 6.79573 10.0103 6.63126 10.0103 6.42838C10.0103 6.2255 9.84586 6.06104 9.64298 6.06104C9.4401 6.06104 9.27563 6.2255 9.27563 6.42838C9.27563 6.63126 9.4401 6.79573 9.64298 6.79573Z" fill="black" stroke="black" stroke-width="0.661224"/>
<path d="M17.3573 6.79573C17.5602 6.79573 17.7247 6.63126 17.7247 6.42838C17.7247 6.2255 17.5602 6.06104 17.3573 6.06104C17.1545 6.06104 16.99 6.2255 16.99 6.42838C16.99 6.63126 17.1545 6.79573 17.3573 6.79573Z" fill="black" stroke="black" stroke-width="0.661224"/>
</g>
<defs>
<clipPath id="clip0_1089_8694">
<rect width="27" height="31.6837" fill="white"/>
</clipPath>
</defs>
</svg>
