<svg width="24" height="30" viewBox="0 0 24 30" fill="none" xmlns="http://www.w3.org/2000/svg">
<path d="M19.8215 15.512C19.7884 11.827 22.8389 10.0342 22.9784 9.9507C21.2507 7.43186 18.573 7.0877 17.632 7.06026C15.383 6.82358 13.2014 8.40601 12.0558 8.40601C10.8873 8.40601 9.12304 7.08313 7.22162 7.122C4.77481 7.15973 2.48579 8.57637 1.23037 10.7762C-1.3605 15.2616 0.571793 21.8532 3.05404 25.4788C4.29574 27.2544 5.74667 29.237 7.64581 29.1673C9.50378 29.0907 10.1978 27.9827 12.4399 27.9827C14.6615 27.9827 15.3132 29.1673 17.2501 29.1227C19.2441 29.0907 20.4995 27.339 21.6978 25.5474C23.1327 23.5122 23.709 21.5079 23.7318 21.405C23.685 21.3889 19.8593 19.9289 19.8215 15.512Z" fill="white"/>
<path d="M16.1628 4.67523C17.1621 3.42553 17.8458 1.72534 17.656 0C16.2096 0.0640286 14.4008 1.00045 13.3592 2.22271C12.4377 3.29976 11.6144 5.06512 11.8271 6.72529C13.4518 6.84648 15.12 5.90549 16.1628 4.67523Z" fill="white"/>
</svg>
