<svg width="155" height="155" viewBox="0 0 155 155" fill="none" xmlns="http://www.w3.org/2000/svg">
<path d="M74.8699 1.79339C76.0089 -0.282454 78.9911 -0.282454 80.1301 1.79339L83.2276 7.4386C84.2203 9.24782 86.7009 9.53776 88.0841 8.00624L92.3999 3.22753C93.987 1.47031 96.8888 2.15805 97.5183 4.44062L99.2305 10.648C99.7792 12.6374 102.126 13.4916 103.825 12.3203L109.127 8.66572C111.076 7.32186 113.741 8.66026 113.827 11.0265L114.062 17.4614C114.137 19.5237 116.224 20.8961 118.147 20.1482L124.148 17.8148C126.355 16.9567 128.64 18.8736 128.178 21.196L126.922 27.5115C126.52 29.5355 128.234 31.3521 130.278 31.068L136.655 30.1815C139.001 29.8555 140.782 32.2476 139.797 34.4008L137.118 40.2565C136.26 42.1331 137.508 44.296 139.563 44.4909L145.973 45.0991C148.331 45.3228 149.512 48.0611 148.057 49.9291L144.1 55.0093C142.832 56.6374 143.548 59.0299 145.502 59.6934L151.6 61.7635C153.842 62.5248 154.36 65.4617 152.513 66.9438L147.492 70.9745C145.882 72.2663 146.027 74.7596 147.776 75.8558L153.231 79.2763C155.238 80.5341 155.064 83.5112 152.926 84.5276L147.11 87.2916C145.246 88.1774 144.812 90.637 146.261 92.1069L150.78 96.6933C152.442 98.3798 151.587 101.237 149.272 101.733L142.975 103.081C140.957 103.513 139.968 105.806 141.039 107.57L144.379 113.076C145.607 115.1 144.116 117.683 141.749 117.631L135.311 117.491C133.248 117.446 131.757 119.449 132.391 121.413L134.372 127.54C135.1 129.793 133.054 131.962 130.762 131.366L124.53 129.745C122.533 129.226 120.62 130.831 120.785 132.888L121.299 139.307C121.488 141.667 118.996 143.306 116.904 142.197L111.214 139.183C109.39 138.217 107.159 139.338 106.845 141.377L105.865 147.741C105.504 150.082 102.702 151.102 100.922 149.54L96.0802 145.295C94.5286 143.935 92.0984 144.511 91.3225 146.423L88.9013 152.389C88.011 154.583 85.049 154.93 83.6767 153L79.9448 147.753C78.7487 146.071 76.2513 146.071 75.0552 147.753L71.3233 153C69.951 154.93 66.989 154.583 66.0987 152.389L63.6775 146.423C62.9016 144.511 60.4714 143.935 58.9198 145.295L54.0783 149.54C52.298 151.102 49.4957 150.082 49.1353 147.741L48.1554 141.377C47.8414 139.338 45.6095 138.217 43.786 139.183L38.096 142.197C36.0036 143.306 33.512 141.667 33.7011 139.307L34.2153 132.888C34.3801 130.831 32.4669 129.226 30.4697 129.745L24.2379 131.366C21.9463 131.962 19.8998 129.793 20.6281 127.54L22.6087 121.413C23.2434 119.449 21.752 117.446 19.6888 117.491L13.2512 117.631C10.884 117.683 9.39287 115.1 10.6211 113.076L13.9613 107.57C15.0317 105.806 14.0425 103.513 12.0246 103.081L5.72818 101.733C3.41288 101.237 2.55757 98.3798 4.21954 96.6933L8.73922 92.1069C10.1877 90.637 9.75404 88.1774 7.89016 87.2916L2.0744 84.5276C-0.0641592 83.5112 -0.237559 80.5341 1.76855 79.2763L7.2241 75.8558C8.97254 74.7596 9.11776 72.2663 7.5084 70.9745L2.48683 66.9438C0.640311 65.4617 1.15816 62.5248 3.40026 61.7635L9.49757 59.6934C11.4517 59.0299 12.168 56.6374 10.8999 55.0093L6.94324 49.9291C5.48831 48.0611 6.66949 45.3228 9.0267 45.0991L15.4371 44.4909C17.4915 44.296 18.7403 42.1331 17.8818 40.2565L15.2034 34.4008C14.2185 32.2476 15.9993 29.8555 18.3446 30.1815L24.7224 31.068C26.7664 31.3521 28.4803 29.5355 28.0778 27.5115L26.822 21.196C26.3602 18.8736 28.6446 16.9567 30.8515 17.8148L36.853 20.1482C38.7764 20.8961 40.863 19.5237 40.9381 17.4614L41.1726 11.0265C41.2588 8.66026 43.9238 7.32185 45.8733 8.66571L51.1749 12.3203C52.8739 13.4916 55.2208 12.6374 55.7695 10.648L57.4817 4.44062C58.1112 2.15805 61.013 1.47031 62.6001 3.22753L66.9159 8.00624C68.2991 9.53776 70.7797 9.24782 71.7724 7.4386L74.8699 1.79339Z" fill="#407BFF"/>
</svg>
