<svg width="235" height="235" viewBox="0 0 235 235" fill="none" xmlns="http://www.w3.org/2000/svg">
<path d="M123.559 3.46098C126.353 -0.593128 132.522 0.0357486 134.44 4.57023L135.692 7.52947C137.633 12.1151 143.516 13.418 147.211 10.0803L149.595 7.92633C153.249 4.62584 159.107 6.6605 159.928 11.5152L160.464 14.6834C161.294 19.5928 166.718 22.2174 171.083 19.8217L173.9 18.2757C178.216 15.9068 183.447 19.2375 183.126 24.1507L182.917 27.3571C182.593 32.3256 187.266 36.1304 192.065 34.8059L195.163 33.9512C199.909 32.6415 204.231 37.0888 202.786 41.7956L201.843 44.8673C200.381 49.6272 204.051 54.4069 209.026 54.2251L212.238 54.1077C217.158 53.9279 220.337 59.252 217.846 63.4986L216.22 66.2701C213.7 70.5646 216.168 76.0618 221.052 77.0323L224.204 77.6587C229.033 78.6184 230.899 84.5322 227.495 88.0898L225.274 90.4115C221.832 94.0092 222.966 99.9274 227.494 101.998L230.416 103.334C234.894 105.382 235.346 111.567 231.213 114.243L228.516 115.99C224.337 118.697 224.076 124.717 228.004 127.776L230.54 129.751C234.424 132.776 233.438 138.898 228.799 140.549L225.772 141.627C221.082 143.297 219.439 149.095 222.556 152.978L224.568 155.483C227.65 159.323 225.279 165.052 220.384 165.59L217.19 165.94C212.241 166.484 209.305 171.746 211.443 176.243L212.823 179.145C214.937 183.592 211.308 188.62 206.421 188.014L203.233 187.619C198.291 187.006 194.221 191.45 195.264 196.319L195.938 199.461C196.969 204.275 192.278 208.331 187.663 206.615L184.652 205.494C179.985 203.759 175 207.144 174.892 212.122L174.822 215.334C174.716 220.257 169.216 223.122 165.121 220.387L162.449 218.603C158.308 215.838 152.677 217.982 151.424 222.801L150.615 225.911C149.377 230.676 143.364 232.195 140.011 228.59L137.822 226.238C134.43 222.592 128.456 223.38 126.126 227.78L124.622 230.62C122.318 234.971 116.117 235.063 113.685 230.781L112.098 227.988C109.639 223.658 103.644 223.047 100.362 226.791L98.2433 229.207C94.9975 232.91 88.943 231.569 87.5639 226.842L86.6639 223.758C85.2692 218.978 79.577 217.001 75.5197 219.887L72.9014 221.75C68.8893 224.604 63.3072 221.903 63.0553 216.985L62.8908 213.776C62.6361 208.804 57.5532 205.567 52.9397 207.44L49.9624 208.649C45.4003 210.5 40.5915 206.585 41.4804 201.742L42.0604 198.582C42.9593 193.684 38.7599 189.363 33.8388 190.121L30.6631 190.611C25.7969 191.36 22.0207 186.441 24.0024 181.934L25.2957 178.993C27.2997 174.435 24.2101 169.261 19.2468 168.864L16.0438 168.608C11.1359 168.215 8.59586 162.558 11.5636 158.63L13.5003 156.066C16.5015 152.093 14.6882 146.346 9.95029 144.815L6.89273 143.827C2.20762 142.313 1.04071 136.223 4.83446 133.084L7.31029 131.036C11.1468 127.863 10.7076 121.853 6.45046 119.27L3.70318 117.604C-0.506525 115.05 -0.237427 108.855 4.17784 106.676L7.05928 105.254C11.5243 103.051 12.4829 97.1016 8.93602 93.6071L6.6471 91.352C3.13975 87.8965 4.83035 81.9301 9.62909 80.8282L12.7608 80.109C17.6136 78.9947 19.9183 73.427 17.2729 69.2087L15.5658 66.4866C12.9499 62.3153 15.9708 56.8997 20.8944 56.9341L24.1075 56.9566C29.0865 56.9914 32.6131 52.1053 31.0118 47.3907L29.9784 44.3482C28.395 39.6861 32.5834 35.1131 37.3663 36.2821L40.4876 37.0449C45.3244 38.227 49.8828 34.2859 49.4119 29.3291L49.108 26.1303C48.6424 21.2288 53.7726 17.745 58.157 19.9854L61.0182 21.4475C65.452 23.7132 70.7964 20.9296 71.4813 15.9978L71.9233 12.8151C72.6007 7.93831 78.3959 5.73152 82.1455 8.92265L84.5924 11.0052C88.3842 14.2323 94.2264 12.7562 96.0303 8.11532L97.1944 5.12039C98.9781 0.531224 105.126 -0.279579 108.039 3.69024L109.939 6.28097C112.885 10.2955 118.91 10.2065 121.735 6.10672L123.559 3.46098Z" stroke="#407BFF"/>
</svg>
