<svg width="60" height="60" viewBox="0 0 60 60" fill="none" xmlns="http://www.w3.org/2000/svg">
<circle cx="30" cy="30" r="30" fill="#407BFF"/>
<path d="M29.7727 29.8596C32.1523 29.8596 34.2129 29.0288 35.8965 27.3898C37.5801 25.7511 38.4336 23.746 38.4336 21.4295C38.4336 19.1139 37.5801 17.1085 35.8962 15.4692C34.2123 13.8307 32.1521 13 29.7727 13C27.3928 13 25.3328 13.8307 23.6492 15.4695C21.9656 17.1082 21.1118 19.1136 21.1118 21.4295C21.1118 23.746 21.9656 25.7514 23.6495 27.3901C25.3334 29.0286 27.3936 29.8596 29.7727 29.8596V29.8596Z" fill="white" fill-opacity="0.61"/>
<path d="M44.9273 39.9131C44.8787 39.2311 44.7805 38.4872 44.636 37.7016C44.49 36.9101 44.3021 36.1619 44.0771 35.4781C43.8448 34.7713 43.5287 34.0733 43.1381 33.4044C42.7326 32.7101 42.2563 32.1055 41.7219 31.6081C41.1631 31.0876 40.4789 30.6692 39.6877 30.364C38.8993 30.0604 38.0255 29.9066 37.0908 29.9066C36.7238 29.9066 36.3688 30.0532 35.6832 30.4876C35.2613 30.7555 34.7677 31.0652 34.2169 31.4078C33.7458 31.6999 33.1077 31.9736 32.3195 32.2214C31.5506 32.4636 30.7698 32.5865 29.9992 32.5865C29.2286 32.5865 28.4481 32.4636 27.6783 32.2214C26.8909 31.9739 26.2528 31.7002 25.7823 31.4081C25.2367 31.0687 24.7429 30.7589 24.3146 30.4874C23.6299 30.0529 23.2746 29.9063 22.9075 29.9063C21.9726 29.9063 21.0991 30.0604 20.3109 30.3643C19.5203 30.6689 18.8358 31.0874 18.2764 31.6083C17.7423 32.1061 17.2658 32.7104 16.8608 33.4044C16.4705 34.0733 16.1544 34.771 15.9218 35.4783C15.6971 36.1622 15.5092 36.9101 15.3632 37.7016C15.2186 38.4861 15.1204 39.2303 15.0719 39.9139C15.0241 40.5836 15 41.2787 15 41.9807C15 43.8077 15.5967 45.2868 16.7733 46.3776C17.9354 47.4539 19.4731 48 21.343 48H38.657C40.5269 48 42.064 47.4542 43.2264 46.3776C44.4033 45.2876 45 43.8082 45 41.9804C44.9997 41.2752 44.9753 40.5796 44.9273 39.9131V39.9131Z" fill="white" fill-opacity="0.61"/>
</svg>
