<?xml version="1.0" encoding="UTF-8" standalone="no"?>
<svg
   width="150"
   height="150"
   viewBox="0 0 150 150"
   fill="none"
   version="1.1"
   id="svg27"
   sodipodi:docname="info-icon.svg"
   inkscape:version="1.2.2 (b0a84865, 2022-12-01)"
   xmlns:inkscape="http://www.inkscape.org/namespaces/inkscape"
   xmlns:sodipodi="http://sodipodi.sourceforge.net/DTD/sodipodi-0.dtd"
   xmlns="http://www.w3.org/2000/svg"
   xmlns:svg="http://www.w3.org/2000/svg">
  <sodipodi:namedview
     id="namedview29"
     pagecolor="#ffffff"
     bordercolor="#000000"
     borderopacity="0.25"
     inkscape:showpageshadow="2"
     inkscape:pageopacity="0.0"
     inkscape:pagecheckerboard="0"
     inkscape:deskcolor="#d1d1d1"
     showgrid="false"
     inkscape:zoom="0.76129032"
     inkscape:cx="154.34322"
     inkscape:cy="155.65678"
     inkscape:window-width="1470"
     inkscape:window-height="809"
     inkscape:window-x="0"
     inkscape:window-y="37"
     inkscape:window-maximized="1"
     inkscape:current-layer="svg27" />
  <rect
     x="38.6633"
     y="22.630966"
     width="72.41909"
     height="104.10244"
     fill="#ffffff"
     id="rect2"
     style="stroke-width:1" />
  <g
     filter="url(#filter0_d_421_201)"
     id="g6"
     transform="matrix(0.48279393,0,0,0.48279393,0.03978499,0)"
     style="stroke-width:2.07128">
    <path
       d="m 201.05,138.75 -13.5,13.8 C 176.75,163.35 170,172.5 170,195 h -30 v -7.5 c 0,-16.65 6.75,-31.65 17.55,-42.45 l 18.6,-18.9 C 181.7,120.75 185,113.25 185,105 185,97.0435 181.839,89.4129 176.213,83.7868 170.587,78.1607 162.956,75 155,75 147.044,75 139.413,78.1607 133.787,83.7868 128.161,89.4129 125,97.0435 125,105 H 95 C 95,89.087 101.321,73.8258 112.574,62.5736 123.826,51.3214 139.087,45 155,45 c 15.913,0 31.174,6.3214 42.426,17.5736 C 208.679,73.8258 215,89.087 215,105 c -0.022,12.649 -5.035,24.777 -13.95,33.75 z M 170,255 h -30 v -30 h 30 M 155,0 C 135.302,0 115.796,3.87987 97.5975,11.4181 79.3986,18.9563 62.8628,30.0052 48.934,43.934 20.8035,72.0644 5,110.218 5,150 c 0,39.782 15.8035,77.936 43.934,106.066 13.9288,13.929 30.4646,24.978 48.6635,32.516 C 115.796,296.12 135.302,300 155,300 194.782,300 232.936,284.196 261.066,256.066 289.196,227.936 305,189.782 305,150 305,67.05 237.5,0 155,0 Z"
       fill="#407bff"
       id="path4"
       style="stroke-width:4.29019" />
  </g>
  <defs
     id="defs25">
    <filter
       id="filter0_d_421_201"
       x="0.076922901"
       y="0"
       width="309.84601"
       height="309.84601"
       filterUnits="userSpaceOnUse"
       color-interpolation-filters="sRGB">
      <feFlood
         flood-opacity="0"
         result="BackgroundImageFix"
         id="feFlood8" />
      <feColorMatrix
         in="SourceAlpha"
         type="matrix"
         values="0 0 0 0 0 0 0 0 0 0 0 0 0 0 0 0 0 0 127 0"
         result="hardAlpha"
         id="feColorMatrix10" />
      <feOffset
         dy="4.92308"
         id="feOffset12" />
      <feGaussianBlur
         stdDeviation="2.46154"
         id="feGaussianBlur14" />
      <feComposite
         in2="hardAlpha"
         operator="out"
         id="feComposite16" />
      <feColorMatrix
         type="matrix"
         values="0 0 0 0 0 0 0 0 0 0 0 0 0 0 0 0 0 0 0.25 0"
         id="feColorMatrix18" />
      <feBlend
         mode="normal"
         in2="BackgroundImageFix"
         result="effect1_dropShadow_421_201"
         id="feBlend20" />
      <feBlend
         mode="normal"
         in="SourceGraphic"
         in2="effect1_dropShadow_421_201"
         result="shape"
         id="feBlend22" />
    </filter>
  </defs>
</svg>
