<svg width="490" height="372" viewBox="0 0 490 372" fill="none" xmlns="http://www.w3.org/2000/svg">
<g filter="url(#filter0_d_574_25344)">
<rect x="20" y="16.5" width="450" height="331.63" rx="19.5652" fill="white"/>
</g>
<path d="M60.6102 61.0242C59.4075 61.0242 58.3002 60.8262 57.2882 60.4302C56.2762 60.0342 55.3962 59.4842 54.6482 58.7802C53.9002 58.0615 53.3209 57.2255 52.9102 56.2722C52.4995 55.3042 52.2942 54.2482 52.2942 53.1042C52.2942 51.9602 52.4995 50.9115 52.9102 49.9582C53.3209 48.9902 53.9002 48.1542 54.6482 47.4502C55.3962 46.7315 56.2762 46.1742 57.2882 45.7782C58.3002 45.3822 59.4002 45.1842 60.5882 45.1842C61.7909 45.1842 62.8909 45.3822 63.8882 45.7782C64.9002 46.1742 65.7802 46.7315 66.5282 47.4502C67.2762 48.1542 67.8555 48.9902 68.2662 49.9582C68.6769 50.9115 68.8822 51.9602 68.8822 53.1042C68.8822 54.2482 68.6769 55.3042 68.2662 56.2722C67.8555 57.2402 67.2762 58.0762 66.5282 58.7802C65.7802 59.4842 64.9002 60.0342 63.8882 60.4302C62.8909 60.8262 61.7982 61.0242 60.6102 61.0242ZM60.5882 58.5162C61.3655 58.5162 62.0842 58.3842 62.7442 58.1202C63.4042 57.8562 63.9762 57.4822 64.4602 56.9982C64.9442 56.4995 65.3182 55.9275 65.5822 55.2822C65.8609 54.6222 66.0002 53.8962 66.0002 53.1042C66.0002 52.3122 65.8609 51.5935 65.5822 50.9482C65.3182 50.2882 64.9442 49.7162 64.4602 49.2322C63.9762 48.7335 63.4042 48.3522 62.7442 48.0882C62.0842 47.8242 61.3655 47.6922 60.5882 47.6922C59.8109 47.6922 59.0922 47.8242 58.4322 48.0882C57.7869 48.3522 57.2149 48.7335 56.7162 49.2322C56.2322 49.7162 55.8509 50.2882 55.5722 50.9482C55.3082 51.5935 55.1762 52.3122 55.1762 53.1042C55.1762 53.8815 55.3082 54.6002 55.5722 55.2602C55.8509 55.9202 56.2322 56.4995 56.7162 56.9982C57.2002 57.4822 57.7722 57.8562 58.4322 58.1202C59.0922 58.3842 59.8109 58.5162 60.5882 58.5162ZM77.3462 61.0242C76.3782 61.0242 75.5129 60.8775 74.7502 60.5842C73.9875 60.2909 73.3275 59.8435 72.7702 59.2422C72.2275 58.6262 71.8095 57.8489 71.5162 56.9102C71.2229 55.9715 71.0762 54.8569 71.0762 53.5662C71.0762 52.6275 71.1569 51.7695 71.3182 50.9922C71.4795 50.2149 71.7215 49.5182 72.0442 48.9022C72.3669 48.2715 72.7702 47.7142 73.2542 47.2302C73.7529 46.7462 74.3322 46.3429 74.9922 46.0202C75.6522 45.6975 76.4002 45.4482 77.2362 45.2722L82.6922 44.1062L83.0882 46.5702L78.1382 47.5822C77.8595 47.6409 77.5222 47.7289 77.1262 47.8462C76.7449 47.9489 76.3489 48.1102 75.9382 48.3302C75.5422 48.5355 75.1682 48.8362 74.8162 49.2322C74.4789 49.6135 74.2002 50.1122 73.9802 50.7282C73.7749 51.3295 73.6722 52.0849 73.6722 52.9942C73.6722 53.2729 73.6795 53.4855 73.6942 53.6322C73.7235 53.7642 73.7455 53.9109 73.7602 54.0722C73.7895 54.2189 73.8042 54.4389 73.8042 54.7322L72.7702 53.6542C73.0635 52.9062 73.4669 52.2682 73.9802 51.7402C74.5082 51.1975 75.1169 50.7869 75.8062 50.5082C76.5102 50.2149 77.2729 50.0682 78.0942 50.0682C79.1942 50.0682 80.1695 50.2955 81.0202 50.7502C81.8709 51.2049 82.5382 51.8429 83.0222 52.6642C83.5062 53.4855 83.7482 54.4169 83.7482 55.4582C83.7482 56.5435 83.4842 57.5042 82.9562 58.3402C82.4282 59.1762 81.6802 59.8362 80.7122 60.3202C79.7589 60.7895 78.6369 61.0242 77.3462 61.0242ZM77.5662 58.8022C78.2262 58.8022 78.8055 58.6629 79.3042 58.3842C79.8175 58.0909 80.2135 57.6949 80.4922 57.1962C80.7855 56.6975 80.9322 56.1402 80.9322 55.5242C80.9322 54.9082 80.7855 54.3729 80.4922 53.9182C80.2135 53.4489 79.8175 53.0749 79.3042 52.7962C78.8055 52.5175 78.2115 52.3782 77.5222 52.3782C76.8622 52.3782 76.2682 52.5102 75.7402 52.7742C75.2269 53.0382 74.8235 53.4049 74.5302 53.8742C74.2515 54.3289 74.1122 54.8569 74.1122 55.4582C74.1122 56.0742 74.2589 56.6389 74.5522 57.1522C74.8455 57.6655 75.2489 58.0689 75.7622 58.3622C76.2902 58.6555 76.8915 58.8022 77.5662 58.8022ZM98.268 60.8042V49.0562H101.018V60.8042H98.268ZM92.13 52.9282C93.6407 52.9282 94.7847 53.2655 95.562 53.9402C96.354 54.6149 96.75 55.5682 96.75 56.8002C96.75 58.0762 96.31 59.0735 95.43 59.7922C94.5647 60.4962 93.3327 60.8409 91.734 60.8262L86.41 60.8042V49.0562H89.16V52.9062L92.13 52.9282ZM91.492 58.8022C92.2987 58.8169 92.9147 58.6482 93.34 58.2962C93.7653 57.9442 93.978 57.4309 93.978 56.7562C93.978 56.0815 93.7653 55.5975 93.34 55.3042C92.9293 54.9962 92.3133 54.8349 91.492 54.8202L89.16 54.7982V58.7802L91.492 58.8022ZM112.129 56.1622C111.571 56.4262 110.977 56.6462 110.347 56.8222C109.731 56.9835 109.078 57.0642 108.389 57.0642C106.907 57.0642 105.756 56.7195 104.935 56.0302C104.113 55.3409 103.703 54.2702 103.703 52.8182V49.0562H106.453V52.6422C106.453 53.4195 106.673 53.9842 107.113 54.3362C107.567 54.6882 108.191 54.8642 108.983 54.8642C109.511 54.8642 110.039 54.7982 110.567 54.6662C111.095 54.5342 111.615 54.3509 112.129 54.1162V56.1622ZM111.931 60.8042V49.0562H114.681V60.8042H111.931ZM118.379 60.8042V49.0562H121.129V53.8302H127.047V49.0562H129.797V60.8042H127.047V56.1622H121.129V60.8042H118.379ZM140.61 60.8042V58.4282L140.456 57.9222V53.7642C140.456 52.9575 140.214 52.3342 139.73 51.8942C139.246 51.4395 138.513 51.2122 137.53 51.2122C136.87 51.2122 136.218 51.3149 135.572 51.5202C134.942 51.7255 134.406 52.0115 133.966 52.3782L132.888 50.3762C133.519 49.8922 134.267 49.5329 135.132 49.2982C136.012 49.0489 136.922 48.9242 137.86 48.9242C139.562 48.9242 140.874 49.3349 141.798 50.1562C142.737 50.9629 143.206 52.2169 143.206 53.9182V60.8042H140.61ZM136.914 60.9582C136.034 60.9582 135.264 60.8115 134.604 60.5182C133.944 60.2102 133.431 59.7922 133.064 59.2642C132.712 58.7215 132.536 58.1129 132.536 57.4382C132.536 56.7782 132.69 56.1842 132.998 55.6562C133.321 55.1282 133.842 54.7102 134.56 54.4022C135.279 54.0942 136.232 53.9402 137.42 53.9402H140.83V55.7662H137.618C136.68 55.7662 136.049 55.9202 135.726 56.2282C135.404 56.5215 135.242 56.8882 135.242 57.3282C135.242 57.8269 135.44 58.2229 135.836 58.5162C136.232 58.8095 136.782 58.9562 137.486 58.9562C138.161 58.9562 138.762 58.8022 139.29 58.4942C139.833 58.1862 140.222 57.7315 140.456 57.1302L140.918 58.7802C140.654 59.4695 140.178 60.0049 139.488 60.3862C138.814 60.7675 137.956 60.9582 136.914 60.9582ZM154.067 60.8042V56.8002L154.463 57.2622H150.943C149.33 57.2622 148.061 56.9249 147.137 56.2502C146.228 55.5609 145.773 54.5709 145.773 53.2802C145.773 51.9015 146.257 50.8529 147.225 50.1342C148.208 49.4155 149.513 49.0562 151.141 49.0562H156.531V60.8042H154.067ZM145.619 60.8042L148.787 56.3162H151.603L148.567 60.8042H145.619ZM154.067 55.9202V50.6402L154.463 51.3662H151.229C150.379 51.3662 149.719 51.5275 149.249 51.8502C148.795 52.1582 148.567 52.6642 148.567 53.3682C148.567 54.6882 149.425 55.3482 151.141 55.3482H154.463L154.067 55.9202ZM166.31 60.8042V49.0562H169.06V53.8302H174.978V49.0562H177.728V60.8042H174.978V56.1622H169.06V60.8042H166.31ZM188.542 60.8042V58.4282L188.388 57.9222V53.7642C188.388 52.9575 188.146 52.3342 187.662 51.8942C187.178 51.4395 186.445 51.2122 185.462 51.2122C184.802 51.2122 184.149 51.3149 183.504 51.5202C182.873 51.7255 182.338 52.0115 181.898 52.3782L180.82 50.3762C181.451 49.8922 182.199 49.5329 183.064 49.2982C183.944 49.0489 184.853 48.9242 185.792 48.9242C187.493 48.9242 188.806 49.3349 189.73 50.1562C190.669 50.9629 191.138 52.2169 191.138 53.9182V60.8042H188.542ZM184.846 60.9582C183.966 60.9582 183.196 60.8115 182.536 60.5182C181.876 60.2102 181.363 59.7922 180.996 59.2642C180.644 58.7215 180.468 58.1129 180.468 57.4382C180.468 56.7782 180.622 56.1842 180.93 55.6562C181.253 55.1282 181.773 54.7102 182.492 54.4022C183.211 54.0942 184.164 53.9402 185.352 53.9402H188.762V55.7662H185.55C184.611 55.7662 183.981 55.9202 183.658 56.2282C183.335 56.5215 183.174 56.8882 183.174 57.3282C183.174 57.8269 183.372 58.2229 183.768 58.5162C184.164 58.8095 184.714 58.9562 185.418 58.9562C186.093 58.9562 186.694 58.8022 187.222 58.4942C187.765 58.1862 188.153 57.7315 188.388 57.1302L188.85 58.7802C188.586 59.4695 188.109 60.0049 187.42 60.3862C186.745 60.7675 185.887 60.9582 184.846 60.9582ZM202.967 60.8042L198.721 55.1722L200.965 53.7862L206.201 60.8042H202.967ZM194.541 60.8042V49.0562H197.291V60.8042H194.541ZM196.477 56.0962V53.8082H200.459V56.0962H196.477ZM201.229 55.2602L198.655 54.9522L202.967 49.0562H205.915L201.229 55.2602ZM214.652 60.9582C213.699 60.9582 212.826 60.7382 212.034 60.2982C211.257 59.8582 210.634 59.1982 210.164 58.3182C209.71 57.4235 209.482 56.2942 209.482 54.9302C209.482 53.5515 209.702 52.4222 210.142 51.5422C210.597 50.6622 211.213 50.0095 211.99 49.5842C212.768 49.1442 213.655 48.9242 214.652 48.9242C215.811 48.9242 216.83 49.1735 217.71 49.6722C218.605 50.1709 219.309 50.8675 219.822 51.7622C220.35 52.6569 220.614 53.7129 220.614 54.9302C220.614 56.1475 220.35 57.2109 219.822 58.1202C219.309 59.0149 218.605 59.7115 217.71 60.2102C216.83 60.7089 215.811 60.9582 214.652 60.9582ZM208.14 65.0722V49.0562H210.758V51.8282L210.67 54.9522L210.89 58.0762V65.0722H208.14ZM214.344 58.6042C215.004 58.6042 215.591 58.4575 216.104 58.1642C216.632 57.8709 217.05 57.4455 217.358 56.8882C217.666 56.3309 217.82 55.6782 217.82 54.9302C217.82 54.1675 217.666 53.5149 217.358 52.9722C217.05 52.4149 216.632 51.9895 216.104 51.6962C215.591 51.4029 215.004 51.2562 214.344 51.2562C213.684 51.2562 213.09 51.4029 212.562 51.6962C212.034 51.9895 211.616 52.4149 211.308 52.9722C211 53.5149 210.846 54.1675 210.846 54.9302C210.846 55.6782 211 56.3309 211.308 56.8882C211.616 57.4455 212.034 57.8709 212.562 58.1642C213.09 58.4575 213.684 58.6042 214.344 58.6042ZM224.085 65.2262C223.513 65.2262 222.941 65.1309 222.369 64.9402C221.797 64.7495 221.32 64.4855 220.939 64.1482L222.039 62.1242C222.318 62.3735 222.633 62.5715 222.985 62.7182C223.337 62.8649 223.696 62.9382 224.063 62.9382C224.562 62.9382 224.965 62.8135 225.273 62.5642C225.581 62.3149 225.867 61.8969 226.131 61.3102L226.813 59.7702L227.033 59.4402L231.477 49.0562H234.117L228.617 61.7502C228.25 62.6302 227.84 63.3269 227.385 63.8402C226.945 64.3535 226.446 64.7129 225.889 64.9182C225.346 65.1235 224.745 65.2262 224.085 65.2262ZM226.505 61.2222L221.203 49.0562H224.063L228.375 59.1982L226.505 61.2222ZM238.491 60.8042V50.7282L239.129 51.3882H234.355V49.0562H245.355V51.3882H240.603L241.241 50.7282V60.8042H238.491ZM255.775 60.8042L251.529 55.1722L253.773 53.7862L259.009 60.8042H255.775ZM247.349 60.8042V49.0562H250.099V60.8042H247.349ZM249.285 56.0962V53.8082H253.267V56.0962H249.285ZM254.037 55.2602L251.463 54.9522L255.775 49.0562H258.723L254.037 55.2602ZM267.862 60.8042V58.4282L267.708 57.9222V53.7642C267.708 52.9575 267.466 52.3342 266.982 51.8942C266.498 51.4395 265.765 51.2122 264.782 51.2122C264.122 51.2122 263.47 51.3149 262.824 51.5202C262.194 51.7255 261.658 52.0115 261.218 52.3782L260.14 50.3762C260.771 49.8922 261.519 49.5329 262.384 49.2982C263.264 49.0489 264.174 48.9242 265.112 48.9242C266.814 48.9242 268.126 49.3349 269.05 50.1562C269.989 50.9629 270.458 52.2169 270.458 53.9182V60.8042H267.862ZM264.166 60.9582C263.286 60.9582 262.516 60.8115 261.856 60.5182C261.196 60.2102 260.683 59.7922 260.316 59.2642C259.964 58.7215 259.788 58.1129 259.788 57.4382C259.788 56.7782 259.942 56.1842 260.25 55.6562C260.573 55.1282 261.094 54.7102 261.812 54.4022C262.531 54.0942 263.484 53.9402 264.672 53.9402H268.082V55.7662H264.87C263.932 55.7662 263.301 55.9202 262.978 56.2282C262.656 56.5215 262.494 56.8882 262.494 57.3282C262.494 57.8269 262.692 58.2229 263.088 58.5162C263.484 58.8095 264.034 58.9562 264.738 58.9562C265.413 58.9562 266.014 58.8022 266.542 58.4942C267.085 58.1862 267.474 57.7315 267.708 57.1302L268.17 58.7802C267.906 59.4695 267.43 60.0049 266.74 60.3862C266.066 60.7675 265.208 60.9582 264.166 60.9582Z" fill="#1A142D" fill-opacity="0.9"/>
<line x1="51.7933" y1="84" x2="51.7933" y2="316.826" stroke="#FF3D00" stroke-width="0.978261"/>
<line x1="438.696" y1="317.315" x2="51.3043" y2="317.315" stroke="#FF3D00" stroke-width="0.978261"/>
<path d="M52.2832 303.641C97.0772 302.176 115.99 152.744 141.871 151.767C167.752 150.79 197.117 329.034 250.87 280.689C304.623 232.343 278.244 103.91 332.992 116.118C387.74 128.327 346.43 226.971 394.708 260.178C427.208 282.533 437.083 288.013 438.507 288.025V287.525C438.743 287.835 438.775 288.027 438.507 288.025V316.826H52.2832V303.641Z" fill="url(#paint0_linear_574_25344)"/>
<path d="M52.2832 304.109C97.0772 302.64 115.99 152.837 141.871 151.857C167.752 150.878 197.117 329.565 250.87 281.1C304.623 232.634 278.244 103.881 332.992 116.12C387.74 128.359 346.43 227.249 394.708 260.538C433.331 287.17 440 289.912 438.507 287.953" stroke="#FF3D00" stroke-width="0.978261"/>
<line x1="67.25" y1="314" x2="67.25" y2="320" stroke="#FF3D00" stroke-width="0.5"/>
<line x1="79.25" y1="314" x2="79.25" y2="320" stroke="#FF3D00" stroke-width="0.5"/>
<line x1="91.25" y1="314" x2="91.25" y2="320" stroke="#FF3D00" stroke-width="0.5"/>
<line x1="103.25" y1="314" x2="103.25" y2="320" stroke="#FF3D00" stroke-width="0.5"/>
<line x1="115.25" y1="314" x2="115.25" y2="320" stroke="#FF3D00" stroke-width="0.5"/>
<line x1="127.25" y1="314" x2="127.25" y2="320" stroke="#FF3D00" stroke-width="0.5"/>
<line x1="139.25" y1="314" x2="139.25" y2="320" stroke="#FF3D00" stroke-width="0.5"/>
<line x1="151.25" y1="314" x2="151.25" y2="320" stroke="#FF3D00" stroke-width="0.5"/>
<line x1="163.25" y1="314" x2="163.25" y2="320" stroke="#FF3D00" stroke-width="0.5"/>
<line x1="175.25" y1="314" x2="175.25" y2="320" stroke="#FF3D00" stroke-width="0.5"/>
<line x1="187.25" y1="314" x2="187.25" y2="320" stroke="#FF3D00" stroke-width="0.5"/>
<line x1="199.25" y1="314" x2="199.25" y2="320" stroke="#FF3D00" stroke-width="0.5"/>
<line x1="211.25" y1="314" x2="211.25" y2="320" stroke="#FF3D00" stroke-width="0.5"/>
<line x1="223.25" y1="314" x2="223.25" y2="320" stroke="#FF3D00" stroke-width="0.5"/>
<line x1="235.25" y1="314" x2="235.25" y2="320" stroke="#FF3D00" stroke-width="0.5"/>
<line x1="247.25" y1="314" x2="247.25" y2="320" stroke="#FF3D00" stroke-width="0.5"/>
<line x1="259.25" y1="314" x2="259.25" y2="320" stroke="#FF3D00" stroke-width="0.5"/>
<line x1="271.25" y1="314" x2="271.25" y2="320" stroke="#FF3D00" stroke-width="0.5"/>
<line x1="283.25" y1="314" x2="283.25" y2="320" stroke="#FF3D00" stroke-width="0.5"/>
<line x1="295.25" y1="314" x2="295.25" y2="320" stroke="#FF3D00" stroke-width="0.5"/>
<line x1="307.25" y1="314" x2="307.25" y2="320" stroke="#FF3D00" stroke-width="0.5"/>
<line x1="319.25" y1="314" x2="319.25" y2="320" stroke="#FF3D00" stroke-width="0.5"/>
<line x1="331.25" y1="314" x2="331.25" y2="320" stroke="#FF3D00" stroke-width="0.5"/>
<line x1="343.25" y1="314" x2="343.25" y2="320" stroke="#FF3D00" stroke-width="0.5"/>
<line x1="355.25" y1="314" x2="355.25" y2="320" stroke="#FF3D00" stroke-width="0.5"/>
<line x1="367.25" y1="314" x2="367.25" y2="320" stroke="#FF3D00" stroke-width="0.5"/>
<line x1="379.25" y1="314" x2="379.25" y2="320" stroke="#FF3D00" stroke-width="0.5"/>
<line x1="391.25" y1="314" x2="391.25" y2="320" stroke="#FF3D00" stroke-width="0.5"/>
<line x1="403.25" y1="314" x2="403.25" y2="320" stroke="#FF3D00" stroke-width="0.5"/>
<line x1="415.25" y1="314" x2="415.25" y2="320" stroke="#FF3D00" stroke-width="0.5"/>
<line x1="427.25" y1="314" x2="427.25" y2="320" stroke="#FF3D00" stroke-width="0.5"/>
<line x1="49" y1="96.75" x2="55" y2="96.75" stroke="#FF3D00" stroke-width="0.5"/>
<line x1="49" y1="108.75" x2="55" y2="108.75" stroke="#FF3D00" stroke-width="0.5"/>
<line x1="49" y1="120.75" x2="55" y2="120.75" stroke="#FF3D00" stroke-width="0.5"/>
<line x1="49" y1="132.75" x2="55" y2="132.75" stroke="#FF3D00" stroke-width="0.5"/>
<line x1="49" y1="144.75" x2="55" y2="144.75" stroke="#FF3D00" stroke-width="0.5"/>
<line x1="49" y1="156.75" x2="55" y2="156.75" stroke="#FF3D00" stroke-width="0.5"/>
<line x1="49" y1="168.75" x2="55" y2="168.75" stroke="#FF3D00" stroke-width="0.5"/>
<line x1="49" y1="180.75" x2="55" y2="180.75" stroke="#FF3D00" stroke-width="0.5"/>
<line x1="49" y1="192.75" x2="55" y2="192.75" stroke="#FF3D00" stroke-width="0.5"/>
<line x1="49" y1="204.75" x2="55" y2="204.75" stroke="#FF3D00" stroke-width="0.5"/>
<line x1="49" y1="216.75" x2="55" y2="216.75" stroke="#FF3D00" stroke-width="0.5"/>
<line x1="49" y1="228.75" x2="55" y2="228.75" stroke="#FF3D00" stroke-width="0.5"/>
<line x1="49" y1="240.75" x2="55" y2="240.75" stroke="#FF3D00" stroke-width="0.5"/>
<line x1="49" y1="252.75" x2="55" y2="252.75" stroke="#FF3D00" stroke-width="0.5"/>
<line x1="49" y1="264.75" x2="55" y2="264.75" stroke="#FF3D00" stroke-width="0.5"/>
<line x1="49" y1="276.75" x2="55" y2="276.75" stroke="#FF3D00" stroke-width="0.5"/>
<line x1="49" y1="288.75" x2="55" y2="288.75" stroke="#FF3D00" stroke-width="0.5"/>
<line x1="49" y1="300.75" x2="55" y2="300.75" stroke="#FF3D00" stroke-width="0.5"/>
<path d="M234 280L228.804 264.25L239.196 264.25L234 280Z" fill="#FFD6D6"/>
<rect x="211" y="242" width="46" height="25" rx="5" fill="#FFD6D6"/>
<path d="M223.032 256.24H219.576V255.052H223.032V256.24ZM224.277 259V257.776H226.221V252.028H225.933L224.265 253.156V251.752L225.945 250.6H227.613V257.776H229.401V259H224.277ZM231.316 251.524C231.9 250.796 232.672 250.432 233.632 250.432C234.592 250.432 235.364 250.796 235.948 251.524C236.532 252.252 236.824 253.344 236.824 254.8C236.824 256.256 236.532 257.348 235.948 258.076C235.364 258.796 234.592 259.156 233.632 259.156C232.672 259.156 231.9 258.796 231.316 258.076C230.732 257.348 230.44 256.256 230.44 254.8C230.44 253.344 230.732 252.252 231.316 251.524ZM232.264 257.056C232.544 257.624 233 257.908 233.632 257.908C234.264 257.908 234.72 257.624 235 257.056C235.28 256.488 235.42 255.736 235.42 254.8C235.42 252.72 234.824 251.68 233.632 251.68C232.44 251.68 231.844 252.72 231.844 254.8C231.844 255.736 231.984 256.488 232.264 257.056ZM240.721 259H239.653L244.741 250.6H245.797L240.721 259ZM238.465 251.08C238.809 250.648 239.293 250.432 239.917 250.432C240.541 250.432 241.025 250.648 241.369 251.08C241.713 251.504 241.885 252.044 241.885 252.7C241.885 253.372 241.713 253.92 241.369 254.344C241.025 254.76 240.541 254.968 239.917 254.968C239.285 254.968 238.801 254.76 238.465 254.344C238.129 253.92 237.961 253.372 237.961 252.7C237.961 252.044 238.129 251.504 238.465 251.08ZM239.173 253.72C239.341 253.968 239.589 254.092 239.917 254.092C240.245 254.092 240.493 253.968 240.661 253.72C240.829 253.464 240.913 253.124 240.913 252.7C240.913 252.276 240.829 251.94 240.661 251.692C240.493 251.436 240.245 251.308 239.917 251.308C239.597 251.308 239.353 251.436 239.185 251.692C239.017 251.94 238.933 252.276 238.933 252.7C238.933 253.124 239.013 253.464 239.173 253.72ZM244.069 255.268C244.413 254.836 244.897 254.62 245.521 254.62C246.145 254.62 246.629 254.836 246.973 255.268C247.317 255.692 247.489 256.232 247.489 256.888C247.489 257.56 247.317 258.108 246.973 258.532C246.629 258.948 246.145 259.156 245.521 259.156C244.897 259.156 244.413 258.948 244.069 258.532C243.725 258.108 243.553 257.56 243.553 256.888C243.553 256.232 243.725 255.692 244.069 255.268ZM244.777 257.908C244.945 258.156 245.193 258.28 245.521 258.28C245.849 258.28 246.097 258.156 246.265 257.908C246.433 257.652 246.517 257.312 246.517 256.888C246.517 256.472 246.433 256.136 246.265 255.88C246.097 255.624 245.849 255.496 245.521 255.496C245.193 255.496 244.945 255.624 244.777 255.88C244.609 256.128 244.525 256.464 244.525 256.888C244.525 257.312 244.609 257.652 244.777 257.908Z" fill="#D84242"/>
<defs>
<filter id="filter0_d_574_25344" x="0.434786" y="0.847829" width="489.13" height="370.761" filterUnits="userSpaceOnUse" color-interpolation-filters="sRGB">
<feFlood flood-opacity="0" result="BackgroundImageFix"/>
<feColorMatrix in="SourceAlpha" type="matrix" values="0 0 0 0 0 0 0 0 0 0 0 0 0 0 0 0 0 0 127 0" result="hardAlpha"/>
<feOffset dy="3.91304"/>
<feGaussianBlur stdDeviation="9.78261"/>
<feComposite in2="hardAlpha" operator="out"/>
<feColorMatrix type="matrix" values="0 0 0 0 0.697188 0 0 0 0 0.72474 0 0 0 0 0.8625 0 0 0 0.43 0"/>
<feBlend mode="normal" in2="BackgroundImageFix" result="effect1_dropShadow_574_25344"/>
<feBlend mode="normal" in="SourceGraphic" in2="effect1_dropShadow_574_25344" result="shape"/>
</filter>
<linearGradient id="paint0_linear_574_25344" x1="245.49" y1="115.304" x2="245.49" y2="316.826" gradientUnits="userSpaceOnUse">
<stop stop-color="#FF3D00" stop-opacity="0.32"/>
<stop offset="1" stop-color="#FF3D00" stop-opacity="0"/>
</linearGradient>
</defs>
</svg>
