<svg width="625" height="474" viewBox="0 0 625 474" fill="none" xmlns="http://www.w3.org/2000/svg">
<g filter="url(#filter0_d_574_25266)">
<rect x="25" y="20" width="575" height="423.75" rx="25" fill="white"/>
</g>
<path d="M82.7 62H86.6V83H82.7V62ZM71.84 83H67.94V62H71.84V83ZM83 74H71.51V70.67H83V74ZM101.791 83V79.76L101.581 79.07V73.4C101.581 72.3 101.251 71.45 100.591 70.85C99.9308 70.23 98.9308 69.92 97.5908 69.92C96.6908 69.92 95.8008 70.06 94.9208 70.34C94.0608 70.62 93.3308 71.01 92.7308 71.51L91.2608 68.78C92.1208 68.12 93.1408 67.63 94.3208 67.31C95.5208 66.97 96.7608 66.8 98.0408 66.8C100.361 66.8 102.151 67.36 103.411 68.48C104.691 69.58 105.331 71.29 105.331 73.61V83H101.791ZM96.7508 83.21C95.5508 83.21 94.5008 83.01 93.6008 82.61C92.7008 82.19 92.0008 81.62 91.5008 80.9C91.0208 80.16 90.7808 79.33 90.7808 78.41C90.7808 77.51 90.9908 76.7 91.4108 75.98C91.8508 75.26 92.5608 74.69 93.5408 74.27C94.5208 73.85 95.8208 73.64 97.4408 73.64H102.091V76.13H97.7108C96.4308 76.13 95.5708 76.34 95.1308 76.76C94.6908 77.16 94.4708 77.66 94.4708 78.26C94.4708 78.94 94.7408 79.48 95.2808 79.88C95.8208 80.28 96.5708 80.48 97.5308 80.48C98.4508 80.48 99.2708 80.27 99.9908 79.85C100.731 79.43 101.261 78.81 101.581 77.99L102.211 80.24C101.851 81.18 101.201 81.91 100.261 82.43C99.3408 82.95 98.1708 83.21 96.7508 83.21ZM120.741 79.82L119.931 80.72V66.98H123.681V80.72L122.781 79.82H130.701L129.831 80.72V66.98H133.581V83H109.971V66.98H113.721V80.72L112.851 79.82H120.741ZM148.344 83V79.76L148.134 79.07V73.4C148.134 72.3 147.804 71.45 147.144 70.85C146.484 70.23 145.484 69.92 144.144 69.92C143.244 69.92 142.354 70.06 141.474 70.34C140.614 70.62 139.884 71.01 139.284 71.51L137.814 68.78C138.674 68.12 139.694 67.63 140.874 67.31C142.074 66.97 143.314 66.8 144.594 66.8C146.914 66.8 148.704 67.36 149.964 68.48C151.244 69.58 151.884 71.29 151.884 73.61V83H148.344ZM143.304 83.21C142.104 83.21 141.054 83.01 140.154 82.61C139.254 82.19 138.554 81.62 138.054 80.9C137.574 80.16 137.334 79.33 137.334 78.41C137.334 77.51 137.544 76.7 137.964 75.98C138.404 75.26 139.114 74.69 140.094 74.27C141.074 73.85 142.374 73.64 143.994 73.64H148.644V76.13H144.264C142.984 76.13 142.124 76.34 141.684 76.76C141.244 77.16 141.024 77.66 141.024 78.26C141.024 78.94 141.294 79.48 141.834 79.88C142.374 80.28 143.124 80.48 144.084 80.48C145.004 80.48 145.824 80.27 146.544 79.85C147.284 79.43 147.814 78.81 148.134 77.99L148.764 80.24C148.404 81.18 147.754 81.91 146.814 82.43C145.894 82.95 144.724 83.21 143.304 83.21ZM164.815 83V66.98H168.565V73.49H176.635V66.98H180.385V83H176.635V76.67H168.565V83H164.815ZM195.131 83V79.76L194.921 79.07V73.4C194.921 72.3 194.591 71.45 193.931 70.85C193.271 70.23 192.271 69.92 190.931 69.92C190.031 69.92 189.141 70.06 188.261 70.34C187.401 70.62 186.671 71.01 186.071 71.51L184.601 68.78C185.461 68.12 186.481 67.63 187.661 67.31C188.861 66.97 190.101 66.8 191.381 66.8C193.701 66.8 195.491 67.36 196.751 68.48C198.031 69.58 198.671 71.29 198.671 73.61V83H195.131ZM190.091 83.21C188.891 83.21 187.841 83.01 186.941 82.61C186.041 82.19 185.341 81.62 184.841 80.9C184.361 80.16 184.121 79.33 184.121 78.41C184.121 77.51 184.331 76.7 184.751 75.98C185.191 75.26 185.901 74.69 186.881 74.27C187.861 73.85 189.161 73.64 190.781 73.64H195.431V76.13H191.051C189.771 76.13 188.911 76.34 188.471 76.76C188.031 77.16 187.811 77.66 187.811 78.26C187.811 78.94 188.081 79.48 188.621 79.88C189.161 80.28 189.911 80.48 190.871 80.48C191.791 80.48 192.611 80.27 193.331 79.85C194.071 79.43 194.601 78.81 194.921 77.99L195.551 80.24C195.191 81.18 194.541 81.91 193.601 82.43C192.681 82.95 191.511 83.21 190.091 83.21ZM214.801 83L209.011 75.32L212.071 73.43L219.211 83H214.801ZM203.311 83V66.98H207.061V83H203.311ZM205.951 76.58V73.46H211.381V76.58H205.951ZM212.431 75.44L208.921 75.02L214.801 66.98H218.821L212.431 75.44ZM230.736 83.21C229.436 83.21 228.246 82.91 227.166 82.31C226.106 81.71 225.256 80.81 224.616 79.61C223.996 78.39 223.686 76.85 223.686 74.99C223.686 73.11 223.986 71.57 224.586 70.37C225.206 69.17 226.046 68.28 227.106 67.7C228.166 67.1 229.376 66.8 230.736 66.8C232.316 66.8 233.706 67.14 234.906 67.82C236.126 68.5 237.086 69.45 237.786 70.67C238.506 71.89 238.866 73.33 238.866 74.99C238.866 76.65 238.506 78.1 237.786 79.34C237.086 80.56 236.126 81.51 234.906 82.19C233.706 82.87 232.316 83.21 230.736 83.21ZM221.856 88.82V66.98H225.426V70.76L225.306 75.02L225.606 79.28V88.82H221.856ZM230.316 80C231.216 80 232.016 79.8 232.716 79.4C233.436 79 234.006 78.42 234.426 77.66C234.846 76.9 235.056 76.01 235.056 74.99C235.056 73.95 234.846 73.06 234.426 72.32C234.006 71.56 233.436 70.98 232.716 70.58C232.016 70.18 231.216 69.98 230.316 69.98C229.416 69.98 228.606 70.18 227.886 70.58C227.166 70.98 226.596 71.56 226.176 72.32C225.756 73.06 225.546 73.95 225.546 74.99C225.546 76.01 225.756 76.9 226.176 77.66C226.596 78.42 227.166 79 227.886 79.4C228.606 79.8 229.416 80 230.316 80ZM243.599 89.03C242.819 89.03 242.039 88.9 241.259 88.64C240.479 88.38 239.829 88.02 239.309 87.56L240.809 84.8C241.189 85.14 241.619 85.41 242.099 85.61C242.579 85.81 243.069 85.91 243.569 85.91C244.249 85.91 244.799 85.74 245.219 85.4C245.639 85.06 246.029 84.49 246.389 83.69L247.319 81.59L247.619 81.14L253.679 66.98H257.279L249.779 84.29C249.279 85.49 248.719 86.44 248.099 87.14C247.499 87.84 246.819 88.33 246.059 88.61C245.319 88.89 244.499 89.03 243.599 89.03ZM246.899 83.57L239.669 66.98H243.569L249.449 80.81L246.899 83.57ZM263.243 83V69.26L264.113 70.16H257.603V66.98H272.603V70.16H266.123L266.993 69.26V83H263.243ZM286.813 83L281.023 75.32L284.083 73.43L291.223 83H286.813ZM275.323 83V66.98H279.073V83H275.323ZM277.963 76.58V73.46H283.393V76.58H277.963ZM284.443 75.44L280.933 75.02L286.813 66.98H290.833L284.443 75.44ZM303.295 83V79.76L303.085 79.07V73.4C303.085 72.3 302.755 71.45 302.095 70.85C301.435 70.23 300.435 69.92 299.095 69.92C298.195 69.92 297.305 70.06 296.425 70.34C295.565 70.62 294.835 71.01 294.235 71.51L292.765 68.78C293.625 68.12 294.645 67.63 295.825 67.31C297.025 66.97 298.265 66.8 299.545 66.8C301.865 66.8 303.655 67.36 304.915 68.48C306.195 69.58 306.835 71.29 306.835 73.61V83H303.295ZM298.255 83.21C297.055 83.21 296.005 83.01 295.105 82.61C294.205 82.19 293.505 81.62 293.005 80.9C292.525 80.16 292.285 79.33 292.285 78.41C292.285 77.51 292.495 76.7 292.915 75.98C293.355 75.26 294.065 74.69 295.045 74.27C296.025 73.85 297.325 73.64 298.945 73.64H303.595V76.13H299.215C297.935 76.13 297.075 76.34 296.635 76.76C296.195 77.16 295.975 77.66 295.975 78.26C295.975 78.94 296.245 79.48 296.785 79.88C297.325 80.28 298.075 80.48 299.035 80.48C299.955 80.48 300.775 80.27 301.495 79.85C302.235 79.43 302.765 78.81 303.085 77.99L303.715 80.24C303.355 81.18 302.705 81.91 301.765 82.43C300.845 82.95 299.675 83.21 298.255 83.21Z" fill="#1A142D" fill-opacity="0.9"/>
<line x1="65.625" y1="106.25" x2="65.625" y2="403.75" stroke="#407BFF" stroke-width="1.25"/>
<line x1="560" y1="404.375" x2="65" y2="404.375" stroke="#407BFF" stroke-width="1.25"/>
<path d="M84.3998 378.438C81.2708 380.077 73.0102 383.357 65 383.357V403.75H553.75V106.25L533.724 110.622L516.202 115.542L496.802 127.019L478.028 130.299L459.254 139.044L440.48 144.509L421.706 148.882L403.558 171.291L384.784 174.57L366.01 182.222L347.236 187.141L328.462 200.259L309.062 209.004L289.662 236.332L272.14 240.704L252.74 256.555L233.34 266.939L215.192 276.231L197.67 284.976C194.541 286.069 179.521 303.012 178.896 303.012C178.27 303.012 161.373 328.154 160.122 328.701C158.87 329.247 142.599 333.62 141.348 333.62C140.346 333.62 128.414 347.102 122.574 353.843C116.524 358.033 104.3 366.304 103.8 365.867C103.299 365.43 90.6578 374.065 84.3998 378.438Z" fill="url(#paint0_linear_574_25266)"/>
<path d="M65 383.75C73.0102 383.75 81.2708 380.466 84.3998 378.824C90.6578 374.445 103.299 365.797 103.8 366.235C104.3 366.673 116.524 358.39 122.574 354.194C128.414 347.443 140.346 333.942 141.348 333.942C142.599 333.942 158.87 329.564 160.122 329.016C161.373 328.469 178.27 303.291 178.896 303.291C179.521 303.291 194.541 286.324 197.67 285.229L215.192 276.472L233.34 267.167L252.74 256.768L272.14 240.895L289.662 236.516L309.062 209.149L328.462 200.392L347.236 187.256L366.01 182.33L384.784 174.667L403.558 171.383L421.706 148.942L440.48 144.564L459.254 139.09L478.028 130.333L496.802 127.049L516.202 115.555L533.724 110.629L553.75 106.25" stroke="#407BFF" stroke-width="1.25"/>
<line x1="63" y1="114.75" x2="69" y2="114.75" stroke="#407BFF" stroke-width="0.5"/>
<line x1="63" y1="126.75" x2="69" y2="126.75" stroke="#407BFF" stroke-width="0.5"/>
<line x1="63" y1="138.75" x2="69" y2="138.75" stroke="#407BFF" stroke-width="0.5"/>
<line x1="63" y1="150.75" x2="69" y2="150.75" stroke="#407BFF" stroke-width="0.5"/>
<line x1="63" y1="162.75" x2="69" y2="162.75" stroke="#407BFF" stroke-width="0.5"/>
<line x1="63" y1="174.75" x2="69" y2="174.75" stroke="#407BFF" stroke-width="0.5"/>
<line x1="63" y1="186.75" x2="69" y2="186.75" stroke="#407BFF" stroke-width="0.5"/>
<line x1="63" y1="198.75" x2="69" y2="198.75" stroke="#407BFF" stroke-width="0.5"/>
<line x1="63" y1="210.75" x2="69" y2="210.75" stroke="#407BFF" stroke-width="0.5"/>
<line x1="63" y1="222.75" x2="69" y2="222.75" stroke="#407BFF" stroke-width="0.5"/>
<line x1="63" y1="234.75" x2="69" y2="234.75" stroke="#407BFF" stroke-width="0.5"/>
<line x1="63" y1="246.75" x2="69" y2="246.75" stroke="#407BFF" stroke-width="0.5"/>
<line x1="63" y1="258.75" x2="69" y2="258.75" stroke="#407BFF" stroke-width="0.5"/>
<line x1="63" y1="270.75" x2="69" y2="270.75" stroke="#407BFF" stroke-width="0.5"/>
<line x1="63" y1="282.75" x2="69" y2="282.75" stroke="#407BFF" stroke-width="0.5"/>
<line x1="63" y1="294.75" x2="69" y2="294.75" stroke="#407BFF" stroke-width="0.5"/>
<line x1="63" y1="306.75" x2="69" y2="306.75" stroke="#407BFF" stroke-width="0.5"/>
<line x1="63" y1="318.75" x2="69" y2="318.75" stroke="#407BFF" stroke-width="0.5"/>
<line x1="63" y1="330.75" x2="69" y2="330.75" stroke="#407BFF" stroke-width="0.5"/>
<line x1="63" y1="342.75" x2="69" y2="342.75" stroke="#407BFF" stroke-width="0.5"/>
<line x1="63" y1="354.75" x2="69" y2="354.75" stroke="#407BFF" stroke-width="0.5"/>
<line x1="63" y1="366.75" x2="69" y2="366.75" stroke="#407BFF" stroke-width="0.5"/>
<line x1="63" y1="378.75" x2="69" y2="378.75" stroke="#407BFF" stroke-width="0.5"/>
<line x1="63" y1="390.75" x2="69" y2="390.75" stroke="#407BFF" stroke-width="0.5"/>
<line x1="76.75" y1="407" x2="76.75" y2="401" stroke="#407BFF" stroke-width="0.5"/>
<line x1="88.75" y1="407" x2="88.75" y2="401" stroke="#407BFF" stroke-width="0.5"/>
<line x1="100.75" y1="407" x2="100.75" y2="401" stroke="#407BFF" stroke-width="0.5"/>
<line x1="112.75" y1="407" x2="112.75" y2="401" stroke="#407BFF" stroke-width="0.5"/>
<line x1="124.75" y1="407" x2="124.75" y2="401" stroke="#407BFF" stroke-width="0.5"/>
<line x1="136.75" y1="407" x2="136.75" y2="401" stroke="#407BFF" stroke-width="0.5"/>
<line x1="148.75" y1="407" x2="148.75" y2="401" stroke="#407BFF" stroke-width="0.5"/>
<line x1="160.75" y1="407" x2="160.75" y2="401" stroke="#407BFF" stroke-width="0.5"/>
<line x1="172.75" y1="407" x2="172.75" y2="401" stroke="#407BFF" stroke-width="0.5"/>
<line x1="184.75" y1="407" x2="184.75" y2="401" stroke="#407BFF" stroke-width="0.5"/>
<line x1="196.75" y1="407" x2="196.75" y2="401" stroke="#407BFF" stroke-width="0.5"/>
<line x1="208.75" y1="407" x2="208.75" y2="401" stroke="#407BFF" stroke-width="0.5"/>
<line x1="220.75" y1="407" x2="220.75" y2="401" stroke="#407BFF" stroke-width="0.5"/>
<line x1="232.75" y1="407" x2="232.75" y2="401" stroke="#407BFF" stroke-width="0.5"/>
<line x1="244.75" y1="407" x2="244.75" y2="401" stroke="#407BFF" stroke-width="0.5"/>
<line x1="256.75" y1="407" x2="256.75" y2="401" stroke="#407BFF" stroke-width="0.5"/>
<line x1="268.75" y1="407" x2="268.75" y2="401" stroke="#407BFF" stroke-width="0.5"/>
<line x1="280.75" y1="407" x2="280.75" y2="401" stroke="#407BFF" stroke-width="0.5"/>
<line x1="292.75" y1="407" x2="292.75" y2="401" stroke="#407BFF" stroke-width="0.5"/>
<line x1="304.75" y1="407" x2="304.75" y2="401" stroke="#407BFF" stroke-width="0.5"/>
<line x1="316.75" y1="407" x2="316.75" y2="401" stroke="#407BFF" stroke-width="0.5"/>
<line x1="328.75" y1="407" x2="328.75" y2="401" stroke="#407BFF" stroke-width="0.5"/>
<line x1="340.75" y1="407" x2="340.75" y2="401" stroke="#407BFF" stroke-width="0.5"/>
<line x1="352.75" y1="407" x2="352.75" y2="401" stroke="#407BFF" stroke-width="0.5"/>
<line x1="364.75" y1="407" x2="364.75" y2="401" stroke="#407BFF" stroke-width="0.5"/>
<line x1="376.75" y1="407" x2="376.75" y2="401" stroke="#407BFF" stroke-width="0.5"/>
<line x1="388.75" y1="407" x2="388.75" y2="401" stroke="#407BFF" stroke-width="0.5"/>
<line x1="400.75" y1="407" x2="400.75" y2="401" stroke="#407BFF" stroke-width="0.5"/>
<line x1="412.75" y1="407" x2="412.75" y2="401" stroke="#407BFF" stroke-width="0.5"/>
<line x1="424.75" y1="407" x2="424.75" y2="401" stroke="#407BFF" stroke-width="0.5"/>
<line x1="436.75" y1="407" x2="436.75" y2="401" stroke="#407BFF" stroke-width="0.5"/>
<line x1="448.75" y1="407" x2="448.75" y2="401" stroke="#407BFF" stroke-width="0.5"/>
<line x1="460.75" y1="407" x2="460.75" y2="401" stroke="#407BFF" stroke-width="0.5"/>
<line x1="472.75" y1="407" x2="472.75" y2="401" stroke="#407BFF" stroke-width="0.5"/>
<line x1="484.75" y1="407" x2="484.75" y2="401" stroke="#407BFF" stroke-width="0.5"/>
<line x1="496.75" y1="407" x2="496.75" y2="401" stroke="#407BFF" stroke-width="0.5"/>
<line x1="508.75" y1="407" x2="508.75" y2="401" stroke="#407BFF" stroke-width="0.5"/>
<line x1="520.75" y1="407" x2="520.75" y2="401" stroke="#407BFF" stroke-width="0.5"/>
<line x1="532.75" y1="407" x2="532.75" y2="401" stroke="#407BFF" stroke-width="0.5"/>
<line x1="544.75" y1="407" x2="544.75" y2="401" stroke="#407BFF" stroke-width="0.5"/>
<line x1="556.75" y1="407" x2="556.75" y2="401" stroke="#407BFF" stroke-width="0.5"/>
<path d="M310 201L304.804 185.25L315.196 185.25L310 201Z" fill="#D8E4FF"/>
<rect x="282" y="163" width="56" height="25" rx="5" fill="#D8E4FF"/>
<path d="M293.48 175.98V173.496H294.644V175.98H297.14V177.132H294.644V179.616H293.48V177.132H290.996V175.98H293.48ZM298.805 180V178.776H300.749V173.028H300.461L298.793 174.156V172.752L300.473 171.6H302.141V178.776H303.929V180H298.805ZM308.364 174.312C309.156 174.312 309.804 174.576 310.308 175.104C310.812 175.632 311.064 176.308 311.064 177.132C311.064 178.036 310.784 178.768 310.224 179.328C309.672 179.88 308.952 180.156 308.064 180.156C307.144 180.156 306.416 179.916 305.88 179.436C305.344 178.948 305.052 178.316 305.004 177.54H306.396C306.452 177.988 306.62 178.328 306.9 178.56C307.18 178.792 307.552 178.908 308.016 178.908C308.52 178.908 308.92 178.752 309.216 178.44C309.512 178.128 309.66 177.704 309.66 177.168C309.66 176.64 309.512 176.22 309.216 175.908C308.92 175.596 308.528 175.44 308.04 175.44C307.376 175.44 306.876 175.676 306.54 176.148H305.196L305.568 171.6H310.572V172.788H306.672L306.516 174.84H306.804C307.244 174.488 307.764 174.312 308.364 174.312ZM313.168 172.524C313.752 171.796 314.524 171.432 315.484 171.432C316.444 171.432 317.216 171.796 317.8 172.524C318.384 173.252 318.676 174.344 318.676 175.8C318.676 177.256 318.384 178.348 317.8 179.076C317.216 179.796 316.444 180.156 315.484 180.156C314.524 180.156 313.752 179.796 313.168 179.076C312.584 178.348 312.292 177.256 312.292 175.8C312.292 174.344 312.584 173.252 313.168 172.524ZM314.116 178.056C314.396 178.624 314.852 178.908 315.484 178.908C316.116 178.908 316.572 178.624 316.852 178.056C317.132 177.488 317.272 176.736 317.272 175.8C317.272 173.72 316.676 172.68 315.484 172.68C314.292 172.68 313.696 173.72 313.696 175.8C313.696 176.736 313.836 177.488 314.116 178.056ZM322.573 180H321.505L326.593 171.6H327.649L322.573 180ZM320.317 172.08C320.661 171.648 321.145 171.432 321.769 171.432C322.393 171.432 322.877 171.648 323.221 172.08C323.565 172.504 323.737 173.044 323.737 173.7C323.737 174.372 323.565 174.92 323.221 175.344C322.877 175.76 322.393 175.968 321.769 175.968C321.137 175.968 320.653 175.76 320.317 175.344C319.981 174.92 319.813 174.372 319.813 173.7C319.813 173.044 319.981 172.504 320.317 172.08ZM321.025 174.72C321.193 174.968 321.441 175.092 321.769 175.092C322.097 175.092 322.345 174.968 322.513 174.72C322.681 174.464 322.765 174.124 322.765 173.7C322.765 173.276 322.681 172.94 322.513 172.692C322.345 172.436 322.097 172.308 321.769 172.308C321.449 172.308 321.205 172.436 321.037 172.692C320.869 172.94 320.785 173.276 320.785 173.7C320.785 174.124 320.865 174.464 321.025 174.72ZM325.921 176.268C326.265 175.836 326.749 175.62 327.373 175.62C327.997 175.62 328.481 175.836 328.825 176.268C329.169 176.692 329.341 177.232 329.341 177.888C329.341 178.56 329.169 179.108 328.825 179.532C328.481 179.948 327.997 180.156 327.373 180.156C326.749 180.156 326.265 179.948 325.921 179.532C325.577 179.108 325.405 178.56 325.405 177.888C325.405 177.232 325.577 176.692 325.921 176.268ZM326.629 178.908C326.797 179.156 327.045 179.28 327.373 179.28C327.701 179.28 327.949 179.156 328.117 178.908C328.285 178.652 328.369 178.312 328.369 177.888C328.369 177.472 328.285 177.136 328.117 176.88C327.949 176.624 327.701 176.496 327.373 176.496C327.045 176.496 326.797 176.624 326.629 176.88C326.461 177.128 326.377 177.464 326.377 177.888C326.377 178.312 326.461 178.652 326.629 178.908Z" fill="#1E5CE8"/>
<defs>
<filter id="filter0_d_574_25266" x="3.8147e-06" y="2.86102e-06" width="625" height="473.75" filterUnits="userSpaceOnUse" color-interpolation-filters="sRGB">
<feFlood flood-opacity="0" result="BackgroundImageFix"/>
<feColorMatrix in="SourceAlpha" type="matrix" values="0 0 0 0 0 0 0 0 0 0 0 0 0 0 0 0 0 0 127 0" result="hardAlpha"/>
<feOffset dy="5"/>
<feGaussianBlur stdDeviation="12.5"/>
<feComposite in2="hardAlpha" operator="out"/>
<feColorMatrix type="matrix" values="0 0 0 0 0.697188 0 0 0 0 0.72474 0 0 0 0 0.8625 0 0 0 0.43 0"/>
<feBlend mode="normal" in2="BackgroundImageFix" result="effect1_dropShadow_574_25266"/>
<feBlend mode="normal" in="SourceGraphic" in2="effect1_dropShadow_574_25266" result="shape"/>
</filter>
<linearGradient id="paint0_linear_574_25266" x1="260.625" y1="249.002" x2="304.046" y2="405.403" gradientUnits="userSpaceOnUse">
<stop stop-color="#407BFF" stop-opacity="0.32"/>
<stop offset="1" stop-color="#407BFF" stop-opacity="0"/>
</linearGradient>
</defs>
</svg>
