<svg width="35" height="30" viewBox="0 0 35 30" fill="none" xmlns="http://www.w3.org/2000/svg">
<path d="M17.3573 13.6146L17.3893 13.6686L17.3229 13.6699C17.334 13.6514 17.345 13.6318 17.3573 13.6146ZM34.7147 3.59901V21.7219C34.7147 23.7063 32.8691 25.3209 30.602 25.3209H22.4468L17.3561 30L12.2666 25.3209H4.11263C1.84435 25.3196 0 23.7063 0 21.7206V3.59901C0 1.61458 1.84435 0 4.11263 0H30.6008C32.8691 0 34.7122 1.61335 34.7147 3.59901ZM25.7079 11.1853C25.7079 9.98378 25.2306 8.83145 24.381 7.98184C23.5314 7.13222 22.3791 6.65491 21.1775 6.65491C20.4152 6.6549 19.6652 6.84764 18.9973 7.21521C18.3294 7.58278 17.7652 8.11325 17.3573 8.75731C16.9494 8.11325 16.3853 7.58278 15.7174 7.21521C15.0495 6.84764 14.2995 6.6549 13.5371 6.65491C12.6556 6.6558 11.7935 6.91385 11.0564 7.39744C10.3194 7.88102 9.73945 8.56913 9.38767 9.37743C9.03589 10.1857 8.92756 11.0791 9.07598 11.948C9.22439 12.817 9.62309 13.6238 10.2232 14.2695L17.0317 20.5853L24.0921 14.6492C24.5981 14.2249 25.005 13.6948 25.2841 13.0964C25.5633 12.498 25.7079 11.8457 25.7079 11.1853Z" fill="#F4F4FC"/>
</svg>
