<svg width="32" height="33" viewBox="0 0 32 33" fill="none" xmlns="http://www.w3.org/2000/svg">
<path d="M29.4567 9.48368H26.0843L27.3664 3.32834C27.617 2.12443 26.8425 0.94579 25.6363 0.6955C24.4309 0.44553 23.2492 1.21846 22.9982 2.42216L21.5275 9.48357H13.3201L14.6021 3.32823C14.8528 2.12433 14.0783 0.945683 12.872 0.695394C11.6667 0.445424 10.4847 1.21836 10.234 2.42205L8.7632 9.48346H4.48745C3.25552 9.48346 2.25676 10.4803 2.25676 11.7097C2.25676 12.9392 3.25552 13.936 4.48745 13.936H7.83579L6.50634 20.3188H2.23069C0.998766 20.3188 0 21.3156 0 22.5451C0 23.7746 0.998766 24.7714 2.23069 24.7714H5.57892L4.57535 29.5898C4.32467 30.7937 5.09914 31.9723 6.30544 32.2226C6.45849 32.2544 6.61134 32.2695 6.76172 32.2695C7.79648 32.2695 8.72443 31.5469 8.9435 30.4959L10.1358 24.7713H18.3433L17.3397 29.5897C17.089 30.7936 17.8636 31.9722 19.0698 32.2225C19.2229 32.2543 19.3756 32.2694 19.5261 32.2694C20.5608 32.2694 21.4888 31.5468 21.7079 30.4958L22.9002 24.7712H27.1999C28.4319 24.7712 29.4306 23.7744 29.4306 22.5449C29.4306 21.3154 28.4319 20.3186 27.1999 20.3186H23.8276L25.157 13.9358H29.4568C30.6887 13.9358 31.6875 12.939 31.6875 11.7095C31.6874 10.4805 30.6887 9.48368 29.4567 9.48368ZM19.2707 20.319H11.0633L12.3928 13.9362H20.6001L19.2707 20.319Z" fill="#407BFF"/>
</svg>
