<?xml version="1.0" encoding="UTF-8" standalone="no"?>
<!-- Created with Inkscape (http://www.inkscape.org/) -->

<svg
   width="210mm"
   height="37.492001mm"
   viewBox="0 0 210 37.492001"
   version="1.1"
   id="svg5"
   sodipodi:docname="menu-reg-bg19.svg"
   inkscape:version="1.2.2 (b0a84865, 2022-12-01)"
   xmlns:inkscape="http://www.inkscape.org/namespaces/inkscape"
   xmlns:sodipodi="http://sodipodi.sourceforge.net/DTD/sodipodi-0.dtd"
   xmlns="http://www.w3.org/2000/svg"
   xmlns:svg="http://www.w3.org/2000/svg">
  <sodipodi:namedview
     id="namedview7"
     pagecolor="#ffffff"
     bordercolor="#000000"
     borderopacity="0.25"
     inkscape:showpageshadow="2"
     inkscape:pageopacity="0.0"
     inkscape:pagecheckerboard="0"
     inkscape:deskcolor="#d1d1d1"
     inkscape:document-units="mm"
     showgrid="false"
     showguides="true"
     inkscape:zoom="0.97963369"
     inkscape:cx="381.26496"
     inkscape:cy="88.298311"
     inkscape:window-width="1470"
     inkscape:window-height="815"
     inkscape:window-x="0"
     inkscape:window-y="37"
     inkscape:window-maximized="1"
     inkscape:current-layer="layer1" />
  <defs
     id="defs2">
    <filter
       style="color-interpolation-filters:sRGB;"
       inkscape:label="Drop Shadow"
       id="filter12507"
       x="-2.1326851e-05"
       y="-0.00012022962"
       width="1.0022709"
       height="1.1467906">
      <feFlood
         flood-opacity="0.2"
         flood-color="rgb(16,16,16)"
         result="flood"
         id="feFlood12497" />
      <feComposite
         in="flood"
         in2="SourceGraphic"
         operator="in"
         result="composite1"
         id="feComposite12499" />
      <feGaussianBlur
         in="composite1"
         stdDeviation="0.0018635747"
         result="blur"
         id="feGaussianBlur12501" />
      <feOffset
         dx="0.46729"
         dy="5.45171"
         result="offset"
         id="feOffset12503" />
      <feComposite
         in="SourceGraphic"
         in2="offset"
         operator="over"
         result="composite2"
         id="feComposite12505" />
    </filter>
    <filter
       inkscape:collect="always"
       style="color-interpolation-filters:sRGB"
       id="filter4014"
       x="-0.01031983"
       y="-0.05740593"
       width="1.0206397"
       height="1.1148119">
      <feGaussianBlur
         inkscape:collect="always"
         stdDeviation="0.90197456"
         id="feGaussianBlur4016" />
    </filter>
  </defs>
  <g
     inkscape:label="Слой 1"
     inkscape:groupmode="layer"
     id="layer1">
    <path
       id="rect4779"
       style="opacity:1;mix-blend-mode:normal;fill:#ffffff;fill-opacity:1;stroke:none;stroke-width:1;stroke-linecap:round;stroke-dasharray:none;stroke-opacity:1"
       d="M -4.4111525,48.659671 V 86.165499 H 205.58958 V 48.659671 h -89.10561 a 17.244062,17.3621 0 0 1 1.34955,6.728303 17.244062,17.3621 0 0 1 -17.24405,17.362081 17.244062,17.3621 0 0 1 -17.244037,-17.362081 17.244062,17.3621 0 0 1 1.358866,-6.728303 z" />
    <path
       id="path4012"
       style="mix-blend-mode:normal;fill:#666666;stroke-width:1.07176;stroke-linecap:round;filter:url(#filter4014)"
       d="M 0.38757324,0 V 37.709326 H 210.15255 V 0 H 125.06523 A 20.343876,20.343876 0 0 1 125.34377,3.3434652 20.343876,20.343876 0 0 1 104.99979,23.687443 20.343876,20.343876 0 0 1 84.656331,3.3434652 20.343876,20.343876 0 0 1 84.942102,0 Z"
       transform="matrix(0.97729268,0,0,0.89078122,2.1203169,2.4644093)" />
    <path
       id="rect349"
       style="fill:#ffffff;stroke-width:1;stroke-linecap:round"
       d="M 0.38757324 0 L 0.38757324 37.709326 L 210.15255 37.709326 L 210.15255 0 L 125.06523 0 A 20.343876 20.343876 0 0 1 125.34377 3.3434652 A 20.343876 20.343876 0 0 1 104.99979 23.687443 A 20.343876 20.343876 0 0 1 84.656331 3.3434652 A 20.343876 20.343876 0 0 1 84.942102 0 L 0.38757324 0 z " />
  </g>
</svg>
