<?xml version="1.0" encoding="UTF-8" standalone="no"?>
<!-- Created with Inkscape (http://www.inkscape.org/) -->

<svg
   width="210mm"
   height="37.492001mm"
   viewBox="0 0 210 37.492001"
   version="1.1"
   id="svg5"
   sodipodi:docname="menu-reg-bg18.svg"
   inkscape:version="1.2.2 (b0a84865, 2022-12-01)"
   xmlns:inkscape="http://www.inkscape.org/namespaces/inkscape"
   xmlns:sodipodi="http://sodipodi.sourceforge.net/DTD/sodipodi-0.dtd"
   xmlns="http://www.w3.org/2000/svg"
   xmlns:svg="http://www.w3.org/2000/svg">
  <sodipodi:namedview
     id="namedview7"
     pagecolor="#ffffff"
     bordercolor="#000000"
     borderopacity="0.25"
     inkscape:showpageshadow="2"
     inkscape:pageopacity="0.0"
     inkscape:pagecheckerboard="0"
     inkscape:deskcolor="#d1d1d1"
     inkscape:document-units="mm"
     showgrid="false"
     showguides="true"
     inkscape:zoom="0.97963369"
     inkscape:cx="413.93023"
     inkscape:cy="-38.279614"
     inkscape:window-width="1470"
     inkscape:window-height="815"
     inkscape:window-x="0"
     inkscape:window-y="37"
     inkscape:window-maximized="1"
     inkscape:current-layer="layer1" />
  <defs
     id="defs2">
    <filter
       style="color-interpolation-filters:sRGB;"
       inkscape:label="Drop Shadow"
       id="filter12507"
       x="-2.1326851e-05"
       y="-0.00012022962"
       width="1.0022709"
       height="1.1467906">
      <feFlood
         flood-opacity="0.2"
         flood-color="rgb(16,16,16)"
         result="flood"
         id="feFlood12497" />
      <feComposite
         in="flood"
         in2="SourceGraphic"
         operator="in"
         result="composite1"
         id="feComposite12499" />
      <feGaussianBlur
         in="composite1"
         stdDeviation="0.0018635747"
         result="blur"
         id="feGaussianBlur12501" />
      <feOffset
         dx="0.46729"
         dy="5.45171"
         result="offset"
         id="feOffset12503" />
      <feComposite
         in="SourceGraphic"
         in2="offset"
         operator="over"
         result="composite2"
         id="feComposite12505" />
    </filter>
    <filter
       inkscape:collect="always"
       style="color-interpolation-filters:sRGB"
       id="filter1064"
       x="-0.0098012465"
       y="-0.054380855"
       width="1.0196025"
       height="1.1087617">
      <feGaussianBlur
         inkscape:collect="always"
         stdDeviation="0.85444388"
         id="feGaussianBlur1066" />
    </filter>
  </defs>
  <g
     inkscape:label="Слой 1"
     inkscape:groupmode="layer"
     id="layer1">
    <path
       id="rect4779"
       style="opacity:1;mix-blend-mode:normal;fill:#ffffff;fill-opacity:1;stroke:none;stroke-width:1;stroke-linecap:round;stroke-dasharray:none;stroke-opacity:1"
       d="M -4.4111525,48.659671 V 86.165499 H 205.58958 V 48.659671 h -89.10561 a 17.244062,17.3621 0 0 1 1.34955,6.728303 17.244062,17.3621 0 0 1 -17.24405,17.362081 17.244062,17.3621 0 0 1 -17.244037,-17.362081 17.244062,17.3621 0 0 1 1.358866,-6.728303 z" />
    <path
       id="path507"
       style="mix-blend-mode:normal;fill:#4d4d4d;fill-opacity:0.42268;stroke-width:1.07616;stroke-linecap:round;filter:url(#filter1064)"
       d="M 0.38757324,0 V 37.709326 H 209.61253 V 0 H 128.26142 A 23.314798,23.314798 0 0 1 104.99979,21.895821 23.314798,23.314798 0 0 1 81.73868,0 Z"
       transform="matrix(0.9771913,0,0,0.88362544,2.3949155,2.599678)" />
    <path
       id="rect349"
       style="fill:#ffffff;stroke-width:1;stroke-linecap:round"
       d="M 0.38757324 0 L 0.38757324 37.709326 L 209.61253 37.709326 L 209.61253 0 L 128.26142 0 A 23.314798 23.314798 0 0 1 104.99979 21.895821 A 23.314798 23.314798 0 0 1 81.73868 0 L 0.38757324 0 z " />
  </g>
</svg>
