<svg width="300" height="120" viewBox="0 0 300 120" fill="none" xmlns="http://www.w3.org/2000/svg">
<g clip-path="url(#clip0_574_28930)">
<rect width="300" height="120" rx="10" fill="#F2F2FC"/>
<g filter="url(#filter0_d_574_28930)">
<path d="M69.9562 -0.674805H275V66.6374H267.233V84.2424L249.629 66.6374H69.9562V-0.674805Z" fill="white"/>
</g>
<path d="M183.048 22.1199H89.809V24.9494H183.048V22.1199Z" fill="#9999C5"/>
<path d="M252.178 31.908H89.6709V34.7375H252.178V31.908Z" fill="#9999C5"/>
<path d="M252.179 41.696H89.8303V44.5256H252.179V41.696Z" fill="#9999C5"/>
<g filter="url(#filter1_d_574_28930)">
<path d="M32.7703 28.741H160.085V70.5362H155.263V81.4673L144.332 70.5362H32.7703V28.741Z" fill="white"/>
<path d="M102.99 42.8943H45.097V44.6512H102.99V42.8943Z" fill="#9999C5"/>
<path d="M145.915 48.9719H45.0114V50.7288H145.915V48.9719Z" fill="#9999C5"/>
<path d="M145.915 55.0498H45.1104V56.8067H145.915V55.0498Z" fill="#9999C5"/>
</g>
<g filter="url(#filter2_d_574_28930)">
<path d="M129.343 74.2522H256.657V116.047H251.835V126.979L240.904 116.047H129.343V74.2522Z" fill="white"/>
</g>
<path d="M199.563 88.4058H141.67V90.1627H199.563V88.4058Z" fill="#9999C5"/>
<path d="M242.487 94.4829H141.584V96.2398H242.487V94.4829Z" fill="#9999C5"/>
<path d="M242.487 100.561H141.683V102.318H242.487V100.561Z" fill="#9999C5"/>
<g filter="url(#filter3_d_574_28930)">
<path d="M189.501 86.4624H62.186V128.258H67.0086V139.189L77.9395 128.258H189.501V86.4624Z" fill="white"/>
</g>
<path d="M119.281 100.616H177.174V102.373H119.281V100.616Z" fill="#9999C5"/>
<path d="M76.3563 106.693H177.26V108.45H76.3563V106.693Z" fill="#9999C5"/>
<path d="M76.3561 112.771H177.161V114.528H76.3561V112.771Z" fill="#9999C5"/>
<g filter="url(#filter4_d_574_28930)">
<path d="M131.008 0.990234H48.8657V27.956H51.9772V35.0087L59.0297 27.956H131.008V0.990234Z" fill="white"/>
</g>
<path d="M85.7024 10.1218H123.055V11.2554H85.7024V10.1218Z" fill="#9999C5"/>
<path d="M58.0082 14.0432H123.11V15.1768H58.0082V14.0432Z" fill="#9999C5"/>
<path d="M58.0081 17.9646H123.046V19.0981H58.0081V17.9646Z" fill="#9999C5"/>
<g filter="url(#filter5_d_574_28930)">
<path d="M107.142 63.1519H25V90.1176H28.1115V97.1703L35.164 90.1176H107.142V63.1519Z" fill="white"/>
</g>
<path d="M61.8368 72.2832H99.189V73.4167H61.8368V72.2832Z" fill="#9999C5"/>
<path d="M34.1425 76.2048H99.2442V77.3384H34.1425V76.2048Z" fill="#9999C5"/>
<path d="M34.1425 80.126H99.1805V81.2595H34.1425V80.126Z" fill="#9999C5"/>
<g filter="url(#filter6_d_574_28930)">
<path d="M160.424 -9H242.566V17.9658H239.454V25.0185L232.402 17.9658H160.424V-9Z" fill="white"/>
</g>
<path d="M205.729 0.131348H168.377V1.26489H205.729V0.131348Z" fill="#9999C5"/>
<path d="M233.423 4.05273H168.321V5.18628H233.423V4.05273Z" fill="#9999C5"/>
<path d="M233.423 7.97437H168.385V9.10791H233.423V7.97437Z" fill="#9999C5"/>
<path d="M150.076 96.1519C170 96.1519 186.152 80.0001 186.152 60.0759C186.152 40.1517 170 24 150.076 24C130.152 24 114 40.1517 114 60.0759C114 80.0001 130.152 96.1519 150.076 96.1519Z" fill="#407BFF"/>
<path d="M150.026 72.6629C152.873 72.6629 155.18 70.3555 155.18 67.5092C155.18 64.6629 152.873 62.3555 150.026 62.3555C147.18 62.3555 144.873 64.6629 144.873 67.5092C144.873 70.3555 147.18 72.6629 150.026 72.6629Z" fill="#132F6D"/>
<path d="M150.026 69.8876C151.34 69.8876 152.405 68.8227 152.405 67.509C152.405 66.1953 151.34 65.1304 150.026 65.1304C148.713 65.1304 147.648 66.1953 147.648 67.509C147.648 68.8227 148.713 69.8876 150.026 69.8876Z" fill="#407BFF"/>
<path d="M159.593 78.9815H140.559C138.674 78.9794 136.867 78.2298 135.534 76.8972C134.202 75.5645 133.452 73.7576 133.45 71.8728V63.1457C133.452 61.2609 134.202 59.4539 135.534 58.1212C136.867 56.7885 138.674 56.0388 140.559 56.0366H159.593C161.478 56.0388 163.285 56.7885 164.618 58.1213C165.95 59.454 166.7 61.2609 166.702 63.1457V71.8728C166.7 73.7575 165.95 75.5644 164.618 76.8971C163.285 78.2298 161.478 78.9794 159.593 78.9815ZM140.559 56.781C138.871 56.7829 137.254 57.4541 136.06 58.6473C134.867 59.8405 134.196 61.4582 134.194 63.1457V71.8728C134.196 73.5602 134.867 75.1779 136.06 76.3711C137.254 77.5642 138.871 78.2353 140.559 78.2372H159.593C161.281 78.2353 162.898 77.5642 164.091 76.3711C165.285 75.1779 165.956 73.5602 165.958 71.8728V63.1457C165.956 61.4583 165.285 59.8405 164.092 58.6473C162.898 57.4541 161.281 56.7829 159.593 56.781L140.559 56.781Z" fill="white"/>
<path d="M139.431 74.2441H156.326C157.203 74.2441 158.072 74.0714 158.882 73.7358C159.692 73.4002 160.428 72.9083 161.048 72.2882C161.668 71.6681 162.16 70.932 162.496 70.1218C162.831 69.3116 163.004 68.4433 163.004 67.5664V60.263C163.003 59.4531 162.854 58.6503 162.564 57.894C163.388 58.5147 164.057 59.3183 164.517 60.2416C164.978 61.1649 165.218 62.1825 165.218 63.2143V70.5176C165.218 71.3945 165.045 72.2629 164.709 73.0731C164.374 73.8832 163.882 74.6194 163.262 75.2395C162.642 75.8596 161.905 76.3514 161.095 76.687C160.285 77.0226 159.417 77.1953 158.54 77.1953H141.645C140.291 77.1946 138.969 76.782 137.855 76.0125C136.741 75.2429 135.888 74.1527 135.408 72.8866C136.564 73.7674 137.978 74.2443 139.431 74.2441Z" fill="#132F6D"/>
<path d="M150.369 40.5149C146.841 40.5149 143.739 42.1123 141.983 44.51C143.86 43.1437 146.127 42.4165 148.449 42.4354C153.913 42.4354 158.358 46.2629 158.358 50.9676V54.8783H160.278V49.0471C160.278 44.3424 155.833 40.5149 150.369 40.5149Z" fill="#132F6D"/>
<path d="M161.598 56.88H138.554V50.0999C138.554 44.6296 143.723 40.1792 150.076 40.1792C156.429 40.1792 161.598 44.6296 161.598 50.0999V56.88ZM139.298 56.1357H160.854V50.0999C160.854 45.04 156.019 40.9235 150.076 40.9235C144.133 40.9235 139.298 45.04 139.298 50.0999V56.1357Z" fill="white"/>
<path d="M155.978 54.2917H144.174C143.643 54.2911 143.134 54.0798 142.759 53.7043C142.383 53.3288 142.172 52.8197 142.171 52.2887V49.5905C142.171 45.8284 145.717 42.7678 150.076 42.7678C154.434 42.7678 157.98 45.8284 157.98 49.5905V52.2887C157.98 52.8197 157.769 53.3288 157.393 53.7043C157.018 54.0798 156.509 54.2911 155.978 54.2917ZM150.076 43.5122C146.128 43.5122 142.916 46.2387 142.916 49.5905V52.2887C142.916 52.6224 143.049 52.9423 143.285 53.1782C143.521 53.4142 143.841 53.5469 144.174 53.5473H155.978C156.311 53.5469 156.631 53.4142 156.867 53.1782C157.103 52.9423 157.236 52.6224 157.236 52.2887V49.5905C157.236 46.2387 154.024 43.5122 150.076 43.5122Z" fill="white"/>
</g>
<defs>
<filter id="filter0_d_574_28930" x="58.8559" y="-9.55504" width="227.244" height="107.118" filterUnits="userSpaceOnUse" color-interpolation-filters="sRGB">
<feFlood flood-opacity="0" result="BackgroundImageFix"/>
<feColorMatrix in="SourceAlpha" type="matrix" values="0 0 0 0 0 0 0 0 0 0 0 0 0 0 0 0 0 0 127 0" result="hardAlpha"/>
<feOffset dy="2.22006"/>
<feGaussianBlur stdDeviation="5.55014"/>
<feComposite in2="hardAlpha" operator="out"/>
<feColorMatrix type="matrix" values="0 0 0 0 0.697188 0 0 0 0 0.72474 0 0 0 0 0.8625 0 0 0 0.43 0"/>
<feBlend mode="normal" in2="BackgroundImageFix" result="effect1_dropShadow_574_28930"/>
<feBlend mode="normal" in="SourceGraphic" in2="effect1_dropShadow_574_28930" result="shape"/>
</filter>
<filter id="filter1_d_574_28930" x="21.67" y="19.8607" width="149.515" height="74.9269" filterUnits="userSpaceOnUse" color-interpolation-filters="sRGB">
<feFlood flood-opacity="0" result="BackgroundImageFix"/>
<feColorMatrix in="SourceAlpha" type="matrix" values="0 0 0 0 0 0 0 0 0 0 0 0 0 0 0 0 0 0 127 0" result="hardAlpha"/>
<feOffset dy="2.22006"/>
<feGaussianBlur stdDeviation="5.55014"/>
<feComposite in2="hardAlpha" operator="out"/>
<feColorMatrix type="matrix" values="0 0 0 0 0.697188 0 0 0 0 0.72474 0 0 0 0 0.8625 0 0 0 0.43 0"/>
<feBlend mode="normal" in2="BackgroundImageFix" result="effect1_dropShadow_574_28930"/>
<feBlend mode="normal" in="SourceGraphic" in2="effect1_dropShadow_574_28930" result="shape"/>
</filter>
<filter id="filter2_d_574_28930" x="118.242" y="65.372" width="149.515" height="74.9269" filterUnits="userSpaceOnUse" color-interpolation-filters="sRGB">
<feFlood flood-opacity="0" result="BackgroundImageFix"/>
<feColorMatrix in="SourceAlpha" type="matrix" values="0 0 0 0 0 0 0 0 0 0 0 0 0 0 0 0 0 0 127 0" result="hardAlpha"/>
<feOffset dy="2.22006"/>
<feGaussianBlur stdDeviation="5.55014"/>
<feComposite in2="hardAlpha" operator="out"/>
<feColorMatrix type="matrix" values="0 0 0 0 0.697188 0 0 0 0 0.72474 0 0 0 0 0.8625 0 0 0 0.43 0"/>
<feBlend mode="normal" in2="BackgroundImageFix" result="effect1_dropShadow_574_28930"/>
<feBlend mode="normal" in="SourceGraphic" in2="effect1_dropShadow_574_28930" result="shape"/>
</filter>
<filter id="filter3_d_574_28930" x="51.0857" y="77.5822" width="149.515" height="74.9271" filterUnits="userSpaceOnUse" color-interpolation-filters="sRGB">
<feFlood flood-opacity="0" result="BackgroundImageFix"/>
<feColorMatrix in="SourceAlpha" type="matrix" values="0 0 0 0 0 0 0 0 0 0 0 0 0 0 0 0 0 0 127 0" result="hardAlpha"/>
<feOffset dy="2.22006"/>
<feGaussianBlur stdDeviation="5.55014"/>
<feComposite in2="hardAlpha" operator="out"/>
<feColorMatrix type="matrix" values="0 0 0 0 0.697188 0 0 0 0 0.72474 0 0 0 0 0.8625 0 0 0 0.43 0"/>
<feBlend mode="normal" in2="BackgroundImageFix" result="effect1_dropShadow_574_28930"/>
<feBlend mode="normal" in="SourceGraphic" in2="effect1_dropShadow_574_28930" result="shape"/>
</filter>
<filter id="filter4_d_574_28930" x="37.7654" y="-7.89" width="104.343" height="56.2191" filterUnits="userSpaceOnUse" color-interpolation-filters="sRGB">
<feFlood flood-opacity="0" result="BackgroundImageFix"/>
<feColorMatrix in="SourceAlpha" type="matrix" values="0 0 0 0 0 0 0 0 0 0 0 0 0 0 0 0 0 0 127 0" result="hardAlpha"/>
<feOffset dy="2.22006"/>
<feGaussianBlur stdDeviation="5.55014"/>
<feComposite in2="hardAlpha" operator="out"/>
<feColorMatrix type="matrix" values="0 0 0 0 0.697188 0 0 0 0 0.72474 0 0 0 0 0.8625 0 0 0 0.43 0"/>
<feBlend mode="normal" in2="BackgroundImageFix" result="effect1_dropShadow_574_28930"/>
<feBlend mode="normal" in="SourceGraphic" in2="effect1_dropShadow_574_28930" result="shape"/>
</filter>
<filter id="filter5_d_574_28930" x="13.8997" y="54.2716" width="104.343" height="56.2191" filterUnits="userSpaceOnUse" color-interpolation-filters="sRGB">
<feFlood flood-opacity="0" result="BackgroundImageFix"/>
<feColorMatrix in="SourceAlpha" type="matrix" values="0 0 0 0 0 0 0 0 0 0 0 0 0 0 0 0 0 0 127 0" result="hardAlpha"/>
<feOffset dy="2.22006"/>
<feGaussianBlur stdDeviation="5.55014"/>
<feComposite in2="hardAlpha" operator="out"/>
<feColorMatrix type="matrix" values="0 0 0 0 0.697188 0 0 0 0 0.72474 0 0 0 0 0.8625 0 0 0 0.43 0"/>
<feBlend mode="normal" in2="BackgroundImageFix" result="effect1_dropShadow_574_28930"/>
<feBlend mode="normal" in="SourceGraphic" in2="effect1_dropShadow_574_28930" result="shape"/>
</filter>
<filter id="filter6_d_574_28930" x="149.323" y="-17.8802" width="104.343" height="56.2191" filterUnits="userSpaceOnUse" color-interpolation-filters="sRGB">
<feFlood flood-opacity="0" result="BackgroundImageFix"/>
<feColorMatrix in="SourceAlpha" type="matrix" values="0 0 0 0 0 0 0 0 0 0 0 0 0 0 0 0 0 0 127 0" result="hardAlpha"/>
<feOffset dy="2.22006"/>
<feGaussianBlur stdDeviation="5.55014"/>
<feComposite in2="hardAlpha" operator="out"/>
<feColorMatrix type="matrix" values="0 0 0 0 0.697188 0 0 0 0 0.72474 0 0 0 0 0.8625 0 0 0 0.43 0"/>
<feBlend mode="normal" in2="BackgroundImageFix" result="effect1_dropShadow_574_28930"/>
<feBlend mode="normal" in="SourceGraphic" in2="effect1_dropShadow_574_28930" result="shape"/>
</filter>
<clipPath id="clip0_574_28930">
<rect width="300" height="120" rx="10" fill="white"/>
</clipPath>
</defs>
</svg>
