<svg width="132" height="132" viewBox="0 0 132 132" fill="none" xmlns="http://www.w3.org/2000/svg">
<path d="M70.163 2.81273C71.0506 0.372977 74.6087 0.735671 74.9858 3.30436L75.3747 5.95357C75.8479 9.1762 80.0803 10.062 81.806 7.29952L83.2246 5.02859C84.6002 2.82671 88.005 3.92124 87.8399 6.5122L87.6695 9.18439C87.4623 12.435 91.4181 14.1814 93.6804 11.8381L95.5402 9.91171C97.3434 8.04393 100.446 9.82246 99.7461 12.3225L99.0239 14.9008C98.1453 18.0373 101.652 20.568 104.352 18.7462L106.571 17.2487C108.724 15.7966 111.389 18.1814 110.184 20.4812L108.942 22.8531C107.43 25.7383 110.334 28.9427 113.353 27.7222L115.836 26.7188C118.243 25.7459 120.354 28.6328 118.698 30.6318L116.989 32.6935C114.911 35.2015 117.085 38.9395 120.292 38.3735L122.929 37.9082C125.486 37.4571 126.951 40.7198 124.915 42.3307L122.815 43.9922C120.261 46.0132 121.61 50.1215 124.865 50.2348L127.541 50.3279C130.136 50.4182 130.89 53.9142 128.564 55.0666L126.165 56.2551C123.246 57.701 123.711 62 126.872 62.7876L129.47 63.435C131.989 64.0628 132 67.6393 129.485 68.2828L126.891 68.9465C123.736 69.7539 123.297 74.0558 126.225 75.4833L128.632 76.6568C130.965 77.7946 130.233 81.2952 127.638 81.4018L124.963 81.5117C121.709 81.6453 120.385 85.762 122.952 87.767L125.062 89.4153C127.109 91.0134 125.664 94.2852 123.105 93.8501L120.465 93.4014C117.254 92.8555 115.103 96.6071 117.197 99.102L118.919 101.153C120.588 103.142 118.495 106.042 116.082 105.084L113.593 104.096C110.565 102.894 107.682 106.117 109.212 108.993L110.469 111.357C111.688 113.649 109.038 116.05 106.877 114.612L104.648 113.128C101.936 111.323 98.4457 113.876 99.3439 117.007L100.082 119.581C100.798 122.076 97.7065 123.874 95.8916 122.018L94.0198 120.103C91.7428 117.774 87.798 119.545 88.0256 122.794L88.2127 125.466C88.3942 128.055 84.9962 129.171 83.6069 126.978L82.1741 124.716C80.4311 121.964 76.2043 122.877 75.7514 126.102L75.379 128.754C75.018 131.325 71.4623 131.71 70.5594 129.276L69.6282 126.765C68.4953 123.711 64.1712 123.725 63.0576 126.786L62.1421 129.302C61.2544 131.742 57.6964 131.379 57.3193 128.81L56.9303 126.161C56.4572 122.939 52.2247 122.053 50.499 124.815L49.0804 127.086C47.7049 129.288 44.3 128.194 44.4652 125.603L44.6356 122.93C44.8428 119.68 40.887 117.933 38.6247 120.277L36.7649 122.203C34.9616 124.071 31.8587 122.292 32.559 119.792L33.2812 117.214C34.1597 114.078 30.6535 111.547 27.9534 113.369L25.7337 114.866C23.5815 116.318 20.9162 113.933 22.1209 111.634L23.3635 109.262C24.8749 106.377 21.9714 103.172 18.9516 104.393L16.4691 105.396C14.062 106.369 11.9507 103.482 13.6073 101.483L15.3158 99.4213C17.3941 96.9133 15.2203 93.1753 12.0127 93.7413L9.3758 94.2066C6.81909 94.6578 5.35416 91.3951 7.39015 89.7841L9.48996 88.1227C12.0443 86.1016 10.6952 81.9933 7.43995 81.8801L4.76396 81.7869C2.16931 81.6967 1.41476 78.2007 3.74118 77.0482L6.14055 75.8597C9.05926 74.4139 8.59377 70.1148 5.43325 69.3273L2.8351 68.6798C0.31593 68.052 0.304718 64.4756 2.81991 63.832L5.41396 63.1683C8.56949 62.3609 9.00799 58.059 6.08028 56.6316L3.67351 55.4581C1.33991 54.3203 2.07253 50.8196 4.66657 50.7131L7.34192 50.6032C10.5964 50.4695 11.9197 46.3528 9.35274 44.3478L7.24255 42.6996C5.19651 41.1014 6.64095 37.8296 9.20045 38.2647L11.8402 38.7135C15.0513 39.2594 17.2016 35.5078 15.1076 33.0129L13.3862 30.9619C11.7172 28.9733 13.8103 26.0733 16.2234 27.0311L18.7122 28.0188C21.7396 29.2204 24.6229 25.9979 23.0934 23.1222L21.8361 20.7581C20.6169 18.466 23.2673 16.0645 25.4285 17.503L27.6575 18.9867C30.369 20.7914 33.8593 18.2388 32.9611 15.1079L32.2228 12.5341C31.5068 10.0386 34.5985 8.24061 36.4135 10.0971L38.2853 12.0117C40.5623 14.3408 44.507 12.5696 44.2794 9.32039L44.0923 6.64933C43.9109 4.05946 47.3089 2.94361 48.6982 5.13683L50.131 7.39881C51.874 10.1504 56.1008 9.23809 56.5537 6.01256L56.926 3.36096C57.287 0.789967 60.8427 0.404978 61.7457 2.83912L62.6769 5.34958C63.8097 8.40343 68.1339 8.38986 69.2475 5.32897L70.163 2.81273Z" stroke="#FF725E"/>
</svg>
