<svg width="10" height="10" viewBox="0 0 10 10" fill="none" xmlns="http://www.w3.org/2000/svg">
<path d="M6.6778 1.14462C5.15229 -0.38089 2.6694 -0.38089 1.14389 1.14462C-0.381296 2.67047 -0.381296 5.15302 1.14389 6.67887C2.5024 8.03705 4.61821 8.18255 6.14273 7.122C6.17481 7.27379 6.24822 7.41864 6.36628 7.5367L8.58792 9.75833C8.91167 10.0814 9.43484 10.0814 9.75694 9.75833C10.0804 9.43491 10.0804 8.91174 9.75694 8.58931L7.5353 6.36702C7.4179 6.24995 7.27273 6.1762 7.12094 6.14413C8.18215 4.61927 8.03664 2.50379 6.6778 1.14462ZM5.97639 5.97745C4.83746 7.11638 2.9839 7.11638 1.8453 5.97745C0.707034 4.83853 0.707034 2.98529 1.8453 1.84637C2.9839 0.70777 4.83746 0.70777 5.97639 1.84637C7.11532 2.98529 7.11532 4.83853 5.97639 5.97745Z" fill="#263657" fill-opacity="0.5"/>
</svg>
