<svg width="27" height="27" viewBox="0 0 27 27" fill="none" xmlns="http://www.w3.org/2000/svg">
<path d="M13.5 27C20.9558 27 27 20.9558 27 13.5C27 6.04416 20.9558 0 13.5 0C6.04416 0 0 6.04416 0 13.5C0 20.9558 6.04416 27 13.5 27Z" fill="#039BE5"/>
<path d="M6.1773 13.2075L19.1936 8.18886C19.7977 7.97061 20.3253 8.33624 20.1296 9.24974L20.1307 9.24861L17.9144 19.6897C17.7502 20.43 17.3103 20.61 16.6949 20.2612L13.3199 17.7739L11.6921 19.3421C11.5121 19.5221 11.3602 19.674 11.0114 19.674L11.2511 16.2394L17.5061 10.5885C17.7783 10.3489 17.4453 10.2139 17.0864 10.4524L9.35655 15.3191L6.0243 14.2796C5.30093 14.0501 5.28518 13.5562 6.1773 13.2075Z" fill="white"/>
</svg>
