<?xml version="1.0" encoding="UTF-8" standalone="no"?>
<svg
   width="34.715"
   height="30"
   viewBox="0 0 34.715 30"
   fill="none"
   version="1.1"
   id="svg29"
   sodipodi:docname="Group-3.svg"
   inkscape:version="1.2.2 (b0a84865, 2022-12-01)"
   xmlns:inkscape="http://www.inkscape.org/namespaces/inkscape"
   xmlns:sodipodi="http://sodipodi.sourceforge.net/DTD/sodipodi-0.dtd"
   xmlns="http://www.w3.org/2000/svg"
   xmlns:svg="http://www.w3.org/2000/svg">
  <sodipodi:namedview
     id="namedview31"
     pagecolor="#ffffff"
     bordercolor="#000000"
     borderopacity="0.25"
     inkscape:showpageshadow="2"
     inkscape:pageopacity="0.0"
     inkscape:pagecheckerboard="0"
     inkscape:deskcolor="#d1d1d1"
     showgrid="false"
     inkscape:zoom="6.2982603"
     inkscape:cx="39.296566"
     inkscape:cy="31.51664"
     inkscape:window-width="1470"
     inkscape:window-height="809"
     inkscape:window-x="0"
     inkscape:window-y="37"
     inkscape:window-maximized="1"
     inkscape:current-layer="g8" />
  <g
     filter="url(#filter0_d_574_25469)"
     id="g8">
    <path
       d="M 34.706351,3.6028479 V 21.725748 c 0,1.9844 -1.8456,3.599 -4.1127,3.599 h -8.1552 l -5.0907,4.6791 -5.0895,-4.6791 h -8.154 c -2.2682,-0.0013 -4.1126,-1.6146 -4.1126,-3.6003 V 3.6028479 c 0,-1.9844 1.8444,-3.59899998 4.1126,-3.59899998 h 26.4882 c 2.2683,0 4.1114,1.61329998 4.1139,3.59899998 z"
       fill="#f4f4fc"
       id="path2" />
    <path
       d="m 21.143551,7.0500479 c 0,1.7861 -1.6989,3.2341001 -3.7945,3.2341001 -2.0957,0 -3.7946,-1.4480001 -3.7946,-3.2341001 0,-1.7862 1.6989,-3.2342 3.7946,-3.2342 2.0956,0 3.7945,1.448 3.7945,3.2342 z"
       fill="#407bff"
       id="path4" />
    <path
       d="m 23.253851,19.681548 c 0.2242,0 0.4064,-0.1549 0.4006,-0.3459 -0.0302,-0.9948 -0.1909,-1.9756 -0.4751,-2.8971 -0.3171,-1.0282 -0.782,-1.9624 -1.368,-2.7494 -0.586,-0.7869 -1.2817,-1.4111 -2.0473,-1.837 -0.7657,-0.4259 -1.5863,-0.6451 -2.415,-0.6451 -0.8288,0 -1.6494,0.2192 -2.4151,0.6451 -0.7656,0.4259 -1.4613,1.0501 -2.0473,1.837 -0.586,0.787 -1.0508,1.7212 -1.368,2.7494 -0.2842,0.9215 -0.4448,1.9023 -0.4751,2.8971 -0.0058,0.191 0.1764,0.3459 0.4006,0.3459 z"
       fill="#407bff"
       id="path6" />
  </g>
  <defs
     id="defs27">
    <filter
       id="filter0_d_574_25469"
       x="0"
       y="0"
       width="74.714798"
       height="70"
       filterUnits="userSpaceOnUse"
       color-interpolation-filters="sRGB">
      <feFlood
         flood-opacity="0"
         result="BackgroundImageFix"
         id="feFlood10" />
      <feColorMatrix
         in="SourceAlpha"
         type="matrix"
         values="0 0 0 0 0 0 0 0 0 0 0 0 0 0 0 0 0 0 127 0"
         result="hardAlpha"
         id="feColorMatrix12" />
      <feOffset
         dy="4"
         id="feOffset14" />
      <feGaussianBlur
         stdDeviation="10"
         id="feGaussianBlur16" />
      <feComposite
         in2="hardAlpha"
         operator="out"
         id="feComposite18" />
      <feColorMatrix
         type="matrix"
         values="0 0 0 0 0.697188 0 0 0 0 0.72474 0 0 0 0 0.8625 0 0 0 0.43 0"
         id="feColorMatrix20" />
      <feBlend
         mode="normal"
         in2="BackgroundImageFix"
         result="effect1_dropShadow_574_25469"
         id="feBlend22" />
      <feBlend
         mode="normal"
         in="SourceGraphic"
         in2="effect1_dropShadow_574_25469"
         result="shape"
         id="feBlend24" />
    </filter>
  </defs>
</svg>
