<svg width="27" height="27" viewBox="0 0 27 27" fill="none" xmlns="http://www.w3.org/2000/svg">
<path d="M13.5 27C20.9558 27 27 20.9558 27 13.5C27 6.04416 20.9558 0 13.5 0C6.04416 0 0 6.04416 0 13.5C0 20.9558 6.04416 27 13.5 27Z" fill="#4D76A1"/>
<path fill-rule="evenodd" clip-rule="evenodd" d="M12.99 19.421H14.0496C14.0496 19.421 14.3697 19.3858 14.5331 19.2097C14.6835 19.048 14.6787 18.7443 14.6787 18.7443C14.6787 18.7443 14.658 17.3225 15.3179 17.1131C15.9683 16.9069 16.8036 18.4872 17.689 19.0949C18.3585 19.5548 18.8672 19.4539 18.8672 19.4539L21.2345 19.421C21.2345 19.421 22.4729 19.3447 21.8857 18.371C21.8376 18.2914 21.5437 17.6507 20.1256 16.3344C18.6412 14.9567 18.84 15.1795 20.628 12.7963C21.717 11.345 22.1523 10.4589 22.0164 10.0794C21.8866 9.71795 21.0858 9.81349 21.0858 9.81349L18.4203 9.83009C18.4203 9.83009 18.2227 9.80314 18.0762 9.89074C17.933 9.97665 17.8408 10.1769 17.8408 10.1769C17.8408 10.1769 17.419 11.3 16.8563 12.2551C15.6694 14.2706 15.1949 14.3769 15.0009 14.2518C14.5497 13.9601 14.6623 13.0801 14.6623 12.4549C14.6623 10.5017 14.9586 9.68739 14.0855 9.47658C13.7957 9.40655 13.5825 9.36034 12.8416 9.35288C11.8905 9.34302 11.0855 9.35577 10.6297 9.5791C10.3265 9.72758 10.0926 10.0585 10.2351 10.0775C10.4112 10.1011 10.8102 10.1851 11.0218 10.4731C11.2949 10.8447 11.2853 11.6793 11.2853 11.6793C11.2853 11.6793 11.4422 13.9784 10.9188 14.2641C10.5595 14.46 10.0666 14.06 9.00849 12.2315C8.4663 11.2949 8.05696 10.2597 8.05696 10.2597C8.05696 10.2597 7.97802 10.0662 7.83724 9.96269C7.66638 9.83731 7.42766 9.79737 7.42766 9.79737L4.89481 9.81397C4.89481 9.81397 4.51458 9.82456 4.37501 9.98989C4.25083 10.1369 4.36514 10.4411 4.36514 10.4411C4.36514 10.4411 6.3481 15.0804 8.59337 17.4183C10.6521 19.5617 12.99 19.421 12.99 19.421Z" fill="white"/>
</svg>
