<?xml version="1.0" encoding="UTF-8" standalone="no"?>
<svg
   width="46"
   height="40"
   viewBox="0 0 46 40"
   fill="none"
   version="1.1"
   id="svg16"
   sodipodi:docname="Group 3274-3.svg"
   inkscape:version="1.2.2 (b0a84865, 2022-12-01)"
   xmlns:inkscape="http://www.inkscape.org/namespaces/inkscape"
   xmlns:sodipodi="http://sodipodi.sourceforge.net/DTD/sodipodi-0.dtd"
   xmlns="http://www.w3.org/2000/svg"
   xmlns:svg="http://www.w3.org/2000/svg">
  <defs
     id="defs20" />
  <sodipodi:namedview
     id="namedview18"
     pagecolor="#ffffff"
     bordercolor="#000000"
     borderopacity="0.25"
     inkscape:showpageshadow="2"
     inkscape:pageopacity="0.0"
     inkscape:pagecheckerboard="0"
     inkscape:deskcolor="#d1d1d1"
     showgrid="false"
     inkscape:zoom="2.1651376"
     inkscape:cx="1.154661"
     inkscape:cy="54.5"
     inkscape:window-width="1470"
     inkscape:window-height="456"
     inkscape:window-x="0"
     inkscape:window-y="37"
     inkscape:window-maximized="0"
     inkscape:current-layer="svg16" />
  <g
     id="g307"
     transform="translate(-0.98726313,-1.3686191)">
    <path
       d="m 43.654388,4.8332441 c -4.4439,-4.61950003 -11.649,-4.61950003 -16.0931,0 l -2.5102,2.6095 c -0.5985,0.6221 -1.5692,0.6221 -2.1677,0 l -2.4701,-2.5678 c -4.4439,-4.61950003 -11.6489999,-4.61950003 -16.0930999,0 -4.44389996,4.6195 -4.44389996,12.1091999 0,16.7288999 l 18.5646999,19.2982 c 0.5985,0.6221 1.5692,0.6221 2.1677,0 l 18.6016,-19.3399 c 4.4441,-4.6197 4.4441,-12.1091999 2e-4,-16.7288999 z"
       fill="#407bff"
       id="path8" />
    <circle
       cx="39.487289"
       cy="32.868645"
       r="7.25"
       fill="#ffffff"
       stroke="#407bff"
       stroke-width="0.5"
       id="circle10" />
    <path
       d="m 40.724388,37.707644 c -0.0973,0.0243 -0.1954,0.0455 -0.2941,0.0637 -0.2566,0.0477 -0.4263,0.2946 -0.3788,0.5514 0.0224,0.1215 0.0916,0.2293 0.1927,0.3003 0.0514,0.0364 0.1097,0.0621 0.1713,0.0755 0.0615,0.0135 0.1252,0.0145 0.1871,0.0029 0.1175,-0.0218 0.2344,-0.0472 0.3504,-0.0761 0.2534,-0.063 0.4078,-0.3198 0.3445,-0.573 -0.063,-0.2536 -0.3195,-0.4078 -0.5731,-0.3447 z m 3.4973,-6.3389 c 0.0317,0.096 0.0935,0.1794 0.1762,0.2376 0.1185,0.0835 0.2735,0.1115 0.4214,0.0626 0.248,-0.0823 0.3823,-0.3497 0.3003,-0.5976 -0.0376,-0.1134 -0.0786,-0.2257 -0.123,-0.3367 -0.097,-0.2425 -0.3721,-0.3605 -0.6148,-0.2635 -0.2424,0.0969 -0.3605,0.3721 -0.2634,0.6147 0.0373,0.0932 0.0717,0.1875 0.1033,0.2829 z m -1.9605,5.6637 c -0.0838,0.0553 -0.1693,0.1081 -0.2563,0.1583 -0.2263,0.1305 -0.3038,0.4198 -0.1733,0.646 0.0342,0.0595 0.0809,0.1107 0.1369,0.1503 0.1459,0.1026 0.344,0.118 0.509,0.023 0.1036,-0.0597 0.2053,-0.1226 0.305,-0.1885 0.2179,-0.1439 0.2778,-0.4373 0.1338,-0.6552 -0.1439,-0.2181 -0.4372,-0.2779 -0.6551,-0.1339 z m 3.1524,-4.3429 c -0.0103,-0.261 -0.2301,-0.4642 -0.4912,-0.454 -0.2608,0.0103 -0.4641,0.2302 -0.4539,0.4912 0.004,0.0997 0.005,0.201 0.0027,0.3006 -0.0037,0.1637 0.0764,0.3097 0.2008,0.3974 0.0767,0.054 0.1678,0.084 0.2616,0.086 0.261,0.0057 0.4773,-0.2013 0.4831,-0.4624 0.0026,-0.1191 0.0016,-0.2398 -0.0031,-0.3588 z m -1.2691,3.0988 c -0.2093,-0.1571 -0.5054,-0.1144 -0.6622,0.0945 -0.0603,0.0803 -0.123,0.1587 -0.188,0.2351 -0.1692,0.1988 -0.1453,0.4973 0.0535,0.6667 0.0113,0.0096 0.0228,0.0184 0.0347,0.0267 0.1976,0.1393 0.4722,0.1073 0.632,-0.0802 0.0776,-0.0913 0.1524,-0.1849 0.2244,-0.2808 0.1568,-0.2089 0.1143,-0.5052 -0.0944,-0.662 z m 0.6952,-1.7096 c -0.2492,-0.0781 -0.5146,0.0606 -0.5927,0.3098 -0.0301,0.0958 -0.063,0.1907 -0.0988,0.2846 -0.0785,0.2062 -0.0033,0.4332 0.1692,0.5548 0.0323,0.0227 0.0673,0.0414 0.1043,0.0554 0.244,0.0931 0.5173,-0.0293 0.6103,-0.2735 0.0424,-0.1116 0.0816,-0.2244 0.1175,-0.3384 0.078,-0.2492 -0.0607,-0.5146 -0.3098,-0.5927 z m -6.1786,3.6969 c -0.4194,-0.0751 -0.8272,-0.2047 -1.213,-0.3855 -0.0046,-0.0024 -0.0087,-0.0051 -0.0134,-0.0073 -0.091,-0.0427 -0.1806,-0.0881 -0.2689,-0.1361 -3e-4,-3e-4 -8e-4,-6e-4 -0.0013,-8e-4 -0.1621,-0.0893 -0.3192,-0.1874 -0.4705,-0.294 -2.2247,-1.5671 -2.7596,-4.652 -1.1924,-6.8766 0.3408,-0.4836 0.7532,-0.887 1.213,-1.2068 0.0057,-0.0039 0.0113,-0.0078 0.0169,-0.0118 1.6202,-1.1163 3.8201,-1.1915 5.5404,-0.0444 l -0.3695,0.5338 c -0.1027,0.1486 -0.0395,0.2569 0.1403,0.2407 l 1.605,-0.1437 c 0.1801,-0.0161 0.2877,-0.1719 0.2393,-0.3458 l -0.431,-1.5528 c -0.0482,-0.1741 -0.1718,-0.1949 -0.2746,-0.0464 l -0.3703,0.5351 c -1.2625,-0.8474 -2.7768,-1.1706 -4.2797,-0.91 -0.1505,0.0261 -0.2998,0.058 -0.4478,0.0956 -0.0012,2e-4 -0.0021,3e-4 -0.003,5e-4 -0.0057,0.0014 -0.0115,0.0033 -0.017,0.0048 -1.296,0.3328 -2.4268,1.0887 -3.2337,2.1672 -0.0068,0.0081 -0.0138,0.016 -0.0202,0.0248 -0.0269,0.0363 -0.0535,0.073 -0.0795,0.11 -0.0428,0.0608 -0.0845,0.1224 -0.1249,0.1848 -0.005,0.0075 -0.0089,0.0151 -0.0133,0.0227 -0.6658,1.0318 -0.987,2.2246 -0.9319,3.439 10e-5,0.004 -1e-4,0.008 0,0.0121 0.0055,0.1194 0.0146,0.2386 0.0275,0.3573 7e-4,0.0077 0.0024,0.0149 0.0037,0.0225 0.0131,0.1198 0.03,0.2391 0.0505,0.3577 0.211,1.2174 0.7853,2.3128 1.6457,3.1651 0.002,0.002 0.0041,0.0042 0.0061,0.0063 8e-4,8e-4 0.0015,0.0012 0.0022,0.0019 0.2334,0.2302 0.4854,0.4408 0.7534,0.6296 0.7086,0.4993 1.4976,0.8294 2.345,0.9814 0.2571,0.0462 0.5027,-0.1249 0.5488,-0.3819 0.0461,-0.2572 -0.1249,-0.503 -0.3819,-0.549 z"
       fill="#407bff"
       id="path12" />
    <path
       d="m 39.245888,29.096644 c -0.2114,0 -0.3827,0.1714 -0.3827,0.3826 v 3.8121 l 3.4864,1.8024 c 0.0542,0.0281 0.1143,0.0427 0.1754,0.0427 0.1384,0 0.2722,-0.0754 0.3402,-0.207 0.097,-0.1878 0.0236,-0.4185 -0.1642,-0.5155 l -3.0727,-1.5885 v -3.3462 c 0,-0.2112 -0.1711,-0.3826 -0.3824,-0.3826 z"
       fill="#407bff"
       id="path14" />
  </g>
</svg>
