<?xml version="1.0" encoding="UTF-8"?>
<svg width="42" height="43" version="1.1" viewBox="0 0 42 43" xmlns="http://www.w3.org/2000/svg">
 <path d="m34.104 0h-26.207c-4.3612 0-7.8965 3.5354-7.8965 7.8965v17.189c0 4.3611 3.5354 7.8965 7.8965 7.8965h3.7611c0.1789 0 0.3239 0.145 0.3239 0.3239v8.4788c0 1.0024 1.2263 1.4885 1.913 0.7582l8.896-9.4589c0.0613-0.0652 0.1467-0.102 0.2361-0.102h11.077c4.3611 0 7.8965-3.5355 7.8965-7.8965v-17.189c0-4.3611-3.5354-7.8965-7.8965-7.8965z" fill="#FF725E"/>
 <g fill="#fff">
  <path d="m15.89 16.546c0 1.4112-1.144 2.5552-2.5552 2.5552s-2.5552-1.144-2.5552-2.5552c0-1.4111 1.144-2.5551 2.5552-2.5551s2.5552 1.144 2.5552 2.5551z"/>
  <path d="m23.513 16.546c0 1.4112-1.144 2.5552-2.5552 2.5552-1.4111 0-2.5551-1.144-2.5551-2.5552 0-1.4111 1.144-2.5551 2.5551-2.5551 1.4112 0 2.5552 1.144 2.5552 2.5551z"/>
  <path d="m31.137 16.546c0 1.4112-1.144 2.5552-2.5552 2.5552s-2.5552-1.144-2.5552-2.5552c0-1.4111 1.144-2.5551 2.5552-2.5551s2.5552 1.144 2.5552 2.5551z"/>
 </g>
</svg>
