<?xml version="1.0" encoding="UTF-8" standalone="no"?>
<svg
   width="67.511002"
   height="41"
   viewBox="0 0 67.511002 41"
   fill="none"
   version="1.1"
   id="svg20"
   sodipodi:docname="Group 3266.svg"
   inkscape:version="1.2.2 (b0a84865, 2022-12-01)"
   xmlns:inkscape="http://www.inkscape.org/namespaces/inkscape"
   xmlns:sodipodi="http://sodipodi.sourceforge.net/DTD/sodipodi-0.dtd"
   xmlns="http://www.w3.org/2000/svg"
   xmlns:svg="http://www.w3.org/2000/svg">
  <defs
     id="defs24" />
  <sodipodi:namedview
     id="namedview22"
     pagecolor="#ffffff"
     bordercolor="#000000"
     borderopacity="0.25"
     inkscape:showpageshadow="2"
     inkscape:pageopacity="0.0"
     inkscape:pagecheckerboard="0"
     inkscape:deskcolor="#d1d1d1"
     showgrid="false"
     inkscape:zoom="5.232769"
     inkscape:cx="23.219064"
     inkscape:cy="18.537031"
     inkscape:window-width="1470"
     inkscape:window-height="456"
     inkscape:window-x="0"
     inkscape:window-y="37"
     inkscape:window-maximized="0"
     inkscape:current-layer="svg20" />
  <path
     d="m 54.664505,19.287839 c 2.0235,0 3.7758,-0.718 5.2075,-2.1347 1.4317,-1.4163 2.1575,-3.1494 2.1575,-5.1515 0,-2.001501 -0.7258,-3.7347011 -2.1577,-5.1516016 -1.432,-1.4162 -3.184,-2.1342 -5.2073,-2.1342 -2.0238,0 -3.7756,0.718 -5.2073,2.1344 -1.4317,1.4164005 -2.1577,3.1497001 -2.1577,5.1514016 0,2.0021 0.726,3.7354 2.1579,5.1518 1.432,1.4161 3.184,2.1344 5.2071,2.1344 z"
     fill="#407bff"
     fill-opacity="0.6"
     id="path8" />
  <path
     d="m 67.551605,27.936839 c -0.0413,-0.5894 -0.1249,-1.2324 -0.2478,-1.9114 -0.1241,-0.6841 -0.2839,-1.3308 -0.4752,-1.9218 -0.1976,-0.611 -0.4664,-1.2143 -0.7986,-1.7924 -0.3448,-0.6001 -0.7497,-1.1226 -1.2042,-1.5525 -0.4752,-0.4499 -1.057,-0.8115 -1.7298,-1.0753 -0.6705,-0.2624 -1.4135,-0.3954 -2.2084,-0.3954 -0.3121,0 -0.614,0.1267 -1.197,0.5022 -0.3588,0.2315 -0.7785,0.4992 -1.2469,0.7954 -0.4006,0.2524 -0.9432,0.489 -1.6134,0.7032 -0.6539,0.2093 -1.3179,0.3155 -1.9732,0.3155 -0.6553,0 -1.319,-0.1062 -1.9736,-0.3155 -0.6696,-0.214 -1.2122,-0.4505 -1.6123,-0.703 -0.464,-0.2934 -0.8839,-0.5611 -1.2481,-0.7958 -0.5823,-0.3755 -0.8844,-0.5022 -1.1965,-0.5022 -0.7951,0 -1.5379,0.1332 -2.2081,0.3958 -0.6724,0.2634 -1.2544,0.625 -1.7301,1.0753 -0.4542,0.4302 -0.8594,0.9525 -1.2038,1.5523 -0.3319,0.5781 -0.6007,1.1812 -0.7985,1.7926 -0.1911,0.591 -0.3509,1.2375 -0.475,1.9216 -0.1229,0.678 -0.2065,1.3213 -0.2477,1.9121 -0.0406,0.5788 -0.0612,1.1796 -0.0612,1.7863 0,1.5791 0.5074,2.8575 1.508,3.8003 0.9882,0.9303 2.2958,1.4023 3.8859,1.4023 h 14.7234 c 1.5901,0 2.8972,-0.4717 3.8857,-1.4023 1.0008,-0.9421 1.5082,-2.2207 1.5082,-3.8005 -3e-4,-0.6095 -0.021,-1.2107 -0.0618,-1.7868 z"
     fill="#407bff"
     fill-opacity="0.6"
     id="path10" />
  <path
     d="m 12.664505,19.287839 c 2.0235,0 3.7758,-0.718 5.2075,-2.1347 1.4317,-1.4163 2.1575,-3.1494 2.1575,-5.1515 0,-2.001501 -0.7258,-3.7347011 -2.1577,-5.1516016 -1.432,-1.4162 -3.184,-2.1342 -5.2073,-2.1342 -2.0238,0 -3.7756004,0.718 -5.2073005,2.1344 -1.4317,1.4164005 -2.1577,3.1497001 -2.1577,5.1514016 0,2.0021 0.726,3.7354 2.1579,5.1518 1.4320001,1.4161 3.1840005,2.1344 5.2071005,2.1344 z"
     fill="#407bff"
     fill-opacity="0.6"
     id="path12" />
  <path
     d="m 25.551605,27.936839 c -0.0413,-0.5894 -0.1249,-1.2324 -0.2478,-1.9114 -0.1241,-0.6841 -0.2839,-1.3308 -0.4752,-1.9218 -0.1976,-0.611 -0.4664,-1.2143 -0.7986,-1.7924 -0.3448,-0.6001 -0.7497,-1.1226 -1.2042,-1.5525 -0.4752,-0.4499 -1.057,-0.8115 -1.7298,-1.0753 -0.6705,-0.2624 -1.4135,-0.3954 -2.2084,-0.3954 -0.3121,0 -0.614,0.1267 -1.197,0.5022 -0.3588,0.2315 -0.7785,0.4992 -1.2469,0.7954 -0.4006,0.2524 -0.9432,0.489 -1.6134,0.7032 -0.6539,0.2093 -1.3179,0.3155 -1.9732,0.3155 -0.6553,0 -1.319,-0.1062 -1.9736,-0.3155 -0.6696,-0.214 -1.2122004,-0.4505 -1.6123004,-0.703 -0.4640001,-0.2934 -0.8839001,-0.5611 -1.2481001,-0.7958 -0.5823,-0.3755 -0.8844,-0.5022 -1.1965,-0.5022 -0.7951,0 -1.5379,0.1332 -2.2081,0.3958 -0.6724,0.2634 -1.2544,0.625 -1.7301,1.0753 -0.4542,0.4302 -0.8594,0.9525 -1.20376,1.5523 -0.33197,0.5781 -0.60072,1.1812 -0.79854999,1.7926 -0.19107,0.591 -0.35087,1.2375 -0.47498,1.9216 -0.12294,0.678 -0.20646,1.3213 -0.24775,1.9121 -0.0406,0.5788 -0.06113,1.1796 -0.06113,1.7863 0,1.5791 0.50741,2.8575 1.50798999,3.8003 0.98818,0.9303 2.29578,1.4023 3.88588,1.4023 H 20.219505 c 1.5901,0 2.8972,-0.4717 3.8857,-1.4023 1.0008,-0.9421 1.5082,-2.2207 1.5082,-3.8005 -3e-4,-0.6095 -0.021,-1.2107 -0.0618,-1.7868 z"
     fill="#407bff"
     fill-opacity="0.6"
     id="path14" />
  <path
     d="m 33.284505,19.936539 c 2.7462,0 5.1243,-0.9744 7.0673,-2.897 1.943,-1.9222 2.928,-4.2742 2.928,-6.991401 0,-2.7163006 -0.985,-5.0686006 -2.9283,-6.9914006 -1.9434,-1.922 -4.3211,-2.89639996 -7.067,-2.89639996 -2.7466,0 -5.124,0.97439996 -7.0671,2.89669996 -1.943,1.9222 -2.9283,4.2745 -2.9283,6.9911006 0,2.717201 0.9853,5.069501 2.9287,6.991701 1.9433,1.9219 4.321,2.8967 7.0667,2.8967 z"
     fill="#407bff"
     id="path16" />
  <path
     d="m 50.773905,31.674439 c -0.056,-0.7999 -0.1694,-1.6726 -0.3362,-2.5941 -0.1685,-0.9284 -0.3853,-1.806 -0.645,-2.6082 -0.2681,-0.8291 -0.6329,-1.6478 -1.0837,-2.4324 -0.468,-0.8144 -1.0176,-1.5235 -1.6343,-2.1071 -0.645,-0.6104 -1.4346,-1.1012 -2.3477,-1.4593 -0.9099,-0.3561 -1.9183,-0.5365 -2.997,-0.5365 -0.4236,0 -0.8333,0.172 -1.6245,0.6816 -0.4869,0.3141 -1.0565,0.6775 -1.6923,1.0793 -0.5436,0.3427 -1.28,0.6637 -2.1896,0.9544 -0.8875,0.2841 -1.7885,0.4282 -2.6779,0.4282 -0.8893,0 -1.7901,-0.1441 -2.6785,-0.4282 -0.9086,-0.2903 -1.6451,-0.6114 -2.1881,-0.9541 -0.6297,-0.3981 -1.1996,-0.7614 -1.6938,-1.0799 -0.7903,-0.5097 -1.2003,-0.6816 -1.6239,-0.6816 -1.079,0 -2.0871,0.1807 -2.9967,0.5372 -0.9124,0.3573 -1.7024,0.8482 -2.3479,1.4593 -0.6165,0.5838 -1.1664,1.2926 -1.6337,2.1067 -0.4506,0.7846 -0.8153,1.603 -1.0838,2.4328 -0.2593,0.8021 -0.4761,1.6794 -0.6446,2.6078 -0.1668,0.9203 -0.2802,1.7932 -0.3362,2.5951 -0.0551,0.7855 -0.083,1.6008 -0.083,2.4243 0,2.143 0.6887,3.878 2.0466,5.1575 1.3411,1.2626 3.1157,1.9031 5.2737,1.9031 h 19.9817 c 2.158,0 3.932,-0.6402 5.2734,-1.9031 1.3583,-1.2786 2.0469,-3.0138 2.0469,-5.1578 -3e-4,-0.8272 -0.0285,-1.6432 -0.0839,-2.425 z"
     fill="#407bff"
     id="path18" />
</svg>
