<?xml version="1.0" encoding="UTF-8"?>
<svg width="38" height="45" version="1.1" viewBox="0 0 38 45" xmlns="http://www.w3.org/2000/svg">
 <path d="m18.712 21.706c3.0142 0 5.6242-1.0695 7.7568-3.1796 2.1326-2.1097 3.2136-4.6912 3.2136-7.6735 0-2.9812-1.081-5.563-3.214-7.6735-2.1329-2.1094-4.7426-3.1789-7.7564-3.1789-3.0146 0-5.6239 1.0695-7.7565 3.1793-2.1326 2.1098-3.214 4.6916-3.214 7.6731 0 2.9823 1.0814 5.5641 3.2143 7.6739 2.133 2.1094 4.7427 3.1792 7.7562 3.1792z" fill="#FF725E"/>
 <path d="m37.908 34.589c-0.0615-0.8781-0.1859-1.8358-0.369-2.8472-0.1849-1.019-0.4229-1.9822-0.7079-2.8627-0.2943-0.9099-0.6946-1.8086-1.1895-2.6697-0.5136-0.8939-1.1168-1.6722-1.7937-2.3126-0.7079-0.6701-1.5745-1.2088-2.5767-1.6017-0.9987-0.3909-2.1055-0.5889-3.2894-0.5889-0.4649 0-0.9146 0.1887-1.783 0.7481-0.5344 0.3448-1.1596 0.7436-1.8574 1.1846-0.5966 0.3761-1.4049 0.7285-2.4032 1.0475-0.9741 0.3118-1.963 0.47-2.9391 0.47-0.9762 0-1.9648-0.1582-2.9399-0.47-0.9973-0.3187-1.8055-0.671-2.4015-1.0471-0.6912-0.437-1.3167-0.8358-1.8591-1.1854-0.8673-0.5593-1.3173-0.748-1.7823-0.748-1.1843 0-2.2907 0.1983-3.289 0.5895-1.0015 0.3923-1.8685 0.931-2.577 1.6017-0.67658 0.6408-1.2802 1.4188-1.7931 2.3123-0.49449 0.8611-0.8948 1.7594-1.1895 2.6701-0.2846 0.8804-0.52263 1.8433-0.7075 2.8623-0.18313 1.01-0.30753 1.9681-0.36904 2.8482-0.060464 0.8622-0.091044 1.757-0.091044 2.6608 0 2.3522 0.7558 4.2563 2.2462 5.6607 1.472 1.3857 3.4197 2.0888 5.7882 2.0888h21.931c2.3685 0 4.3155-0.7027 5.7878-2.0888 1.4908-1.4033 2.2466-3.3079 2.2466-5.661-3e-4 -0.9079-0.0313-1.8035-0.0921-2.6615z" fill="#FF725E"/>
</svg>
