<?xml version="1.0" encoding="UTF-8"?>
<svg width="50" height="51" fill="none" version="1.1" viewBox="0 0 50 51" xmlns="http://www.w3.org/2000/svg">
 <g fill="#FF725E">
  <path d="m11.719 28.906h-3.125c-1.292 0-2.3438 1.0518-2.3438 2.3438v17.188c0 1.292 1.0518 2.3437 2.3438 2.3437h3.125c1.2919 0 2.3437-1.0517 2.3437-2.3437v-17.188c0-1.292-1.0518-2.3438-2.3437-2.3438z"/>
  <path d="m47.656 31.771h-0.7812v-4.0379c1.3375-0.2903 2.3438-1.5005 2.3438-2.9457 0-14.177-11.168-24.787-24.219-24.787-13.384 0-24.219 11.013-24.219 24.622 0 1.4773 0.99717 2.723 2.3438 3.0766v4.0718h-0.78125c-1.2944 0-2.3438 1.0668-2.3438 2.3828v11.12c0 1.316 1.0493 2.3828 2.3438 2.3828h2.0508c0.16182 0 0.29297-0.1333 0.29297-0.2978v-19.659c1.3466-0.3536 2.3438-1.5993 2.3438-3.0766 0-4.7904 1.8172-9.4053 5.2724-12.914 9.5127-9.6684 25.579-5.6464 29.75 7.2696 0.5938 1.8268 0.9151 3.7807 0.9151 5.8091 0 1.4452 1.0062 2.6554 2.3437 2.9457v19.626c0 0.1645 0.1312 0.2978 0.293 0.2978h2.0507c1.2945 0 2.3438-1.0668 2.3438-2.3828v-11.12c0-1.316-1.0493-2.3828-2.3438-2.3828z"/>
  <path d="m41.406 28.906h-3.125c-1.2919 0-2.3437 1.0518-2.3437 2.3438v17.188c0 1.292 1.0518 2.3437 2.3437 2.3437h3.125c1.292 0 2.3438-1.0517 2.3438-2.3437v-17.188c0-1.292-1.0518-2.3438-2.3438-2.3438z"/>
  <path d="m17.188 37.5c-0.4314 0-0.7813 0.3498-0.7813 0.7812v3.125c0 0.4315 0.3499 0.7813 0.7813 0.7813s0.7813-0.3498 0.7813-0.7813v-3.125c0-0.4314-0.3499-0.7812-0.7813-0.7812z"/>
  <path d="m21.094 35.938c-0.4315 0-0.7813 0.3498-0.7813 0.7813v6.25c0 0.4314 0.3498 0.7812 0.7813 0.7812 0.4314 0 0.7812-0.3498 0.7812-0.7812v-6.25c0-0.4315-0.3498-0.7813-0.7812-0.7813z"/>
  <path d="m32.812 37.5c-0.4314 0-0.7813 0.3498-0.7813 0.7812v3.125c0 0.4315 0.3499 0.7813 0.7813 0.7813s0.7813-0.3498 0.7813-0.7813v-3.125c0-0.4314-0.3499-0.7812-0.7813-0.7812z"/>
  <path d="m28.906 35.938c-0.4314 0-0.7812 0.3498-0.7812 0.7813v6.25c0 0.4314 0.3498 0.7812 0.7812 0.7812 0.4315 0 0.7813-0.3498 0.7813-0.7812v-6.25c0-0.4315-0.3498-0.7813-0.7813-0.7813z"/>
  <path d="m25 34.375c-0.4314 0-0.7812 0.3498-0.7812 0.7812v9.375c0 0.4315 0.3498 0.7813 0.7812 0.7813s0.7812-0.3498 0.7812-0.7813v-9.375c0-0.4314-0.3498-0.7812-0.7812-0.7812z"/>
  <path d="m32.031 14.879c0-0.5428-0.4881-0.9177-0.9707-0.7917-0.0099 0.0017-9.5084 2.4646-9.5673 2.5261-0.1348 0.0649-0.2972 0.2509-0.3565 0.4453-0.0647 0.1931-0.0429-0.4709-0.0429 9.6705-2.0557-1.2433-4.6876 0.2983-4.6876 2.8227 0 1.7976 1.4014 3.2609 3.125 3.2609 1.7264 0 3.125-1.4668 3.125-3.2609v-7.5153l7.8126-2.038v4.285c-2.0557-1.2433-4.6876 0.2983-4.6876 2.8227 0 1.7975 1.4014 3.2608 3.125 3.2608 1.7264 0 3.125-1.4667 3.125-3.2608v-12.227z"/>
 </g>
</svg>
