<?xml version="1.0" encoding="UTF-8"?>
<svg width="39" height="52" version="1.1" viewBox="0 0 39 52" xmlns="http://www.w3.org/2000/svg">
 <path d="m27.625 3.25h-3.5295c-0.6695-1.8915-2.4765-3.25-4.5955-3.25s-3.926 1.3585-4.5988 3.25h-3.5262c-0.897 0-1.625 0.728-1.625 1.625v6.5c0 0.897 0.728 1.625 1.625 1.625h16.25c0.897 0 1.625-0.728 1.625-1.625v-6.5c0-0.897-0.728-1.625-1.625-1.625z" fill="#FF725E"/>
 <path d="m35.75 6.5h-3.25v4.875c0 2.6877-2.1873 4.875-4.875 4.875h-16.25c-2.6878 0-4.875-2.1873-4.875-4.875v-4.875h-3.25c-1.7908 0-3.25 1.4592-3.25 3.25v39c0 1.8232 1.4268 3.25 3.25 3.25h32.5c1.8232 0 3.25-1.4268 3.25-3.25v-39c0-1.8232-1.4268-3.25-3.25-3.25zm-16.724 28.776-6.5 6.5c-0.3058 0.3039-0.7194 0.4745-1.1505 0.4745s-0.8447-0.1706-1.1505-0.4745l-3.25-3.25c-0.63375-0.6337-0.63375-1.664 0-2.2977 0.63375-0.6338 1.664-0.6338 2.2978 0l2.1028 2.0995 5.3495-5.3495c0.6337-0.6338 1.664-0.6338 2.2978 0 0.6337 0.6337 0.637 1.6607 0.0032 2.2977zm0-13-6.5 6.5c-0.3058 0.3039-0.7194 0.4745-1.1505 0.4745s-0.8447-0.1706-1.1505-0.4745l-3.25-3.25c-0.63375-0.6337-0.63375-1.664 0-2.2978 0.63375-0.6337 1.664-0.6337 2.2978 0l2.1028 2.0996 5.3495-5.3496c0.6337-0.6337 1.664-0.6337 2.2978 0 0.6337 0.6338 0.637 1.6608 0.0032 2.2978zm11.85 16.724h-6.5c-0.897 0-1.625-0.728-1.625-1.625s0.728-1.625 1.625-1.625h6.5c0.897 0 1.625 0.728 1.625 1.625s-0.728 1.625-1.625 1.625zm0-13h-6.5c-0.897 0-1.625-0.728-1.625-1.625s0.728-1.625 1.625-1.625h6.5c0.897 0 1.625 0.728 1.625 1.625s-0.728 1.625-1.625 1.625z" fill="#FF725E"/>
</svg>
