<?xml version="1.0" encoding="UTF-8"?>
<svg width="43" height="49" fill="none" version="1.1" viewBox="0 0 43 49" xmlns="http://www.w3.org/2000/svg">
 <g fill="#FF725E">
  <path d="m41.478 20.18-18.956-18.959c-1.1179-1.1152-2.9264-1.102-4.0298-0.00143-1.1096 1.1125-1.1096 2.9188 0 4.0298l18.959 18.958c1.1107 1.1107 2.9163 1.1107 4.0271 0 1.1137-1.1137 1.1137-2.9136 0-4.0271z"/>
  <path d="m17.087 7.8698-0.1426 0.7152c-1.0051 5.0273-3.4476 9.8033-6.7512 13.674l10.314 10.314c3.8704-3.303 8.5806-5.8111 13.608-6.8174l0.7165-0.1426-17.745-17.743z"/>
  <path d="m8.3005 24.396-7.0488 7.0473c-1.6655 1.6656-1.6725 4.3695 0 6.042l4.0271 4.0271c1.6655 1.6655 4.3695 1.6724 6.042 0l7.0481-7.0481-10.068-10.068zm1.0068 11.076c-0.55619 0.5561-1.4574 0.5561-2.0136 0-0.55619-0.5562-0.55619-1.4574 0-2.0136l2.0136-2.0135c0.55619-0.5562 1.4573-0.5562 2.0135 0s0.5562 1.4573 0 2.0135l-2.0135 2.0136z"/>
  <path d="m24.314 42.27 1.937-1.937c1.6726-1.6723 1.6671-4.3762 1e-4 -6.0404l-1.4387-1.4398c-0.7953 0.5341-1.5547 1.1145-2.2931 1.7338l1.7183 1.7208c0.5548 0.552 0.5587 1.4505 0 2.0121l-1.9691 1.9691-2.8936-2.8036-4.0273 4.0273 6.4606 6.2603c1.1025 1.1054 2.9127 1.1116 4.0257-0.0014 1.111-1.1111 1.111-2.9174 0-4.0285l-1.5199-1.4727z"/>
  <path d="m30.068 0c-0.7871 0-1.424 0.63688-1.424 1.4239v2.8479c0 0.78706 0.6369 1.4239 1.424 1.4239 0.787 0 1.4239-0.63688 1.4239-1.4239v-2.8479c0-0.78706-0.6369-1.4239-1.4239-1.4239z"/>
  <path d="m41.458 11.392h-2.8478c-0.7871 0-1.424 0.6369-1.424 1.424 0 0.787 0.6369 1.4239 1.424 1.4239h2.8478c0.7871 0 1.424-0.6369 1.424-1.4239 0-0.7871-0.6369-1.424-1.424-1.424z"/>
  <path d="m39.616 3.2655c-0.5561-0.55619-1.4573-0.55619-2.0135 0l-2.8479 2.8479c-0.5562 0.55619-0.5562 1.4574 0 2.0136s1.4574 0.55628 2.0136 0l2.8478-2.8479c0.5562-0.55619 0.5562-1.4574 0-2.0136z"/>
 </g>
</svg>
