<?xml version="1.0" encoding="UTF-8"?>
<svg width="42" height="52" version="1.1" viewBox="0 0 42 52" xmlns="http://www.w3.org/2000/svg">
 <path d="m20.8 42.337c11.488 0 20.8-9.4775 20.8-21.169 0-11.691-9.3124-21.169-20.8-21.169-11.488 0-20.8 9.4775-20.8 21.169 0 11.691 9.3125 21.169 20.8 21.169z" fill="#FF725E"/>
 <path d="m37.399 30.345h-33.197c-0.66477-8e-4 -1.3068 0.2461-1.805 0.6941 3.4862 6.7185 10.419 11.298 18.403 11.298s14.917-4.5796 18.404-11.298c-0.4982-0.448-1.1403-0.6949-1.805-0.6941z" fill="#FF725E"/>
 <path d="m20.8 39.198c9.7842 0 17.716-8.0722 17.716-18.03 0-9.9577-7.9317-18.03-17.716-18.03-9.7843 0-17.716 8.0722-17.716 18.03 0 9.9576 7.9316 18.03 17.716 18.03z" fill="#fff"/>
 <path d="m5.556 30.345c3.0896 5.2957 8.7657 8.8534 15.244 8.8534s12.154-3.5576 15.244-8.8534h-30.488z" fill="#fff"/>
 <path d="m37.399 52h-33.197c-1.5089 0-2.7321-1.2448-2.7321-2.7804v-12.955c0-1.5356 1.2232-2.7804 2.7321-2.7804h33.197c1.5088 0 2.732 1.2448 2.732 2.7804v12.955c1e-4 1.5356-1.2231 2.7804-2.7319 2.7804z" fill="#FF725E"/>
 <path d="m37.399 33.484h-3.0841c1.5088 0 2.732 1.2448 2.732 2.7804v12.955c0 1.5356-1.2232 2.7804-2.732 2.7804h3.0841c1.5089 0 2.732-1.2448 2.732-2.7804v-12.955c1e-4 -1.5356-1.223-2.7804-2.732-2.7804z" fill="#FF725E"/>
 <path d="m10.568 47.288h-0.0044c-0.8678 0.0049-2.1158 0.0098-2.8994 9e-3v-9.8957c2e-5 -0.103-0.01992-0.2051-0.05866-0.3003s-0.09553-0.1817-0.16713-0.2546c-0.0716-0.0728-0.1566-0.1306-0.25015-0.17-0.09354-0.0395-0.19381-0.0598-0.29506-0.0597-0.10126-1e-4 -0.20152 0.0202-0.29507 0.0597-0.09355 0.0394-0.17855 0.0972-0.25015 0.17-0.07159 0.0729-0.12838 0.1594-0.16713 0.2546-0.03874 0.0952-0.05867 0.1973-0.05866 0.3003v10.671c-2e-5 0.1851 0.06428 0.3643 0.18154 0.5059 0.11726 0.1415 0.27993 0.2363 0.45924 0.2676 0.05478 0.0095 0.11825 0.0206 1.2562 0.0206 0.55465 0 1.3648-0.0026 2.5533-0.0094 0.2045-6e-4 0.4003-0.0839 0.5445-0.2315s0.2248-0.3474 0.2242-0.5555c-5e-4 -0.2081-0.0824-0.4074-0.2274-0.5542-0.145-0.1467-0.3413-0.2288-0.5458-0.2282zm4.098-10.671c-0.1012-1e-4 -0.2015 0.0202-0.295 0.0597-0.0936 0.0394-0.1786 0.0972-0.2502 0.17-0.0716 0.0729-0.1284 0.1594-0.1671 0.2546-0.0388 0.0952-0.0587 0.1973-0.0587 0.3003v10.68c0 0.1031 0.0199 0.2051 0.0587 0.3003 0.0387 0.0952 0.0955 0.1817 0.1671 0.2546s0.1566 0.1307 0.2502 0.1701c0.0935 0.0394 0.1938 0.0597 0.295 0.0597 0.1013 0 0.2015-0.0203 0.2951-0.0597 0.0935-0.0394 0.1785-0.0972 0.2501-0.1701s0.1284-0.1594 0.1672-0.2546c0.0387-0.0952 0.0586-0.1972 0.0586-0.3003v-10.68c1e-4 -0.103-0.0199-0.2051-0.0586-0.3003s-0.0955-0.1817-0.1671-0.2546-0.1566-0.1307-0.2502-0.1701c-0.0935-0.0395-0.1938-0.0598-0.2951-0.0597zm20.04 10.632h-3.6105v-3.722h3.2875c0.2045 0 0.4006-0.0827 0.5452-0.2299 0.1446-0.1471 0.2258-0.3467 0.2258-0.5548s-0.0812-0.4077-0.2258-0.5549c-0.1446-0.1471-0.3407-0.2298-0.5452-0.2298h-3.2875v-3.7221h3.6105c0.2045 0 0.4006-0.0826 0.5452-0.2298 0.1446-0.1471 0.2258-0.3467 0.2258-0.5548s-0.0812-0.4077-0.2258-0.5549c-0.1446-0.1471-0.3407-0.2298-0.5452-0.2298h-4.3815c-0.1013 0-0.2015 0.0203-0.2951 0.0597-0.0935 0.0394-0.1785 0.0972-0.2501 0.1701s-0.1284 0.1594-0.1672 0.2546c-0.0387 0.0952-0.0586 0.1972-0.0586 0.3003v10.583c0 0.103 0.0199 0.2051 0.0586 0.3003 0.0388 0.0952 0.0956 0.1817 0.1672 0.2546 0.0716 0.0728 0.1566 0.1306 0.2501 0.1701 0.0936 0.0394 0.1938 0.0597 0.2951 0.0597h4.3815c0.4259 0 0.771-0.3513 0.771-0.7847s-0.3451-0.7848-0.771-0.7848zm-8.2366-10.572c-0.194-0.0656-0.4057-0.0501-0.5885 0.0432-0.1828 0.0932-0.3218 0.2565-0.3862 0.454l-2.9302 8.9767-3.0718-9.0062c-0.1396-0.4095-0.5792-0.6268-0.9812-0.4841-0.0957 0.0338-0.1839 0.0864-0.2595 0.1549-0.0757 0.0685-0.1374 0.1514-0.1815 0.2442-0.0442 0.0927-0.07 0.1933-0.0759 0.2962-6e-3 0.1029 0.0081 0.2059 0.0413 0.3033l3.5898 10.526c0.0699 0.1996 0.1986 0.3723 0.3686 0.4944 0.1701 0.1222 0.3731 0.1878 0.5812 0.1879h0.0068c0.4287-0.0029 0.8094-0.2824 0.9491-0.7007l3.4265-10.497c0.032-0.0977 0.0447-0.201 0.0374-0.3037-0.0072-0.1028-0.0343-0.2031-0.0797-0.2953-0.0453-0.0921-0.1081-0.1742-0.1846-0.2416-0.0766-0.0674-0.1655-0.1189-0.2616-0.1513z" fill="#fff"/>
 <path d="m16.88 27.074v-11.81c0-1.1961 1.3373-1.8833 2.283-1.1732l7.8636 5.905c0.776 0.5826 0.776 1.7635 0 2.3463l-7.8636 5.9049c-0.9457 0.7101-2.283 0.023-2.283-1.1731z" fill="#FF725E"/>
 <path d="m27.026 19.996-7.8637-5.9049c-0.8021-0.6024-1.8855-0.1993-2.1961 0.6668 4.2409 3.1846 4.2409 9.6379 0 12.822 0.3106 0.866 1.3941 1.2692 2.1961 0.6668l7.8637-5.905c0.776-0.5825 0.776-1.7633 0-2.3461z" fill="#FF725E"/>
</svg>
