<?xml version="1.0" encoding="UTF-8"?>
<svg width="56" height="36" version="1.1" viewBox="0 0 56 36" xmlns="http://www.w3.org/2000/svg">
 <path d="m28 26.579c4.7615 0 8.6213-3.8386 8.6213-8.5737 0-4.7352-3.8598-8.5738-8.6213-8.5738-4.7614 0-8.6213 3.8386-8.6213 8.5738 0 4.7351 3.8599 8.5737 8.6213 8.5737z" fill="#FF725E"/>
 <path d="m55.141 15.63c-6.627-7.9639-16.658-15.63-27.141-15.63-10.485 0-20.518 7.6714-27.141 15.63-1.1456 1.3761-1.1456 3.3738 0 4.7499 1.665 2.0009 5.1555 5.8633 9.8175 9.2382 11.741 8.5 22.88 8.5187 34.647 0 4.662-3.3749 8.1525-7.2373 9.8175-9.2382 1.1422-1.3734 1.1482-3.3693 0-4.7499zm-27.141-9.6283c6.6557 0 12.07 5.3843 12.07 12.003 0 6.619-5.4142 12.003-12.07 12.003-6.6556 0-12.07-5.3843-12.07-12.003 0-6.6189 5.4142-12.003 12.07-12.003z" fill="#FF725E"/>
</svg>
